<?xml version="1.0" encoding="UTF-8" standalone="no"?>
<!DOCTYPE svg PUBLIC "-//W3C//DTD SVG 1.1//EN" "http://www.w3.org/Graphics/SVG/1.1/DTD/svg11.dtd">
<svg width="100%" height="100%" viewBox="0 0 2944 2854" version="1.1" xmlns="http://www.w3.org/2000/svg" xmlns:xlink="http://www.w3.org/1999/xlink" xml:space="preserve" xmlns:serif="http://www.serif.com/" style="fill-rule:evenodd;clip-rule:evenodd;stroke-linejoin:round;stroke-miterlimit:2;">
    <g transform="matrix(1,0,0,1,-3120,-12267)">
        <g id="Artboard21" transform="matrix(1,0,0,1,9543.32,52.8119)">
            <rect x="-6422.34" y="12214.7" width="2942.64" height="2853.47" style="fill:none;"/>
            <g transform="matrix(5.44722,0,0,5.44722,-6349.29,12232.2)">
                <path d="M489.666,459.667L489.666,147.785C502.845,134.469 511,116.171 511,96C511,55.38 477.953,22.333 437.333,22.333C396.713,22.333 363.666,55.38 363.666,96C363.666,112.835 369.355,128.358 378.894,140.778C372.02,202.507 319.533,250.667 256,250.667C192.467,250.667 139.98,202.507 133.105,140.779C142.644,128.359 148.333,112.836 148.333,96.001C148.333,55.381 115.286,22.334 74.666,22.334C34.047,22.333 1,55.38 1,96C1,116.171 9.155,134.469 22.333,147.785L22.333,459.666L-0,459.666L-0,489.666L512,489.666L512,459.666L489.666,459.666L489.666,459.667ZM481,96C481,120.078 461.411,139.667 437.333,139.667C413.255,139.667 393.666,120.078 393.666,96C393.666,71.922 413.255,52.333 437.333,52.333C461.411,52.333 481,71.922 481,96ZM415,166.196C422.048,168.444 429.55,169.667 437.333,169.667C445.117,169.667 452.618,168.444 459.666,166.196L459.666,459.667L415,459.667L415,166.196ZM256,280.667C310.006,280.667 357.588,252.659 385,210.409L385,410.042L349.289,357.334L162.711,357.334L127,410.042L127,210.408C154.412,252.658 201.994,280.667 256,280.667ZM74.666,52.333C98.744,52.333 118.333,71.922 118.333,96C118.333,120.078 98.744,139.667 74.666,139.667C50.589,139.667 31,120.078 31,96C31,71.922 50.589,52.333 74.666,52.333ZM52.333,166.196C59.381,168.444 66.882,169.667 74.666,169.667C82.45,169.667 89.951,168.444 97,166.196L97,459.667L52.333,459.667L52.333,166.196ZM129.615,459.667L178.622,387.334L333.378,387.334L382.385,459.667L129.615,459.667Z" style="fill:rgb(55,143,176);fill-rule:nonzero;"/>
            </g>
        </g>
    </g>
</svg>
