<?xml version="1.0" encoding="UTF-8" standalone="no"?>
<!DOCTYPE svg PUBLIC "-//W3C//DTD SVG 1.1//EN" "http://www.w3.org/Graphics/SVG/1.1/DTD/svg11.dtd">
<svg width="100%" height="100%" viewBox="0 0 2944 2854" version="1.1" xmlns="http://www.w3.org/2000/svg" xmlns:xlink="http://www.w3.org/1999/xlink" xml:space="preserve" xmlns:serif="http://www.serif.com/" style="fill-rule:evenodd;clip-rule:evenodd;stroke-linejoin:round;stroke-miterlimit:2;">
    <g transform="matrix(1,0,0,1,-3138,-15495)">
        <g id="Artboard21" transform="matrix(1,0,0,1,9561.16,3280.79)">
            <rect x="-6422.34" y="12214.7" width="2942.64" height="2853.47" style="fill:none;"/>
            <g transform="matrix(5.68682,0,0,5.68682,-6401.47,12187.6)">
                <path d="M456,206C431.853,206 411.651,223.205 407.006,246L375.58,246C373.459,220.415 363.276,197.085 347.586,178.557L369.843,156.3C389.06,169.059 415.512,167.199 432.777,149.934C452.27,130.439 452.27,98.719 432.777,79.224C413.235,59.683 381.609,59.682 362.065,79.224C344.991,96.298 342.872,122.749 355.706,142.152L333.443,164.414C314.915,148.723 291.586,138.541 266,136.42L266,104.994C288.795,100.348 306,80.147 306,56C306,28.43 283.57,6 256,6C228.43,6 206,28.43 206,56C206,80.146 223.205,100.348 246,104.994L246,136.42C220.415,138.541 197.084,148.723 178.557,164.414L156.295,142.152C169.128,122.749 167.009,96.298 149.935,79.224C130.394,59.684 98.767,59.682 79.224,79.224C59.729,98.719 59.729,130.44 79.224,149.935C96.473,167.184 122.926,169.069 142.158,156.3L164.415,178.557C148.724,197.085 138.542,220.415 136.421,246L104.995,246C100.349,223.205 80.148,206 56.001,206C28.431,206 6.001,228.43 6.001,256C6.001,283.57 28.431,306 56.001,306C80.147,306 100.349,288.795 104.995,266L136.421,266C138.542,291.586 148.724,314.915 164.415,333.443L142.157,355.7C122.941,342.941 96.488,344.802 79.223,362.065C59.728,381.561 59.728,413.282 79.223,432.778C98.766,452.317 130.389,452.318 149.934,432.778C167.008,415.703 169.127,389.252 156.294,369.848L178.556,347.585C197.084,363.275 220.414,373.458 245.999,375.579L245.999,407.005C223.204,411.651 205.999,431.853 205.999,455.999C205.999,483.569 228.429,505.999 255.999,505.999C283.569,505.999 305.999,483.569 305.999,455.999C305.999,431.852 288.794,411.65 265.999,407.005L265.999,375.58C291.585,373.459 314.914,363.276 333.442,347.586L355.705,369.849C342.871,389.252 344.99,415.703 362.065,432.779C381.606,452.318 413.232,452.319 432.776,432.779C452.27,413.283 452.27,381.562 432.776,362.066C415.528,344.82 389.077,342.929 369.842,355.701L347.585,333.444C363.276,314.916 373.458,291.587 375.579,266.001L407.005,266.001C411.651,288.796 431.853,306.001 455.999,306.001C483.569,306.001 505.999,283.571 505.999,256.001C505.999,228.431 483.57,206 456,206ZM376.208,93.366C387.931,81.642 406.909,81.64 418.635,93.365C430.331,105.062 430.331,124.094 418.635,135.791C406.911,147.516 387.933,147.517 376.208,135.791C364.511,124.095 364.511,105.063 376.208,93.366ZM226,56C226,39.458 239.458,26 256,26C272.542,26 286,39.458 286,56C286,72.542 272.542,86 256,86C239.458,86 226,72.542 226,56ZM93.366,135.792C81.669,124.095 81.669,105.063 93.366,93.366C105.089,81.642 124.067,81.64 135.792,93.366C147.489,105.063 147.489,124.095 135.792,135.792C124.069,147.516 105.091,147.518 93.366,135.792ZM56,286C39.458,286 26,272.542 26,256C26,239.458 39.458,226 56,226C72.542,226 86,239.458 86,256C86,272.542 72.542,286 56,286ZM135.792,418.636C124.066,430.36 105.09,430.36 93.366,418.636C81.668,406.939 81.668,387.906 93.366,376.208C105.087,364.484 124.067,364.48 135.792,376.208C147.49,387.905 147.49,406.939 135.792,418.636ZM286,456C286,472.542 272.542,486 256,486C239.458,486 226,472.542 226,456C226,439.458 239.458,426 256,426C272.542,426 286,439.458 286,456ZM418.635,376.208C430.332,387.905 430.332,406.938 418.636,418.636C406.908,430.36 387.934,430.36 376.208,418.636C364.511,406.939 364.511,387.906 376.208,376.208C381.874,370.541 389.408,367.421 397.422,367.421C405.435,367.421 412.969,370.541 418.635,376.208ZM256,356C200.86,356 156,311.141 156,256C156,200.86 200.86,156 256,156C311.141,156 356,200.86 356,256C356,311.141 311.141,356 256,356ZM456,286C439.458,286 426,272.542 426,256C426,239.458 439.458,226 456,226C472.542,226 486,239.458 486,256C486,272.542 472.542,286 456,286Z" style="fill:rgb(55,143,176);fill-rule:nonzero;"/>
            </g>
        </g>
    </g>
</svg>
