<?xml version="1.0" encoding="UTF-8" standalone="no"?>
<!DOCTYPE svg PUBLIC "-//W3C//DTD SVG 1.1//EN" "http://www.w3.org/Graphics/SVG/1.1/DTD/svg11.dtd">
<svg width="100%" height="100%" viewBox="0 0 2944 2854" version="1.1" xmlns="http://www.w3.org/2000/svg" xmlns:xlink="http://www.w3.org/1999/xlink" xml:space="preserve" xmlns:serif="http://www.serif.com/" style="fill-rule:evenodd;clip-rule:evenodd;stroke-linecap:round;stroke-linejoin:round;stroke-miterlimit:10;">
    <g transform="matrix(1,0,0,1,-17,-12214)">
        <g id="Artboard21" transform="matrix(1,0,0,1,6440.18,-0.69059)">
            <rect x="-6422.34" y="12214.7" width="2942.64" height="2853.47" style="fill:none;"/>
            <clipPath id="_clip1">
                <rect x="-6422.34" y="12214.7" width="2942.64" height="2853.47"/>
            </clipPath>
            <g clip-path="url(#_clip1)">
                <g id="g1535" transform="matrix(5.61641,0,0,-5.61641,-6408.17,15047.5)">
                    <g id="g1537">
                        <clipPath id="_clip2">
                            <rect x="0" y="0" width="512" height="512"/>
                        </clipPath>
                        <g clip-path="url(#_clip2)">
                            <g id="g1543" transform="matrix(1,0,0,1,502,222)">
                                <path id="path1545" d="M0,0L0,68C0,73.523 -4.477,78 -10,78L-47.418,78C-52.604,101.567 -61.871,123.602 -74.456,143.319L-48.01,169.764C-44.105,173.67 -44.105,180.001 -48.01,183.907L-96.093,231.99C-99.999,235.895 -106.33,235.895 -110.236,231.99L-136.681,205.544C-156.398,218.129 -178.433,227.396 -202,232.582L-202,270C-202,275.523 -206.477,280 -212,280L-280,280C-285.523,280 -290,275.523 -290,270L-290,232.527C-313.533,227.316 -335.536,218.037 -355.221,205.446L-381.764,231.99C-385.67,235.895 -392.001,235.895 -395.907,231.99L-443.99,183.907C-447.895,180.001 -447.895,173.67 -443.99,169.764L-417.388,143.162C-429.923,123.486 -439.155,101.505 -444.328,78L-482,78C-487.523,78 -492,73.523 -492,68L-492,0C-492,-5.523 -487.523,-10 -482,-10L-444.273,-10C-439.076,-33.471 -429.83,-55.419 -417.29,-75.065L-443.99,-101.764C-447.895,-105.67 -447.895,-112.001 -443.99,-115.907L-395.907,-163.99C-392.001,-167.895 -385.67,-167.895 -381.764,-163.99L-355.065,-137.29C-335.419,-149.83 -313.471,-159.076 -290,-164.273L-290,-202C-290,-207.523 -285.523,-212 -280,-212L-212,-212C-206.477,-212 -202,-207.523 -202,-202L-202,-164.328C-178.495,-159.155 -156.514,-149.923 -136.838,-137.388L-110.236,-163.99C-106.33,-167.895 -99.999,-167.895 -96.093,-163.99L-48.01,-115.907C-44.105,-112.001 -44.105,-105.67 -48.01,-101.764L-74.554,-75.221C-61.963,-55.536 -52.684,-33.533 -47.473,-10L-10,-10C-4.477,-10 0,-5.523 0,0Z" style="fill:none;fill-rule:nonzero;stroke:rgb(55,143,176);stroke-width:20px;"/>
                            </g>
                            <g id="g1547" transform="matrix(1,0,0,1,377.706,316.777)">
                                <path id="path1549" d="M0,0C25.438,-50.922 16.925,-114.479 -25.539,-156.943C-78.65,-210.054 -164.761,-210.054 -217.872,-156.943C-270.983,-103.832 -270.983,-17.721 -217.872,35.39C-173.809,79.453 -107.033,86.96 -55.231,57.91" style="fill:none;fill-rule:nonzero;stroke:rgb(55,143,176);stroke-width:20px;"/>
                            </g>
                        </g>
                    </g>
                </g>
            </g>
        </g>
    </g>
</svg>
