<?xml version="1.0" encoding="UTF-8" standalone="no"?>
<!DOCTYPE svg PUBLIC "-//W3C//DTD SVG 1.1//EN" "http://www.w3.org/Graphics/SVG/1.1/DTD/svg11.dtd">
<svg width="100%" height="100%" viewBox="0 0 2943 2855" version="1.1" xmlns="http://www.w3.org/2000/svg" xmlns:xlink="http://www.w3.org/1999/xlink" xml:space="preserve" xmlns:serif="http://www.serif.com/" style="fill-rule:evenodd;clip-rule:evenodd;stroke-linejoin:round;stroke-miterlimit:2;">
    <g transform="matrix(1,0,0,1,0,-15459)">
        <g id="Artboard21" transform="matrix(1,0,0,1,6422.34,3245.13)">
            <rect x="-6422.34" y="12214.7" width="2942.64" height="2853.47" style="fill:none;"/>
            <g transform="matrix(6.0304,0,0,6.0304,-6337.34,12215.7)">
                <path d="M469.331,181.333C469.328,178.035 467.81,174.924 465.198,172.906C465.188,172.896 439.12,152.694 405.333,126.165L405.333,85.333C405.333,61.802 386.198,42.666 362.666,42.666L300.541,42.666C285.342,30.253 272.152,19.279 263.343,11.468C254.874,3.972 244.773,0.001 234.675,0C224.567,-0.001 214.462,3.976 206,11.469C197.191,19.28 184.003,30.254 168.793,42.667L106.667,42.667C83.135,42.667 64,61.802 64,85.333L64,126.164C30.206,152.691 4.146,172.896 4.135,172.906C1.523,174.924 0.005,178.035 0.002,181.333L0,181.333L0,426.666C0,450.197 19.135,469.333 42.667,469.333L426.667,469.333C450.198,469.333 469.334,450.198 469.334,426.666L469.334,181.333L469.331,181.333ZM405.333,153.275C420.252,164.956 432.915,174.828 441.26,181.323C432.928,187.792 420.244,197.658 405.333,209.318L405.333,153.275ZM220.146,27.437C229.292,19.333 240.031,19.322 249.198,27.447C253.999,31.693 260.053,36.853 267.008,42.666L202.334,42.666C209.29,36.853 215.345,31.689 220.146,27.437ZM85.333,85.333C85.333,73.573 94.906,64 106.666,64L362.666,64C374.427,64 384,73.573 384,85.333L384,226.036C336.253,263.537 276.358,311.173 249.198,335.218C246.625,337.499 241.26,341.333 234.333,341.333C229.27,341.333 224.385,339.281 219.802,335.218C192.476,311.023 132.881,263.542 85.333,226.132L85.333,85.333ZM64,153.275L64,209.386C49.079,197.7 36.395,187.813 28.062,181.334C36.401,174.837 49.07,164.964 64,153.275ZM448,426.667C448,438.427 438.427,448 426.667,448L42.667,448C30.907,448 21.334,438.427 21.334,426.667L21.334,203.112C65.824,237.742 168.755,318.508 205.657,351.198C214.136,358.698 224.053,362.667 234.334,362.667C244.688,362.667 254.99,358.594 263.344,351.198C301.694,317.238 406.667,235.23 448,203.105L448,426.667Z" style="fill:rgb(55,143,176);fill-rule:nonzero;"/>
            </g>
        </g>
    </g>
</svg>
