<?xml version="1.0" encoding="UTF-8" standalone="no"?>
<!DOCTYPE svg PUBLIC "-//W3C//DTD SVG 1.1//EN" "http://www.w3.org/Graphics/SVG/1.1/DTD/svg11.dtd">
<svg width="100%" height="100%" viewBox="0 0 2599 671" version="1.1" xmlns="http://www.w3.org/2000/svg" xmlns:xlink="http://www.w3.org/1999/xlink" xml:space="preserve" xmlns:serif="http://www.serif.com/" style="fill-rule:evenodd;clip-rule:evenodd;stroke-linejoin:round;stroke-miterlimit:2;">
    <g transform="matrix(1,0,0,1,-8319,-5701)">
        <g id="Artboard9" transform="matrix(0.989731,0,0,0.784211,7602.38,3032.41)">
            <rect x="724.439" y="3403.77" width="2624.66" height="853.518" style="fill:none;"/>
            <g id="Layer-1" serif:id="Layer 1" transform="matrix(3.33842,0,0,4.21333,737.576,3423.14)">
                <g transform="matrix(1,0,0,1,337.781,27.6733)">
                    <path d="M0,-27.673C-0.004,-27.408 -0.008,-27.143 -0.012,-26.879C-1.349,-25.535 -3.094,-25.733 -4.74,-25.71C-9.637,-25.643 -14.534,-25.698 -19.431,-25.682C-25.054,-25.664 -25.098,-25.624 -25.116,-20.183C-25.134,-15.048 -25.089,-9.912 -25.139,-4.777C-25.154,-3.126 -24.988,-1.406 -26.184,0C-27.637,-0.643 -27.155,-1.96 -27.157,-3.026C-27.174,-11.241 -27.136,-19.457 -27.115,-27.673L0,-27.673Z" style="fill:rgb(252,228,199);fill-rule:nonzero;"/>
                </g>
                <g transform="matrix(1,0,0,1,0.6338,124.983)">
                    <path d="M0,10.138L-0.319,10.152L-0.634,10.095L-0.634,0.061C-0.426,-0.001 -0.214,-0.014 0,0.019C2.055,3.392 2.055,6.765 0,10.138" style="fill:rgb(198,237,243);fill-rule:nonzero;"/>
                </g>
                <g transform="matrix(1,0,0,1,368.248,188.737)">
                    <path d="M0,-161.174C1.675,-160.249 0.962,-158.65 0.966,-157.354C1.016,-140.764 0.999,-124.174 0.999,-107.583L0.999,-103.642C2.013,-103.194 2.343,-103.719 2.617,-104.072C15.935,-121.188 47.704,-118.557 60.037,-98.647C66.02,-88.99 68.887,-78.469 69.804,-67.33C70.909,-53.907 70.513,-40.592 65.492,-27.842C57.819,-8.355 40.656,1.082 19.987,-2.763C12.453,-4.165 6.39,-8.093 1.544,-13.954C0.892,-14.743 0.256,-15.546 -0.402,-16.33C-0.472,-16.412 -0.642,-16.412 -0.97,-16.513C-2.231,-13.428 -2.337,-10.09 -2.935,-6.877C-3.299,-4.924 -4.007,-4.146 -6.157,-4.201C-12.607,-4.363 -19.068,-4.407 -25.515,-4.191C-28.393,-4.094 -28.867,-5.18 -28.855,-7.739C-28.762,-28.187 -28.812,-48.635 -28.801,-69.084C-28.784,-99.692 -28.752,-130.299 -28.726,-160.907C-27.788,-161.978 -26.489,-162.109 -25.21,-162.132C-18.167,-162.256 -11.124,-162.213 -4.08,-162.16C-2.647,-162.15 -1.307,-161.721 0,-161.174" style="fill:rgb(30,187,211);fill-rule:nonzero;"/>
                </g>
                <g transform="matrix(1,0,0,1,555.393,128.859)">
                    <path d="M0,1.565C-0.266,12.006 -1.674,22.369 -6.73,31.957C-14.503,46.691 -26.585,55.251 -43.216,57.233C-59.208,59.139 -74.129,56.823 -86.58,45.631C-93.352,39.545 -97.935,31.975 -100.502,23.311C-104.65,9.312 -104.876,-4.877 -101.043,-18.939C-95.162,-40.514 -79.834,-53.047 -57.223,-55.323C-34.853,-57.574 -15.914,-47.748 -6.394,-28.893C-1.587,-19.374 -0.157,-9.127 0,1.565" style="fill:rgb(30,187,211);fill-rule:nonzero;"/>
                </g>
                <g transform="matrix(1,0,0,1,663.211,185.306)">
                    <path d="M0,-109.776C-4.438,-102.496 -8.499,-95.83 -12.565,-89.168C-18.795,-78.963 -24.957,-68.716 -31.32,-58.595C-32.63,-56.511 -32.483,-55.091 -31.242,-53.106C-21.633,-37.733 -12.135,-22.291 -2.608,-6.867C-1.482,-5.045 -0.392,-3.201 1.038,-0.832C-9.999,-0.832 -20.396,-0.87 -30.791,-0.798C-32.729,-0.784 -33.072,-2.156 -33.677,-3.373C-38.476,-13.038 -43.251,-22.715 -48.044,-32.382C-48.649,-33.603 -49.313,-34.795 -50.218,-36.508C-54.304,-28.267 -58.147,-20.45 -62.051,-12.664C-64,-8.776 -65.147,-3.547 -68.329,-1.488C-71.354,0.47 -76.556,-0.864 -80.801,-0.84C-87.253,-0.802 -93.705,-0.837 -100.157,-0.855C-100.39,-0.855 -100.622,-0.988 -100.902,-1.074C-101.021,-2.501 -99.944,-3.386 -99.298,-4.435C-89.379,-20.523 -79.488,-36.628 -69.438,-52.634C-67.952,-55 -67.81,-56.633 -69.35,-59.093C-79.036,-74.568 -88.52,-90.169 -98.064,-105.731C-98.725,-106.808 -99.342,-107.91 -99.957,-108.964C-99.138,-110.246 -97.999,-109.746 -97.078,-109.751C-88.174,-109.795 -79.269,-109.693 -70.367,-109.834C-67.973,-109.872 -66.739,-109.176 -65.717,-106.939C-61.287,-97.247 -56.633,-87.657 -52.05,-78.035C-51.68,-77.257 -51.226,-76.517 -50.469,-75.134C-47.205,-81.808 -44.176,-87.975 -41.172,-94.155C-39.038,-98.544 -36.915,-102.939 -34.841,-107.355C-34.144,-108.839 -33.407,-109.84 -31.448,-109.821C-21.262,-109.723 -11.074,-109.776 0,-109.776" style="fill:rgb(30,187,211);fill-rule:nonzero;"/>
                </g>
                <g transform="matrix(1,0,0,1,658.402,128.819)">
                    <path d="M0,0.89C0.02,-14.205 12.815,-25.233 27.997,-23.167C30.192,-22.868 31.643,-23.013 33.066,-25.233C45.091,-43.979 71.845,-44.011 83.877,-25.314C85.242,-23.194 86.286,-22.514 88.935,-22.992C102.259,-25.394 114.155,-17.603 117.382,-4.682C120.463,7.657 113.503,20.143 101.077,24.327C99.241,24.947 98.138,25.797 97.212,27.569C90.085,41.213 73.36,44.868 60.987,35.472C59.269,34.167 58.437,34.386 56.833,35.59C44.44,44.901 27.913,41.174 20.669,27.433C19.721,25.634 18.472,24.873 16.699,24.267C6.182,20.663 -0.015,11.927 0,0.89" style="fill:rgb(142,142,142);fill-rule:nonzero;"/>
                </g>
                <g transform="matrix(1,0,0,1,281.735,133.589)">
                    <path d="M0,-3.438C-11.361,-3.438 -22.723,-3.316 -34.081,-3.516C-37.274,-3.572 -37.953,-2.493 -37.865,0.434C-37.598,9.3 -35.982,17.775 -31.569,25.588C-25.193,36.877 -15.562,42.682 -2.511,42.688C8.953,42.694 19.429,39.746 28.203,32.085C29.735,30.749 30.285,31.004 31.339,32.568C35.833,39.236 35.861,39.767 29.061,44.28C3.63,61.154 -42.493,57.055 -49.327,9.766C-51.213,-3.284 -50.93,-16.403 -46.22,-29.045C-37.454,-52.574 -15.199,-64.592 8.781,-58.75C24.119,-55.014 35.208,-41.661 37.478,-24.552C38.261,-18.651 38.067,-12.754 38.284,-6.851C38.382,-4.174 37.596,-3.343 34.855,-3.377C23.238,-3.52 11.619,-3.438 0,-3.438" style="fill:rgb(30,187,211);fill-rule:nonzero;"/>
                </g>
                <g transform="matrix(1,0,0,1,0.6338,118.251)">
                    <path d="M0,16.87L0,6.751C0.465,-3.662 2.996,-13.446 8.204,-22.599C25.052,-52.213 72.183,-53.137 88.917,-21.772C100.607,0.141 100.563,23.127 89.064,45.114C79.662,63.09 63.303,70.007 43.432,68.208C22.789,66.339 10.021,54.325 3.262,35.373C1.137,29.416 0.255,23.183 0,16.87" style="fill:rgb(30,187,211);fill-rule:nonzero;"/>
                </g>
                <g transform="matrix(1,0,0,1,135.007,162.624)">
                    <path d="M0,-69.709C2.109,-72.559 3.839,-75.076 5.884,-77.356C17.88,-90.734 38.384,-91.726 51.632,-86.022C63.421,-80.948 68.129,-70.79 70.232,-58.987C71,-54.673 71.207,-50.317 71.201,-45.935C71.168,-24.589 71.124,-3.244 71.256,18.101C71.274,21.126 70.485,21.994 67.421,21.931C58.975,21.758 58.989,21.904 58.968,13.477C58.917,-7.48 58.892,-28.436 58.74,-49.392C58.718,-52.452 58.296,-55.557 57.655,-58.556C54.503,-73.289 42.934,-80.523 26.793,-78.295C13.524,-76.464 5.197,-68.891 0.456,-56.789C-0.181,-55.163 -0.205,-53.541 -0.205,-51.873C-0.204,-28.598 -0.275,-5.324 -0.124,17.95C-0.103,21.2 -0.977,22.017 -4.174,21.935C-12.481,21.722 -12.485,21.881 -12.485,13.74C-12.485,-18.407 -12.43,-50.553 -12.564,-82.699C-12.579,-86.174 -11.771,-87.341 -8.14,-87.184C-1.363,-86.891 -1.375,-87.109 -1.081,-80.377C-0.952,-77.428 -0.73,-74.483 -0.519,-71.538C-0.487,-71.099 -0.28,-70.672 0,-69.709" style="fill:rgb(30,187,211);fill-rule:nonzero;"/>
                </g>
                <g transform="matrix(1,0,0,1,368.248,1.0168)">
                    <path d="M0,26.546C-9.576,26.635 -19.151,26.724 -28.727,26.813C-38.035,26.761 -47.343,26.709 -56.651,26.657C-57.318,18.472 -56.725,10.271 -56.969,2.082C-57.038,-0.238 -55.695,-0.267 -54.016,-0.259C-46.17,-0.22 -38.325,-0.229 -30.479,-0.222C-21.016,7.972 -11.548,16.16 -2.097,24.368C-1.339,25.026 -0.696,25.817 0,26.546" style="fill:rgb(246,150,34);fill-rule:nonzero;"/>
                </g>
                <g transform="matrix(1,0,0,1,369.248,125.989)">
                    <path d="M0,4.342C0,-1.958 0.251,-8.271 -0.084,-14.554C-0.327,-19.104 1.797,-22.191 4.948,-24.81C16.017,-34.009 31.854,-30.039 36.386,-16.524C40.897,-3.064 40.903,10.783 37.253,24.487C35.303,31.81 30.489,36.598 22.635,37.446C14.245,38.351 6.699,36.641 1.235,29.512C0.146,28.092 -0.028,26.5 -0.017,24.783C0.025,17.97 0,11.155 0,4.342" style="fill:rgb(241,244,247);fill-rule:nonzero;"/>
                </g>
                <g transform="matrix(1,0,0,1,481.591,130.172)">
                    <path d="M0,-0.119C-0.154,-8.165 0.759,-15.997 4.459,-23.32C8.078,-30.484 13.891,-33.85 21.898,-33.824C29.883,-33.798 36.101,-30.619 39.282,-23.277C45.937,-7.924 45.85,7.696 39.405,23.08C36.234,30.651 29.861,33.731 21.704,33.657C13.54,33.585 7.663,30.192 4.116,22.781C0.635,15.507 -0.106,7.777 0,-0.119" style="fill:rgb(241,244,247);fill-rule:nonzero;"/>
                </g>
                <g transform="matrix(1,0,0,1,744.437,130.809)">
                    <path d="M0,-3.466C-1.419,0.359 -2.865,4.176 -4.242,8.015C-4.7,9.292 -5.114,10.355 -6.82,10.325C-8.408,10.298 -8.684,9.162 -9.072,8.111C-10.484,4.292 -11.849,0.454 -13.871,-3.327C-13.871,0.402 -13.938,4.134 -13.842,7.861C-13.796,9.643 -14.336,10.367 -16.237,10.357C-18.122,10.347 -18.68,9.637 -18.657,7.85C-18.585,1.943 -18.662,-3.966 -18.607,-9.873C-18.596,-11.13 -19.246,-13.025 -16.893,-12.943C-15.008,-12.876 -12.696,-13.914 -11.753,-10.996C-10.258,-6.375 -8.596,-1.808 -6.705,3.645C-4.864,-1.499 -3.053,-5.762 -1.847,-10.189C-0.885,-13.715 1.595,-13.112 3.916,-12.921C6.742,-12.688 5.389,-10.338 5.432,-8.983C5.597,-3.722 5.511,1.548 5.491,6.813C5.485,8.522 6.072,10.448 3.021,10.379C0.22,10.314 0.759,8.559 0.745,6.976C0.715,3.53 0.735,0.083 0.735,-3.364C0.49,-3.398 0.245,-3.432 0,-3.466" style="fill:rgb(241,244,247);fill-rule:nonzero;"/>
                </g>
                <g transform="matrix(1,0,0,1,722.724,118.463)">
                    <path d="M0,22.254C-5.101,23.02 -5.64,22.649 -5.937,17.878C-6.061,15.888 -5.95,13.855 -8.576,13.478C-11.212,13.099 -13.598,13.103 -12.991,16.964C-12.795,18.219 -13.005,19.531 -12.964,20.816C-12.899,22.803 -14.273,22.613 -15.591,22.667C-16.998,22.726 -17.747,22.311 -17.736,20.74C-17.691,14.313 -17.696,7.884 -17.733,1.456C-17.742,0.043 -17.303,-0.712 -15.763,-0.651C-12.8,-0.535 -9.794,-0.766 -6.881,-0.34C-1.641,0.425 0.527,5.567 -2.629,9.756C-3.664,11.13 -3.544,11.581 -2.486,12.773C-0.09,15.471 -1.697,19.269 0,22.254" style="fill:rgb(241,244,247);fill-rule:nonzero;"/>
                </g>
                <g transform="matrix(1,0,0,1,683.704,127.25)">
                    <path d="M0,2.257C0.077,-7.322 5.558,-12.01 13.39,-9.145C15.593,-8.34 17.145,-6.927 17.793,-4.658C18.09,-3.62 18.9,-2.129 17.315,-1.751C16.069,-1.455 14.088,-0.62 13.432,-2.864C12.679,-5.438 10.91,-6.451 8.451,-5.925C5.928,-5.385 5.066,-3.321 4.99,-0.976C4.914,1.329 4.848,3.658 5.097,5.943C5.333,8.11 6.446,9.855 8.885,10.185C11.079,10.483 12.682,9.687 13.32,7.446C13.966,5.182 15.87,5.839 17.141,6.161C19.13,6.666 17.941,8.238 17.575,9.292C16.422,12.602 13.2,14.267 8.757,13.999C4.574,13.748 1.194,11.082 0.432,7.236C0.109,5.611 0.134,3.918 0,2.257" style="fill:rgb(241,244,247);fill-rule:nonzero;"/>
                </g>
                <g transform="matrix(1,0,0,1,276.142,83.3321)">
                    <path d="M0,36.194C-9.279,36.194 -18.559,36.12 -27.836,36.239C-30.587,36.274 -31.316,35.626 -30.834,32.716C-29.062,22.033 -24.784,12.715 -15.883,6.258C-6.226,-0.748 4.657,-1.446 15.284,3.352C26.265,8.31 30.4,18.341 31.307,29.643C31.949,37.64 32.395,36.09 25.131,36.172C16.755,36.266 8.377,36.194 0,36.194" style="fill:rgb(241,244,247);fill-rule:nonzero;"/>
                </g>
                <g transform="matrix(1,0,0,1,13.0845,125.621)">
                    <path d="M0,4.557C-0.479,-7.103 2.208,-17.803 8.619,-27.68C20.684,-46.266 50.51,-46.362 62.889,-28.272C67.883,-20.974 70.982,-13.042 71.77,-4.338C72.979,9.023 72.255,22.13 65.055,34.092C58.292,45.328 48.419,50.919 35.242,50.655C21.85,50.386 12.292,44.068 6.028,32.424C1.327,23.685 -0.401,14.335 0,4.557" style="fill:rgb(241,244,247);fill-rule:nonzero;"/>
                </g>
                <g transform="matrix(0.034053,0.99942,0.99942,-0.034053,712.776,121.445)">
                    <path d="M3.392,-3.12C1.405,-3.233 -0.343,-3.19 -0.045,-0.413C0.193,1.807 0.699,3.798 3.392,3.781C6.11,3.765 6.538,1.855 6.631,-0.453C6.737,-3.049 5.473,-3.545 3.392,-3.12" style="fill:rgb(142,142,142);fill-rule:nonzero;"/>
                </g>
            </g>
        </g>
    </g>
</svg>
