<?xml version="1.0" encoding="UTF-8" standalone="no"?>
<!DOCTYPE svg PUBLIC "-//W3C//DTD SVG 1.1//EN" "http://www.w3.org/Graphics/SVG/1.1/DTD/svg11.dtd">
<svg width="100%" height="100%" viewBox="0 0 688 890" version="1.1" xmlns="http://www.w3.org/2000/svg" xmlns:xlink="http://www.w3.org/1999/xlink" xml:space="preserve" xmlns:serif="http://www.serif.com/" style="fill-rule:evenodd;clip-rule:evenodd;stroke-linejoin:round;stroke-miterlimit:2;">
    <g transform="matrix(1,0,0,1,-14507,-3057)">
        <g id="Artboard13" transform="matrix(1.00227,0,0,1.01236,3442.65,-44.9049)">
            <rect x="11040.3" y="3064.11" width="684.92" height="878.88" style="fill:none;"/>
            <clipPath id="_clip1">
                <rect x="11040.3" y="3064.11" width="684.92" height="878.88"/>
            </clipPath>
            <g clip-path="url(#_clip1)">
                <g transform="matrix(0.769998,0,0,0.769998,3009.28,1176.89)">
                    <g transform="matrix(0.99774,0,0,0.987792,11040.3,3064.11)">
                        <g>
                            <path d="M202.478,512C90.832,512 0,421.185 0,309.558C0,197.931 90.832,107.115 202.478,107.115C239.379,107.115 275.524,117.182 307.009,136.228L290.012,164.316C263.654,148.372 233.386,139.943 202.478,139.943C108.937,139.943 32.835,216.032 32.835,309.558C32.835,403.083 108.937,479.172 202.478,479.172C296.02,479.172 372.122,403.083 372.122,309.558C372.122,278.657 363.694,248.394 347.746,222.042L375.84,205.048C394.889,236.526 404.957,272.666 404.957,309.558C404.957,421.185 314.125,512 202.478,512Z" style="fill:rgb(233,244,245);fill-opacity:0.62;fill-rule:nonzero;"/>
                        </g>
                        <g>
                            <path d="M202.478,421.986C140.474,421.986 90.03,371.551 90.03,309.558C90.03,247.564 140.474,197.129 202.478,197.129C214.44,197.129 226.222,199.001 237.498,202.693L227.28,233.891C219.308,231.281 210.964,229.957 202.478,229.957C158.579,229.957 122.865,265.666 122.865,309.557C122.865,353.447 158.58,389.156 202.478,389.156C246.377,389.156 282.092,353.447 282.092,309.557C282.092,300.707 280.654,292.022 277.818,283.744L308.88,273.105C312.892,284.815 314.927,297.079 314.927,309.557C314.927,371.55 264.483,421.986 202.478,421.986Z" style="fill:rgb(233,244,245);fill-opacity:0.62;fill-rule:nonzero;"/>
                        </g>
                    </g>
                    <g transform="matrix(0.99774,0,0,0.987792,11040.3,3064.11)">
                        <path d="M498.254,63.037L455.508,56.572L449.042,13.834C447.07,0.802 430.548,-4.666 421.201,4.682L359.72,66.152C356.045,69.828 354.327,75.027 355.09,80.168L361.971,126.523L210.942,277.84C208.24,277.119 205.405,276.728 202.478,276.728C184.374,276.728 169.644,291.455 169.644,309.557C169.644,327.658 184.374,342.385 202.478,342.385C220.583,342.385 235.313,327.658 235.313,309.557C235.313,306.607 234.916,303.751 234.183,301.03L385.157,149.768L431.818,156.958C436.935,157.747 442.266,156.002 445.928,152.342L507.408,90.872C513.584,86.05 516.047,65.258 498.254,63.037ZM428.594,123.245L393.884,117.897L388.782,83.522L421.438,50.872L424.854,73.446C425.93,80.56 431.515,86.144 438.631,87.219L461.209,90.635L428.594,123.245Z" style="fill:rgb(233,244,245);fill-opacity:0.62;fill-rule:nonzero;"/>
                    </g>
                </g>
            </g>
        </g>
    </g>
</svg>
