<?xml version="1.0" encoding="UTF-8" standalone="no"?>
<!DOCTYPE svg PUBLIC "-//W3C//DTD SVG 1.1//EN" "http://www.w3.org/Graphics/SVG/1.1/DTD/svg11.dtd">
<svg width="100%" height="100%" viewBox="0 0 1350 219" version="1.1" xmlns="http://www.w3.org/2000/svg" xmlns:xlink="http://www.w3.org/1999/xlink" xml:space="preserve" xmlns:serif="http://www.serif.com/" style="fill-rule:evenodd;clip-rule:evenodd;stroke-linejoin:round;stroke-miterlimit:2;">
    <g transform="matrix(1,0,0,1,-9426,-1198)">
        <g id="Artboard7" transform="matrix(1.04634,0,0,0.269603,11072,-390.159)">
            <rect x="-1572.17" y="5891.72" width="1289.26" height="808.596" style="fill:rgb(245,245,252);"/>
            <clipPath id="_clip1">
                <rect x="-1572.17" y="5891.72" width="1289.26" height="808.596"/>
            </clipPath>
            <g clip-path="url(#_clip1)">
                <g id="OBJECTS" transform="matrix(0.504324,0,0,1.95729,-616.032,5906.37)">
                    <g transform="matrix(0.98155,0,0,1.01378,-145.731,345.429)">
                        <path d="M0,-233.777C-17.393,-233.777 -31.623,-248.007 -31.623,-265.399C-31.623,-282.792 -17.393,-297.022 0,-297.022C17.393,-297.022 31.623,-282.792 31.623,-265.399C31.623,-248.007 17.393,-233.777 0,-233.777M56.246,63.245L598.336,63.245C614.233,63.245 627.239,50.24 627.239,34.341C627.239,18.443 614.233,5.437 598.336,5.437L586.316,5.437C534.754,5.437 606.213,-36.751 606.213,-88.313C606.213,-139.875 564.026,-182.063 512.463,-182.063L512.667,-182.066L435.335,-182.066C429.267,-182.066 424.302,-187.03 424.302,-193.099C424.302,-199.168 429.267,-204.133 435.335,-204.133L484.434,-204.133C492.893,-204.133 499.814,-211.054 499.814,-219.513C499.814,-227.973 492.893,-234.894 484.434,-234.894L422.803,-234.894C405.719,-234.894 391.741,-248.873 391.741,-265.957C391.741,-283.043 377.762,-297.021 360.677,-297.021L360.744,-297.022L79.614,-297.022C62.221,-297.022 47.991,-282.792 47.991,-265.399C47.991,-248.007 62.221,-233.777 79.614,-233.777L127.15,-233.777L127.073,-233.776C136.903,-233.735 144.931,-225.681 144.931,-215.843C144.931,-206.005 136.903,-197.952 127.073,-197.91L127.15,-197.909C107.651,-197.909 91.698,-181.955 91.698,-162.457C91.698,-142.958 75.745,-127.005 56.246,-127.005C3.927,-127.005 -38.879,-84.198 -38.879,-31.88C-38.879,20.44 3.927,63.245 56.246,63.245Z" style="fill:rgb(226,232,245);"/>
                    </g>
                    <g transform="matrix(1,0,0,1,20.8455,0)">
                        <g transform="matrix(1,0,0,1,375.581,199.493)">
                            <path d="M0,8.201C-1.093,5.401 -2.315,2.664 -3.662,0L-88.158,0C-88.884,0 -89.16,0.594 -88.773,1.318L-85.805,6.883C-85.418,7.608 -84.51,8.201 -83.783,8.201L0,8.201Z" style="fill:rgb(177,192,226);"/>
                        </g>
                        <g transform="matrix(1,0,0,1,379.094,210.476)">
                            <path d="M0,8.202C-0.705,5.418 -1.534,2.681 -2.481,0L-91.671,0C-92.397,0 -92.673,0.594 -92.286,1.318L-89.317,6.884C-88.931,7.609 -88.022,8.202 -87.296,8.202L0,8.202Z" style="fill:rgb(177,192,226);"/>
                        </g>
                        <g transform="matrix(1,0,0,1,381.176,221.46)">
                            <path d="M0,8.202C-0.354,5.43 -0.835,2.694 -1.427,0L-93.753,0C-94.479,0 -94.755,0.593 -94.368,1.318L-91.399,6.885C-91.013,7.609 -90.105,8.202 -89.378,8.202L0,8.202Z" style="fill:rgb(177,192,226);"/>
                        </g>
                        <g transform="matrix(1,0,0,1,381.916,232.445)">
                            <path d="M0,8.202C-0.026,5.438 -0.17,2.703 -0.432,0L-94.493,0C-95.219,0 -95.495,0.593 -95.108,1.317L-92.14,6.884C-91.753,7.609 -90.845,8.202 -90.118,8.202L0,8.202Z" style="fill:rgb(177,192,226);"/>
                        </g>
                        <g transform="matrix(1,0,0,1,382.48,243.429)">
                            <path d="M0,8.202C-0.294,5.499 -0.472,2.765 -0.529,0L-95.058,0C-95.783,0 -96.06,0.593 -95.673,1.318L-92.704,6.884C-92.317,7.608 -91.409,8.202 -90.683,8.202L0,8.202Z" style="fill:rgb(177,192,226);"/>
                        </g>
                        <g transform="matrix(1,0,0,1,302.586,274.257)">
                            <path d="M0,-71.763C0,-72.221 -0.372,-72.593 -0.83,-72.593C-1.289,-72.593 -1.661,-72.221 -1.661,-71.763L-1.661,0C-1.661,0.458 -1.289,0.83 -0.83,0.83C-0.372,0.83 0,0.458 0,0L0,-71.763Z" style="fill:rgb(177,192,226);"/>
                        </g>
                        <g transform="matrix(1,0,0,1,298.434,274.256)">
                            <path d="M0,19.186C0,21.02 1.487,22.507 3.321,22.507C5.155,22.507 6.642,21.02 6.642,19.186L6.642,0C6.642,-1.834 5.155,-3.321 3.321,-3.321C1.487,-3.321 0,-1.834 0,0L0,19.186Z" style="fill:rgb(177,192,226);"/>
                        </g>
                        <g transform="matrix(1,0,0,1,-46.0979,209.674)">
                            <path d="M0,-7.854C-2.664,-7.208 -5.441,-6.865 -8.296,-6.865C-20.781,-6.865 -32.721,-4.421 -43.67,0L4.335,0C5.03,0 5.9,-0.568 6.27,-1.261L9.114,-6.591C9.483,-7.286 9.218,-7.854 8.524,-7.854L0,-7.854Z" style="fill:rgb(177,192,226);"/>
                        </g>
                        <g transform="matrix(1,0,0,1,-95.7649,220.193)">
                            <path d="M0,-7.855C-4.647,-5.591 -9.084,-2.959 -13.276,0L54.002,0C54.697,0 55.567,-0.567 55.937,-1.261L58.781,-6.592C59.15,-7.287 58.885,-7.855 58.191,-7.855L0,-7.855Z" style="fill:rgb(177,192,226);"/>
                        </g>
                        <g transform="matrix(1,0,0,1,-112.632,230.713)">
                            <path d="M0,-7.854C-3.127,-5.419 -6.103,-2.797 -8.904,0L70.87,0C71.564,0 72.434,-0.568 72.804,-1.262L75.648,-6.592C76.017,-7.286 75.752,-7.854 75.058,-7.854L0,-7.854Z" style="fill:rgb(177,192,226);"/>
                        </g>
                        <g transform="matrix(1,0,0,1,-124.095,241.232)">
                            <path d="M0,-7.855C-2.318,-5.356 -4.506,-2.736 -6.549,0L82.333,0C83.027,0 83.897,-0.568 84.267,-1.262L87.111,-6.592C87.48,-7.287 87.215,-7.855 86.521,-7.855L0,-7.855Z" style="fill:rgb(177,192,226);"/>
                        </g>
                        <g transform="matrix(1,0,0,1,-132.558,251.751)">
                            <path d="M0,-7.854C-1.759,-5.321 -3.398,-2.701 -4.911,0L90.796,0C91.49,0 92.36,-0.567 92.73,-1.262L95.574,-6.592C95.943,-7.286 95.679,-7.854 94.984,-7.854L0,-7.854Z" style="fill:rgb(177,192,226);"/>
                        </g>
                        <g transform="matrix(1,0,0,1,-52.0954,365.539)">
                            <path d="M0,-159.791C0,-160.812 0.356,-161.641 0.795,-161.641C1.235,-161.641 1.59,-160.812 1.59,-159.791L1.59,0C1.59,1.021 1.235,1.85 0.795,1.85C0.356,1.85 0,1.021 0,0L0,-159.791Z" style="fill:rgb(177,192,226);"/>
                        </g>
                        <g transform="matrix(1,0,0,1,-48.1189,367.388)">
                            <path d="M0,18.374C0,20.131 -1.424,21.554 -3.181,21.554C-4.937,21.554 -6.361,20.131 -6.361,18.374L-6.361,0.001C-6.361,-1.756 -4.937,-3.18 -3.181,-3.18C-1.424,-3.18 0,-1.756 0,0.001L0,18.374Z" style="fill:rgb(177,192,226);"/>
                        </g>
                        <g transform="matrix(1,0,0,1,-136.315,262.27)">
                            <path d="M0,-7.854L98.741,-7.854C99.435,-7.854 99.7,-7.287 99.331,-6.591L96.487,-1.261C96.117,-0.568 95.247,0 94.552,0L-4.189,0C-4.884,0 -5.148,-0.568 -4.778,-1.261L-1.936,-6.591C-1.565,-7.287 -0.694,-7.854 0,-7.854" style="fill:rgb(177,192,226);"/>
                        </g>
                        <g transform="matrix(1,0,0,1,-136.315,272.79)">
                            <path d="M0,-7.855L98.741,-7.855C99.435,-7.855 99.7,-7.287 99.331,-6.593L96.487,-1.262C96.117,-0.568 95.247,0 94.552,0L-4.189,0C-4.884,0 -5.148,-0.568 -4.778,-1.262L-1.936,-6.593C-1.565,-7.287 -0.694,-7.855 0,-7.855" style="fill:rgb(177,192,226);"/>
                        </g>
                        <g transform="matrix(1,0,0,1,-136.315,283.308)">
                            <path d="M0,-7.854L98.741,-7.854C99.435,-7.854 99.7,-7.286 99.331,-6.592L96.487,-1.262C96.117,-0.567 95.247,0 94.552,0L-4.189,0C-4.884,0 -5.148,-0.567 -4.778,-1.262L-1.936,-6.592C-1.565,-7.286 -0.694,-7.854 0,-7.854" style="fill:rgb(177,192,226);"/>
                        </g>
                        <g transform="matrix(1,0,0,1,-136.315,293.828)">
                            <path d="M0,-7.854L98.741,-7.854C99.435,-7.854 99.7,-7.287 99.331,-6.592L96.487,-1.261C96.117,-0.567 95.247,0 94.552,0L-4.189,0C-4.884,0 -5.148,-0.567 -4.778,-1.261L-1.936,-6.592C-1.565,-7.287 -0.694,-7.854 0,-7.854" style="fill:rgb(177,192,226);"/>
                        </g>
                        <g transform="matrix(1,0,0,1,-136.315,304.347)">
                            <path d="M0,-7.854L98.741,-7.854C99.435,-7.854 99.7,-7.286 99.331,-6.591L96.487,-1.261C96.117,-0.567 95.247,0 94.552,0L-4.189,0C-4.884,0 -5.148,-0.567 -4.778,-1.261L-1.936,-6.591C-1.565,-7.286 -0.694,-7.854 0,-7.854" style="fill:rgb(177,192,226);"/>
                        </g>
                        <g transform="matrix(1,0,0,1,-136.315,314.866)">
                            <path d="M0,-7.854L98.741,-7.854C99.435,-7.854 99.7,-7.286 99.331,-6.591L96.487,-1.261C96.117,-0.568 95.247,0 94.552,0L-4.189,0C-4.884,0 -5.148,-0.568 -4.778,-1.261L-1.936,-6.591C-1.565,-7.286 -0.694,-7.854 0,-7.854" style="fill:rgb(177,192,226);"/>
                        </g>
                        <g transform="matrix(1,0,0,1,-136.315,325.386)">
                            <path d="M0,-7.855L98.741,-7.855C99.435,-7.855 99.7,-7.287 99.331,-6.592L96.487,-1.262C96.117,-0.567 95.247,0 94.552,0L-4.189,0C-4.884,0 -5.148,-0.567 -4.778,-1.262L-1.936,-6.592C-1.565,-7.287 -0.694,-7.855 0,-7.855" style="fill:rgb(177,192,226);"/>
                        </g>
                        <g transform="matrix(1,0,0,1,-136.315,335.905)">
                            <path d="M0,-7.854L98.741,-7.854C99.435,-7.854 99.7,-7.287 99.331,-6.592L96.487,-1.262C96.117,-0.568 95.247,0 94.552,0L-4.189,0C-4.884,0 -5.148,-0.568 -4.778,-1.262L-1.936,-6.592C-1.565,-7.287 -0.694,-7.854 0,-7.854" style="fill:rgb(177,192,226);"/>
                        </g>
                        <g transform="matrix(1,0,0,1,341.615,322.006)">
                            <path d="M0,-26.974L34.73,-26.974C35.518,-26.974 36.244,-26.692 36.811,-26.222C36.967,-26.158 37.107,-26.052 37.216,-25.91C37.278,-25.828 37.325,-25.739 37.359,-25.647C37.768,-25.101 38.011,-24.423 38.011,-23.693L38.011,-3.282C38.011,-2.38 37.643,-1.561 37.048,-0.966L37.048,-0.962C36.453,-0.369 35.633,0 34.73,0L0,0C-0.903,0 -1.725,-0.369 -2.317,-0.962C-2.912,-1.557 -3.281,-2.378 -3.281,-3.282L-3.281,-23.693C-3.281,-24.427 -3.038,-25.107 -2.628,-25.655C-2.594,-25.744 -2.547,-25.83 -2.486,-25.91C-2.377,-26.052 -2.237,-26.158 -2.082,-26.222C-1.515,-26.692 -0.788,-26.974 0,-26.974" style="fill:rgb(158,177,217);"/>
                        </g>
                        <g transform="matrix(1,0,0,1,-149.519,297.278)">
                            <rect x="153.352" y="44.831" width="9.054" height="11.159" style="fill:rgb(0,63,106);"/>
                        </g>
                        <g transform="matrix(1,0,0,1,8.50273,347.571)">
                            <path d="M0,-3.154C1.122,-3.154 2.039,-2.237 2.039,-1.116L2.039,1.504L4.384,1.504L4.384,-4.658L-3.394,-4.658C-3.841,-4.658 -4.267,-4.635 -4.67,-4.593L-4.67,-3.154L0,-3.154Z" style="fill:rgb(4,38,59);"/>
                        </g>
                        <g transform="matrix(1,0,0,1,-149.519,297.278)">
                            <rect x="130.713" y="44.831" width="9.054" height="11.159" style="fill:rgb(0,63,106);"/>
                        </g>
                        <g transform="matrix(1,0,0,1,-24.4777,349.075)">
                            <path d="M0,27.719L42.729,27.719C43.633,27.719 44.25,26.98 44.102,26.076L40.096,1.644C39.948,0.74 39.088,0 38.184,0L4.545,0C3.641,0 2.781,0.74 2.633,1.644L-1.373,26.076C-1.521,26.98 -0.904,27.719 0,27.719" style="fill:rgb(58,157,194);"/>
                        </g>
                        <g transform="matrix(1,0,0,1,-2.95967,381.248)">
                            <path d="M-22.737,-5.956L22.737,-5.956C23.625,-5.956 24.898,-5.229 25.567,-4.343L28.845,0L-28.845,0L-25.567,-4.343C-24.898,-5.229 -23.624,-5.956 -22.737,-5.956Z" style="fill:rgb(14,22,50);"/>
                        </g>
                        <g transform="matrix(1,0,0,1,-2.02947,372.835)">
                            <path d="M0,-21.301C6.293,-21.301 11.396,-16.199 11.396,-9.905C11.396,-3.612 6.293,1.49 0,1.49C-6.293,1.49 -11.396,-3.612 -11.396,-9.905C-11.396,-16.199 -6.293,-21.301 0,-21.301M14.112,-21.106L14.365,-19.567L17.977,2.458L21.671,2.458C21.667,2.412 21.662,2.366 21.654,2.317L17.647,-22.115C17.5,-23.019 16.64,-23.759 15.736,-23.759L-17.903,-23.759C-18.583,-23.759 -19.237,-23.339 -19.583,-22.748L12.201,-22.748C13.104,-22.748 13.964,-22.009 14.112,-21.106" style="fill:rgb(50,139,172);"/>
                        </g>
                        <g transform="matrix(1,0,0,1,-30.489,388.321)">
                            <path d="M0,-7.756L55.059,-7.756C55.946,-7.756 56.671,-7.03 56.671,-6.143L56.671,-1.612C56.671,-0.726 55.946,0 55.059,0L0,0C-0.887,0 -1.612,-0.726 -1.612,-1.612L-1.612,-6.143C-1.612,-7.03 -0.887,-7.756 0,-7.756" style="fill:rgb(56,61,93);"/>
                        </g>
                        <g transform="matrix(1,0,0,1,-3.07537,350.741)">
                            <path d="M0,22.791C6.277,22.791 11.396,17.671 11.396,11.395C11.396,5.118 6.277,0 0,0C-6.277,0 -11.396,5.118 -11.396,11.395C-11.396,17.671 -6.277,22.791 0,22.791" style="fill:white;"/>
                        </g>
                        <g transform="matrix(1,0,0,1,-3.07537,356.615)">
                            <path d="M0,11.042C3.041,11.042 5.521,8.562 5.521,5.521C5.521,2.48 3.041,0 0,0C-3.042,0 -5.521,2.48 -5.521,5.521C-5.521,8.562 -3.042,11.042 0,11.042" style="fill:rgb(121,209,86);"/>
                        </g>
                        <g transform="matrix(1,0,0,1,2.43443,363.946)">
                            <path d="M0,-2.177C0.007,-2.057 0.012,-1.934 0.012,-1.81C0.012,-1.176 -0.096,-0.567 -0.292,0L-5.51,0C-6.11,0 -6.598,-0.488 -6.598,-1.088C-6.598,-1.69 -6.11,-2.177 -5.51,-2.177L0,-2.177Z" style="fill:rgb(66,154,31);"/>
                        </g>
                        <g transform="matrix(-1,0,0,1,-3.07537,364.783)">
                            <path d="M0,-5.294C-1.462,-5.294 -2.647,-4.109 -2.647,-2.647C-2.647,-1.186 -1.462,0 0,0C1.461,0 2.647,-1.186 2.647,-2.647C2.647,-4.109 1.461,-5.294 0,-5.294" style="fill:rgb(76,182,34);"/>
                        </g>
                        <g transform="matrix(1,0,0,1,-3.07537,352.428)">
                            <path d="M0,2.443C0.673,2.443 1.222,1.894 1.222,1.222C1.222,0.548 0.673,0 0,0C-0.672,0 -1.221,0.548 -1.221,1.222C-1.221,1.894 -0.672,2.443 0,2.443" style="fill:rgb(201,196,209);"/>
                        </g>
                        <g transform="matrix(-0.707311,-0.706902,-0.706902,0.707311,1.70496,356.135)">
                            <path d="M-0.863,-2.083C-1.539,-2.084 -2.086,-1.537 -2.085,-0.861C-2.084,-0.187 -1.537,0.359 -0.863,0.36C-0.189,0.359 0.358,-0.188 0.358,-0.863C0.359,-1.538 -0.188,-2.084 -0.863,-2.083" style="fill:rgb(201,196,209);"/>
                        </g>
                        <g transform="matrix(0.707516,-0.706697,-0.706697,-0.707516,4.1466,368.138)">
                            <path d="M-0.863,-0.357C-1.538,-0.358 -2.084,0.189 -2.085,0.863C-2.085,1.539 -1.538,2.085 -0.863,2.087C-0.189,2.086 0.358,1.54 0.359,0.866C0.359,0.19 -0.187,-0.357 -0.863,-0.357" style="fill:rgb(201,196,209);"/>
                        </g>
                        <g transform="matrix(1,0,0,1,-3.07537,369.4)">
                            <path d="M0,2.443C-0.675,2.443 -1.221,1.896 -1.221,1.221C-1.221,0.547 -0.675,0 0,0C0.675,0 1.222,0.547 1.222,1.221C1.222,1.896 0.675,2.443 0,2.443" style="fill:rgb(201,196,209);"/>
                        </g>
                        <g transform="matrix(0.707516,0.706697,0.706697,-0.707516,-10.2967,368.137)">
                            <path d="M0.863,-0.358C0.188,-0.356 -0.358,0.19 -0.359,0.866C-0.358,1.54 0.189,2.086 0.863,2.086C1.538,2.085 2.085,1.538 2.085,0.863C2.085,0.188 1.538,-0.358 0.863,-0.358" style="fill:rgb(201,196,209);"/>
                        </g>
                        <g transform="matrix(0,1,1,0,-11.5614,360.914)">
                            <path d="M1.222,-1.221C0.547,-1.221 0,-0.674 0,0.001C0,0.675 0.547,1.222 1.222,1.222C1.897,1.222 2.443,0.675 2.443,0.001C2.443,-0.674 1.897,-1.221 1.222,-1.221" style="fill:rgb(201,196,209);"/>
                        </g>
                        <g transform="matrix(-0.707311,0.706902,0.706902,0.707311,-7.85435,356.135)">
                            <path d="M0.864,-2.084C0.189,-2.085 -0.358,-1.538 -0.357,-0.863C-0.358,-0.188 0.19,0.359 0.864,0.359C1.538,0.359 2.085,-0.188 2.086,-0.862C2.086,-1.536 1.539,-2.084 0.864,-2.084" style="fill:rgb(201,196,209);"/>
                        </g>
                        <g transform="matrix(1,0,0,1,-3.07537,361.047)">
                            <path d="M0,2.177C-0.601,2.177 -1.088,1.691 -1.088,1.089C-1.088,0.488 -0.601,0 0,0L8.486,0C9.087,0 9.574,0.488 9.574,1.089C9.574,1.691 9.087,2.177 8.486,2.177L0,2.177Z" style="fill:rgb(14,22,50);"/>
                        </g>
                        <g transform="matrix(1,0,0,1,11.3015,344.341)">
                            <path d="M0,-1.428C5.961,-1.428 7.982,2.451 7.982,5.514L8.977,7.238L21.647,7.238L22.502,6.299L22.502,2.094C22.502,0.526 22.805,-8.666 8.624,-8.666L-37.453,-8.666C-51.634,-8.666 -51.332,0.526 -51.332,2.094L-51.332,6.299L-50.477,7.238L-37.807,7.238L-36.812,5.514C-36.812,2.451 -34.791,-1.428 -28.83,-1.428L0,-1.428Z" style="fill:rgb(56,61,93);"/>
                        </g>
                        <g transform="matrix(1,0,0,1,-25.1091,358.093)">
                            <path d="M0,-8.237L-15.723,-8.237C-16.272,-8.237 -16.722,-7.702 -16.722,-7.05L-16.722,-1.187C-16.722,-0.534 -16.272,0 -15.723,0L0,0C0.549,0 0.998,-0.534 0.998,-1.187L0.998,-7.05C0.998,-7.702 0.549,-8.237 0,-8.237" style="fill:white;"/>
                        </g>
                        <g transform="matrix(1,0,0,1,-14.135,347.571)">
                            <path d="M0,-3.154C1.121,-3.154 2.039,-2.237 2.039,-1.116L2.039,1.504L4.383,1.504L4.383,-4.658L-3.393,-4.658C-3.841,-4.658 -4.266,-4.635 -4.67,-4.593L-4.67,-3.154L0,-3.154Z" style="fill:rgb(4,38,59);"/>
                        </g>
                        <g transform="matrix(1,0,0,1,24.0906,383.796)">
                            <path d="M0,0.459C0,1.346 -0.726,2.072 -1.613,2.072L-56.192,2.072L-56.192,2.912C-56.192,3.193 -56.119,3.459 -55.99,3.69L1.89,3.69C2.019,3.459 2.092,3.193 2.092,2.912L2.092,-1.618C2.092,-1.964 1.981,-2.285 1.794,-2.548L1.793,-2.549L1.738,-2.623C1.442,-2.993 0.987,-3.231 0.479,-3.231L0,-3.231L0,0.459Z" style="fill:rgb(14,22,50);"/>
                        </g>
                        <g transform="matrix(1,0,0,1,-3.11297,348.803)">
                            <path d="M-14.415,-5.889L14.415,-5.889C14.978,-5.889 15.505,-5.855 16,-5.788C20.74,-5.162 22.396,-1.72 22.396,1.053L26.429,1.053L26.374,0.962C26.374,-2.528 24.075,-6.942 17.289,-6.942L-15.531,-6.942C-22.315,-6.942 -24.616,-2.528 -24.616,0.962L-24.669,1.053L-22.397,1.053C-22.397,-1.78 -20.668,-5.31 -15.692,-5.825C-15.288,-5.867 -14.863,-5.889 -14.415,-5.889Z" style="fill:rgb(14,22,50);"/>
                        </g>
                        <g transform="matrix(1,0,0,1,-29.3801,355.33)">
                            <path d="M0,-4.262L-9.658,-4.262C-9.996,-4.262 -10.272,-3.986 -10.272,-3.648L-10.272,-0.615C-10.272,-0.277 -9.996,0 -9.658,0L0,0C0.337,0 0.613,-0.277 0.613,-0.615L0.613,-3.648C0.613,-3.986 0.337,-4.262 0,-4.262" style="fill:rgb(244,244,247);"/>
                        </g>
                        <g transform="matrix(1,0,0,1,-25.9792,357.28)">
                            <path d="M0,-7.424L0,-1.794C0,-1.14 -0.45,-0.606 -0.999,-0.606L-15.852,-0.606L-15.852,-0.376C-15.852,0.279 -15.402,0.813 -14.853,0.813L0.87,0.813C1.419,0.813 1.868,0.279 1.868,-0.376L1.868,-6.237C1.868,-6.889 1.419,-7.424 0.87,-7.424L0,-7.424Z" style="fill:rgb(244,244,247);"/>
                        </g>
                        <g transform="matrix(1,0,0,1,34.6057,358.093)">
                            <path d="M0,-8.237L-15.722,-8.237C-16.272,-8.237 -16.721,-7.702 -16.721,-7.05L-16.721,-1.187C-16.721,-0.534 -16.272,0 -15.722,0L0,0C0.55,0 0.999,-0.534 0.999,-1.187L0.999,-7.05C0.999,-7.702 0.55,-8.237 0,-8.237" style="fill:white;"/>
                        </g>
                        <g transform="matrix(1,0,0,1,30.3347,355.33)">
                            <path d="M0,-4.262L-9.658,-4.262C-9.995,-4.262 -10.271,-3.986 -10.271,-3.648L-10.271,-0.615C-10.271,-0.277 -9.995,0 -9.658,0L0,0C0.338,0 0.614,-0.277 0.614,-0.615L0.614,-3.648C0.614,-3.986 0.338,-4.262 0,-4.262" style="fill:rgb(244,244,247);"/>
                        </g>
                        <g transform="matrix(1,0,0,1,33.7356,357.28)">
                            <path d="M0,-7.424L0,-1.794C0,-1.14 -0.449,-0.606 -0.998,-0.606L-15.851,-0.606L-15.851,-0.376C-15.851,0.279 -15.402,0.813 -14.852,0.813L0.87,0.813C1.42,0.813 1.869,0.279 1.869,-0.376L1.869,-6.237C1.869,-6.889 1.42,-7.424 0.87,-7.424L0,-7.424Z" style="fill:rgb(244,244,247);"/>
                        </g>
                        <g transform="matrix(1,0,0,1,357.749,305.534)">
                            <path d="M0,2.98L16.998,-10.003L-16.997,-10.003L0,2.98ZM-18.652,11.667L-5.278,1.451L-18.651,-8.765L-18.652,-8.715L-18.652,11.667ZM5.279,1.451L18.653,11.667L18.653,-8.715L18.651,-8.765L5.279,1.451ZM17.814,12.902L4.051,2.388L0.617,5.011L0.615,5.013L0.604,5.021C0.576,5.043 0.548,5.062 0.52,5.08L0.515,5.083L0.498,5.092L0.476,5.105L0.473,5.107L0.454,5.116L0.452,5.118L0.433,5.126L0.43,5.128L0.407,5.139L0.387,5.147L0.386,5.148L0.365,5.157L0.364,5.157C0.326,5.171 0.288,5.184 0.25,5.194L0.249,5.195C0.21,5.205 0.172,5.212 0.133,5.216L0.13,5.217L0.108,5.219L0.106,5.22L0.085,5.222L0.083,5.222L0.037,5.225L0.035,5.225L0.013,5.226L-0.013,5.226L-0.034,5.225L-0.037,5.225L-0.082,5.222L-0.085,5.222L-0.105,5.22L-0.108,5.219L-0.13,5.217L-0.131,5.216C-0.171,5.212 -0.21,5.205 -0.248,5.195L-0.249,5.194C-0.288,5.184 -0.325,5.171 -0.362,5.157L-0.364,5.157L-0.385,5.148L-0.387,5.147L-0.407,5.139L-0.43,5.128L-0.432,5.126L-0.45,5.118L-0.476,5.105L-0.498,5.092L-0.514,5.083L-0.52,5.08C-0.548,5.062 -0.575,5.043 -0.604,5.021L-0.614,5.013L-0.617,5.011L-4.051,2.388L-17.813,12.902C-17.673,12.956 -17.522,12.984 -17.364,12.984L17.365,12.984C17.522,12.984 17.674,12.956 17.814,12.902M-17.364,-11.997L17.365,-11.997C18.154,-11.997 18.88,-11.714 19.447,-11.246C19.602,-11.18 19.742,-11.076 19.852,-10.932C19.913,-10.851 19.962,-10.762 19.996,-10.669C20.404,-10.124 20.647,-9.446 20.647,-8.715L20.647,11.696C20.647,12.597 20.278,13.417 19.683,14.011L19.683,14.015C19.089,14.608 18.269,14.977 17.365,14.977L-17.364,14.977C-18.268,14.977 -19.088,14.608 -19.683,14.015C-20.277,13.42 -20.646,12.599 -20.646,11.696L-20.646,-8.715C-20.646,-9.45 -20.401,-10.128 -19.992,-10.676C-19.958,-10.766 -19.911,-10.852 -19.851,-10.932C-19.742,-11.075 -19.602,-11.18 -19.446,-11.246C-18.879,-11.714 -18.152,-11.997 -17.364,-11.997" style="fill:white;"/>
                        </g>
                        <g transform="matrix(1,0,0,1,-77.1765,188.301)">
                            <path d="M0,-59.102L54.742,-59.102C58.72,-59.102 61.973,-55.849 61.973,-51.873L61.973,-0.874C61.973,-0.54 61.783,-0.256 61.475,-0.128C61.166,0 60.83,-0.067 60.595,-0.303L48.276,-12.623L0,-12.623C-3.977,-12.623 -7.23,-15.875 -7.23,-19.852L-7.23,-51.873C-7.23,-55.849 -3.977,-59.102 0,-59.102" style="fill:rgb(121,209,86);"/>
                        </g>
                        <g transform="matrix(1,0,0,1,-65.9343,148.457)">
                            <path d="M0,7.963C2.192,7.963 3.98,6.174 3.98,3.982C3.98,1.789 2.192,0 0,0C-2.194,0 -3.982,1.789 -3.982,3.982C-3.982,6.174 -2.194,7.963 0,7.963" style="fill:white;"/>
                        </g>
                        <g transform="matrix(1,0,0,1,-49.8054,148.457)">
                            <path d="M0,7.963C2.194,7.963 3.982,6.174 3.982,3.982C3.982,1.789 2.194,0 0,0C-2.193,0 -3.981,1.789 -3.981,3.982C-3.981,6.174 -2.193,7.963 0,7.963" style="fill:white;"/>
                        </g>
                        <g transform="matrix(1,0,0,1,-33.675,148.457)">
                            <path d="M0,7.963C2.193,7.963 3.982,6.174 3.982,3.982C3.982,1.789 2.193,0 0,0C-2.193,0 -3.981,1.789 -3.981,3.982C-3.981,6.174 -2.193,7.963 0,7.963" style="fill:white;"/>
                        </g>
                        <g transform="matrix(1,0,0,1,245.933,363.752)">
                            <path d="M0,-91.904L-132.758,-91.904C-134.437,-91.904 -136.09,-90.529 -136.43,-88.849L-153.342,-5.354C-153.478,-4.678 -153.382,-4.05 -153.109,-3.543C-152.565,-2.53 -150.251,0 -149.655,-0.024L-21.57,-5.434C-19.896,-5.505 -18.365,-6.845 -17.897,-8.487L4.794,-88.226C4.803,-88.257 2.23,-90.972 1.447,-91.49C1.05,-91.754 0.558,-91.904 0,-91.904" style="fill:rgb(201,196,209);"/>
                        </g>
                        <g transform="matrix(1,0,0,1,248.744,364.22)">
                            <path d="M0,-89.603L-132.76,-89.603C-134.439,-89.603 -136.091,-88.229 -136.432,-86.549L-153.343,-3.054C-153.683,-1.374 -152.588,0 -150.908,0L-18.149,0C-16.47,0 -14.816,-1.374 -14.478,-3.054L2.436,-86.549C2.775,-88.229 1.679,-89.603 0,-89.603" style="fill:white;"/>
                        </g>
                        <g transform="matrix(1,0,0,1,214.75,353.113)">
                            <path d="M0,-43.546L-58.453,-43.546C-59.739,-43.546 -60.986,-42.494 -61.225,-41.209L-68.448,-2.337C-68.687,-1.052 -67.831,0 -66.546,0L-8.093,0C-6.808,0 -5.561,-1.052 -5.32,-2.337L1.903,-41.209C2.141,-42.494 1.286,-43.546 0,-43.546" style="fill:rgb(235,234,239);"/>
                        </g>
                        <g transform="matrix(1,0,0,1,183.613,385.745)">
                            <path d="M0,-56.91L-17.214,-56.91C-19.334,-56.91 -20.647,-55.177 -20.133,-53.057L-8.199,-3.852C-7.686,-1.733 -5.531,0 -3.411,0L13.803,0C15.922,0 17.235,-1.733 16.722,-3.852L4.789,-53.057C4.275,-55.177 2.12,-56.91 0,-56.91" style="fill:rgb(197,193,205);"/>
                        </g>
                        <g transform="matrix(1,0,0,1,189.559,385.745)">
                            <path d="M0,-56.91L-17.214,-56.91C-19.333,-56.91 -20.646,-55.177 -20.132,-53.057L-8.198,-3.852C-7.685,-1.733 -5.531,0 -3.411,0L13.803,0C15.923,0 17.236,-1.733 16.723,-3.852L4.788,-53.057C4.273,-55.177 2.121,-56.91 0,-56.91" style="fill:white;"/>
                        </g>
                        <g transform="matrix(1,0,0,1,225.485,382.712)">
                            <path d="M0,9.166L-77.282,9.166C-79.803,9.166 -81.865,7.104 -81.865,4.583C-81.865,2.062 -79.803,0 -77.282,0L0,0C2.52,0 4.582,2.062 4.582,4.583C4.582,7.104 2.52,9.166 0,9.166" style="fill:white;"/>
                        </g>
                        <g transform="matrix(1,0,0,1,163.659,382.712)">
                            <path d="M0,9.166L-28.854,9.166C-31.375,9.166 -33.438,7.104 -33.438,4.583C-33.438,2.062 -31.375,0 -28.854,0L0,0C2.521,0 4.583,2.062 4.583,4.583C4.583,7.104 2.521,9.166 0,9.166" style="fill:rgb(197,193,205);"/>
                        </g>
                        <g transform="matrix(1,0,0,1,233.097,301.679)">
                            <path d="M0,-19.705L-0.712,-19.705C-1.293,-19.705 -1.856,-19.228 -1.964,-18.647L-5.234,-1.058C-5.342,-0.476 -4.954,0 -4.372,0L-3.662,0C-3.08,0 -2.517,-0.476 -2.408,-1.058L0.86,-18.647C0.969,-19.229 0.582,-19.705 0,-19.705" style="fill:rgb(235,234,239);"/>
                        </g>
                        <g transform="matrix(1,0,0,1,227.516,301.679)">
                            <path d="M0,-19.705L-0.712,-19.705C-1.292,-19.705 -1.857,-19.228 -1.965,-18.647L-5.233,-1.058C-5.342,-0.476 -4.955,0 -4.373,0L-3.662,0C-3.081,0 -2.516,-0.476 -2.408,-1.058L0.859,-18.647C0.969,-19.229 0.581,-19.705 0,-19.705" style="fill:rgb(235,234,239);"/>
                        </g>
                        <g transform="matrix(1,0,0,1,221.934,301.679)">
                            <path d="M0,-19.705L-0.711,-19.705C-1.292,-19.705 -1.855,-19.228 -1.964,-18.647L-5.233,-1.058C-5.341,-0.476 -4.954,0 -4.372,0L-3.661,0C-3.08,0 -2.515,-0.476 -2.407,-1.058L0.861,-18.647C0.97,-19.229 0.582,-19.705 0,-19.705" style="fill:rgb(235,234,239);"/>
                        </g>
                        <g transform="matrix(1,0,0,1,216.354,301.679)">
                            <path d="M0,-19.705L-0.712,-19.705C-1.294,-19.705 -1.857,-19.228 -1.966,-18.647L-5.234,-1.058C-5.342,-0.476 -4.955,0 -4.374,0L-3.662,0C-3.081,0 -2.517,-0.476 -2.409,-1.058L0.86,-18.647C0.968,-19.229 0.581,-19.705 0,-19.705" style="fill:rgb(235,234,239);"/>
                        </g>
                        <g transform="matrix(1,0,0,1,210.772,301.679)">
                            <path d="M0,-19.705L-0.711,-19.705C-1.293,-19.705 -1.856,-19.228 -1.965,-18.647L-5.233,-1.058C-5.342,-0.476 -4.955,0 -4.374,0L-3.662,0C-3.08,0 -2.516,-0.476 -2.408,-1.058L0.861,-18.647C0.969,-19.229 0.581,-19.705 0,-19.705" style="fill:rgb(235,234,239);"/>
                        </g>
                        <g transform="matrix(1,0,0,1,205.19,301.679)">
                            <path d="M0,-19.705L-0.71,-19.705C-1.293,-19.705 -1.855,-19.228 -1.965,-18.647L-5.233,-1.058C-5.342,-0.476 -4.953,0 -4.373,0L-3.661,0C-3.08,0 -2.516,-0.476 -2.408,-1.058L0.861,-18.647C0.969,-19.229 0.583,-19.705 0,-19.705" style="fill:rgb(235,234,239);"/>
                        </g>
                        <g transform="matrix(1,0,0,1,199.609,301.679)">
                            <path d="M0,-19.705L-0.711,-19.705C-1.292,-19.705 -1.856,-19.228 -1.965,-18.647L-5.233,-1.058C-5.342,-0.476 -4.954,0 -4.373,0L-3.662,0C-3.081,0 -2.516,-0.476 -2.407,-1.058L0.86,-18.647C0.968,-19.229 0.582,-19.705 0,-19.705" style="fill:rgb(235,234,239);"/>
                        </g>
                        <g transform="matrix(1,0,0,1,194.028,301.679)">
                            <path d="M0,-19.705L-0.712,-19.705C-1.293,-19.705 -1.856,-19.228 -1.965,-18.647L-5.233,-1.058C-5.341,-0.476 -4.954,0 -4.373,0L-3.661,0C-3.08,0 -2.517,-0.476 -2.408,-1.058L0.86,-18.647C0.969,-19.229 0.582,-19.705 0,-19.705" style="fill:rgb(235,234,239);"/>
                        </g>
                        <g transform="matrix(1,0,0,1,188.447,301.679)">
                            <path d="M0,-19.705L-0.711,-19.705C-1.292,-19.705 -1.857,-19.228 -1.965,-18.647L-5.234,-1.058C-5.342,-0.476 -4.954,0 -4.373,0L-3.662,0C-3.081,0 -2.517,-0.476 -2.409,-1.058L0.861,-18.647C0.969,-19.229 0.582,-19.705 0,-19.705" style="fill:rgb(235,234,239);"/>
                        </g>
                        <g transform="matrix(1,0,0,1,182.866,301.679)">
                            <path d="M0,-19.705L-0.711,-19.705C-1.293,-19.705 -1.857,-19.228 -1.965,-18.647L-5.234,-1.058C-5.342,-0.476 -4.955,0 -4.373,0L-3.663,0C-3.081,0 -2.517,-0.476 -2.408,-1.058L0.86,-18.647C0.968,-19.229 0.582,-19.705 0,-19.705" style="fill:rgb(235,234,239);"/>
                        </g>
                        <g transform="matrix(1,0,0,1,177.285,301.679)">
                            <path d="M0,-19.705L-0.711,-19.705C-1.293,-19.705 -1.857,-19.228 -1.965,-18.647L-5.233,-1.058C-5.342,-0.476 -4.955,0 -4.373,0L-3.663,0C-3.081,0 -2.517,-0.476 -2.408,-1.058L0.861,-18.647C0.968,-19.229 0.582,-19.705 0,-19.705" style="fill:rgb(235,234,239);"/>
                        </g>
                        <g transform="matrix(1,0,0,1,171.703,301.679)">
                            <path d="M0,-19.705L-0.711,-19.705C-1.292,-19.705 -1.857,-19.228 -1.964,-18.647L-5.233,-1.058C-5.342,-0.476 -4.954,0 -4.373,0L-3.662,0C-3.081,0 -2.517,-0.476 -2.409,-1.058L0.861,-18.647C0.968,-19.229 0.582,-19.705 0,-19.705" style="fill:rgb(235,234,239);"/>
                        </g>
                        <g transform="matrix(1,0,0,1,166.121,301.679)">
                            <path d="M0,-19.705L-0.711,-19.705C-1.292,-19.705 -1.857,-19.228 -1.964,-18.647L-5.233,-1.058C-5.342,-0.476 -4.954,0 -4.373,0L-3.662,0C-3.081,0 -2.516,-0.476 -2.408,-1.058L0.861,-18.647C0.969,-19.229 0.582,-19.705 0,-19.705" style="fill:rgb(235,234,239);"/>
                        </g>
                        <g transform="matrix(1,0,0,1,160.541,301.679)">
                            <path d="M0,-19.705L-0.712,-19.705C-1.293,-19.705 -1.857,-19.228 -1.965,-18.647L-5.234,-1.058C-5.342,-0.476 -4.955,0 -4.374,0L-3.663,0C-3.082,0 -2.517,-0.476 -2.409,-1.058L0.86,-18.647C0.968,-19.229 0.581,-19.705 0,-19.705" style="fill:rgb(235,234,239);"/>
                        </g>
                        <g transform="matrix(1,0,0,1,154.959,301.679)">
                            <path d="M0,-19.705L-0.712,-19.705C-1.293,-19.705 -1.857,-19.228 -1.965,-18.647L-5.234,-1.058C-5.342,-0.476 -4.955,0 -4.374,0L-3.662,0C-3.081,0 -2.517,-0.476 -2.409,-1.058L0.861,-18.647C0.968,-19.229 0.581,-19.705 0,-19.705" style="fill:rgb(235,234,239);"/>
                        </g>
                        <g transform="matrix(1,0,0,1,149.377,301.679)">
                            <path d="M0,-19.705L-0.71,-19.705C-1.292,-19.705 -1.856,-19.228 -1.964,-18.647L-5.233,-1.058C-5.342,-0.476 -4.955,0 -4.373,0L-3.662,0C-3.08,0 -2.516,-0.476 -2.408,-1.058L0.861,-18.647C0.968,-19.229 0.582,-19.705 0,-19.705" style="fill:rgb(235,234,239);"/>
                        </g>
                        <g transform="matrix(1,0,0,1,143.796,301.679)">
                            <path d="M0,-19.705L-0.711,-19.705C-1.292,-19.705 -1.856,-19.228 -1.964,-18.647L-5.233,-1.058C-5.342,-0.476 -4.954,0 -4.373,0L-3.662,0C-3.081,0 -2.516,-0.476 -2.407,-1.058L0.861,-18.647C0.969,-19.229 0.583,-19.705 0,-19.705" style="fill:rgb(235,234,239);"/>
                        </g>
                        <g transform="matrix(1,0,0,1,138.214,301.679)">
                            <path d="M0,-19.705L-0.711,-19.705C-1.292,-19.705 -1.856,-19.228 -1.964,-18.647L-5.232,-1.058C-5.341,-0.476 -4.954,0 -4.373,0L-3.662,0C-3.081,0 -2.515,-0.476 -2.408,-1.058L0.862,-18.647C0.969,-19.229 0.583,-19.705 0,-19.705" style="fill:rgb(235,234,239);"/>
                        </g>
                        <g transform="matrix(1,0,0,1,132.634,301.679)">
                            <path d="M0,-19.705L-0.711,-19.705C-1.292,-19.705 -1.857,-19.228 -1.965,-18.647L-5.233,-1.058C-5.342,-0.476 -4.955,0 -4.373,0L-3.663,0C-3.081,0 -2.516,-0.476 -2.409,-1.058L0.861,-18.647C0.968,-19.229 0.581,-19.705 0,-19.705" style="fill:rgb(235,234,239);"/>
                        </g>
                        <g transform="matrix(1,0,0,1,231.63,123.622)">
                            <path d="M0,-59.101L-54.743,-59.101C-58.72,-59.101 -61.974,-55.848 -61.974,-51.872L-61.974,-0.873C-61.974,-0.54 -61.783,-0.255 -61.475,-0.127C-61.167,0 -60.831,-0.066 -60.596,-0.302L-48.276,-12.622L0,-12.622C3.976,-12.622 7.229,-15.875 7.229,-19.851L7.229,-51.872C7.229,-55.848 3.976,-59.101 0,-59.101" style="fill:rgb(58,157,194);"/>
                        </g>
                        <g transform="matrix(1,0,0,1,220.388,83.7796)">
                            <path d="M0,7.962C2.193,7.962 3.981,6.173 3.981,3.981C3.981,1.788 2.193,0 0,0C-2.192,0 -3.981,1.788 -3.981,3.981C-3.981,6.173 -2.192,7.962 0,7.962" style="fill:white;"/>
                        </g>
                        <g transform="matrix(1,0,0,1,204.258,83.7796)">
                            <path d="M0,7.962C2.192,7.962 3.981,6.173 3.981,3.981C3.981,1.788 2.192,0 0,0C-2.193,0 -3.981,1.788 -3.981,3.981C-3.981,6.173 -2.193,7.962 0,7.962" style="fill:white;"/>
                        </g>
                        <g transform="matrix(1,0,0,1,188.128,83.7796)">
                            <path d="M0,7.962C2.192,7.962 3.98,6.173 3.98,3.981C3.98,1.788 2.192,0 0,0C-2.193,0 -3.982,1.788 -3.982,3.981C-3.982,6.173 -2.193,7.962 0,7.962" style="fill:white;"/>
                        </g>
                        <g transform="matrix(-1,0,0,1,908.433,365.858)">
                            <rect x="487.189" y="12.289" width="83.574" height="7.663" style="fill:rgb(224,222,225);"/>
                        </g>
                        <g transform="matrix(1,0,0,1,347.966,385.142)">
                            <path d="M0,-6.327C0.914,-6.327 1.656,-7.069 1.656,-7.983C1.656,-8.897 0.914,-9.639 0,-9.639L-59.039,-9.639C-60.817,-9.639 -62.435,-8.911 -63.607,-7.739L-63.614,-7.732C-64.785,-6.559 -65.514,-4.941 -65.514,-3.164C-65.514,-1.386 -64.785,0.233 -63.614,1.404C-62.441,2.583 -60.821,3.312 -59.039,3.312L0,3.312C0.914,3.312 1.656,2.57 1.656,1.655C1.656,0.742 0.914,-0 0,-0L-2.703,-0C-3.157,-0.337 -3.608,-0.717 -4.006,-1.131C-4.767,-1.922 -5.311,-2.827 -5.223,-3.744C-5.122,-4.795 -4.447,-5.662 -3.662,-6.327L0,-6.327Z" style="fill:white;"/>
                        </g>
                        <g transform="matrix(1,0,0,1,421.244,385.142)">
                            <path d="M0,-6.327C0.915,-6.327 1.656,-7.069 1.656,-7.983C1.656,-8.897 0.915,-9.639 0,-9.639L-74.045,-9.639C-75.822,-9.639 -77.44,-8.911 -78.613,-7.739L-78.62,-7.732C-79.792,-6.559 -80.522,-4.941 -80.522,-3.164C-80.522,-1.386 -79.792,0.233 -78.62,1.404C-77.448,2.583 -75.828,3.312 -74.045,3.312L0,3.312C0.915,3.312 1.656,2.57 1.656,1.655C1.656,0.742 0.915,-0 0,-0L-74.045,-0C-74.914,-0 -75.704,-0.357 -76.278,-0.931C-76.854,-1.502 -77.208,-2.294 -77.208,-3.164C-77.208,-4.033 -76.854,-4.826 -76.282,-5.4C-75.707,-5.971 -74.915,-6.327 -74.045,-6.327L0,-6.327Z" style="fill:rgb(172,173,187);"/>
                        </g>
                        <g transform="matrix(1,0,0,1,-149.519,338.188)">
                            <rect x="441.038" y="25.306" width="70.069" height="9.299" style="fill:rgb(230,228,235);"/>
                        </g>
                        <g transform="matrix(1,0,0,1,349.098,371.982)">
                            <path d="M0,-7.678C-1.109,-7.678 -2.009,-8.577 -2.009,-9.686C-2.009,-10.795 -1.109,-11.695 0,-11.695L54.41,-11.695C56.566,-11.695 58.529,-10.811 59.952,-9.39L59.96,-9.382C61.382,-7.959 62.266,-5.995 62.266,-3.839C62.266,-1.682 61.382,0.281 59.96,1.703C58.539,3.133 56.572,4.017 54.41,4.017L0,4.017C-1.109,4.017 -2.009,3.116 -2.009,2.008C-2.009,0.898 -1.109,-0.001 0,-0.001L3.281,-0.001C3.831,-0.409 4.378,-0.871 4.86,-1.372C5.783,-2.332 6.443,-3.432 6.337,-4.542C6.214,-5.819 5.396,-6.869 4.443,-7.678L0,-7.678Z" style="fill:rgb(121,209,86);"/>
                        </g>
                        <g transform="matrix(1,0,0,1,291.519,371.982)">
                            <path d="M0,-7.678C-1.108,-7.678 -2.009,-8.577 -2.009,-9.686C-2.009,-10.795 -1.108,-11.695 0,-11.695L58.51,-11.695C60.666,-11.695 62.629,-10.811 64.052,-9.39L64.06,-9.382C65.48,-7.959 66.365,-5.995 66.365,-3.839C66.365,-1.682 65.48,0.281 64.06,1.703C62.638,3.133 60.672,4.017 58.51,4.017L0,4.017C-1.108,4.017 -2.009,3.116 -2.009,2.008C-2.009,0.898 -1.108,-0.001 0,-0.001L58.51,-0.001C59.563,-0.001 60.522,-0.435 61.218,-1.13C61.915,-1.823 62.348,-2.784 62.348,-3.839C62.348,-4.894 61.915,-5.855 61.222,-6.552C60.525,-7.245 59.564,-7.678 58.51,-7.678L0,-7.678Z" style="fill:rgb(76,182,34);"/>
                        </g>
                        <g transform="matrix(-1,0,0,1,882.233,306.396)">
                            <rect x="493.141" y="41.094" width="45.47" height="9.515" style="fill:rgb(230,228,235);"/>
                        </g>
                        <g transform="matrix(1,0,0,1,356.405,356.175)">
                            <path d="M0,-7.855C1.134,-7.855 2.056,-8.776 2.056,-9.911C2.056,-11.044 1.134,-11.967 0,-11.967L-33.522,-11.967C-35.729,-11.967 -37.738,-11.061 -39.194,-9.607L-39.202,-9.6C-40.656,-8.144 -41.561,-6.134 -41.561,-3.927C-41.561,-1.721 -40.656,0.289 -39.202,1.744C-37.748,3.208 -35.735,4.112 -33.522,4.112L0,4.112C1.134,4.112 2.056,3.191 2.056,2.055C2.056,0.921 1.134,-0.001 0,-0.001L-3.358,-0.001C-3.92,-0.418 -4.481,-0.89 -4.974,-1.404C-5.919,-2.385 -6.596,-3.511 -6.485,-4.649C-6.359,-5.953 -5.522,-7.029 -4.548,-7.855L0,-7.855Z" style="fill:rgb(14,22,50);"/>
                        </g>
                        <g transform="matrix(1,0,0,1,389.093,356.175)">
                            <path d="M0,-7.855C1.135,-7.855 2.058,-8.776 2.058,-9.911C2.058,-11.044 1.135,-11.967 0,-11.967L-33.64,-11.967C-35.848,-11.967 -37.856,-11.061 -39.313,-9.607L-39.32,-9.6C-40.775,-8.144 -41.68,-6.134 -41.68,-3.927C-41.68,-1.721 -40.775,0.289 -39.32,1.744C-37.864,3.208 -35.854,4.112 -33.64,4.112L0,4.112C1.135,4.112 2.058,3.191 2.058,2.055C2.058,0.921 1.135,-0.001 0,-0.001L-33.64,-0.001C-34.718,-0.001 -35.7,-0.444 -36.412,-1.156C-37.126,-1.865 -37.567,-2.848 -37.567,-3.927C-37.567,-5.008 -37.126,-5.991 -36.417,-6.704C-35.703,-7.414 -34.721,-7.855 -33.64,-7.855L0,-7.855Z" style="fill:rgb(56,61,93);"/>
                        </g>
                        <g transform="matrix(-1,0,0,1,80.5162,375.252)">
                            <path d="M-35.593,13.201L0,13.201L0,0L-29.571,0L-35.593,13.201Z" style="fill:rgb(1,2,14);"/>
                        </g>
                        <g transform="matrix(1,0,0,1,43.9749,375.252)">
                            <path d="M0,13.201L60.09,13.201L66.111,0L6.022,0L0,13.201Z" style="fill:rgb(176,221,229);"/>
                        </g>
                        <g transform="matrix(1,0,0,1,100.822,382.205)">
                            <path d="M0,-0.706L0.267,-0.706C0.765,-0.706 1.115,-0.926 1.313,-1.364C1.479,-1.727 1.317,-1.907 0.83,-1.907L0.548,-1.907L0,-0.706ZM-0.487,0.362L-1.36,2.278L-2.781,2.278L-0.381,-2.982L1.342,-2.982C2.771,-2.982 3.25,-2.464 2.778,-1.43C2.5,-0.82 1.987,-0.349 1.241,-0.016L1.728,2.278L0.117,2.278L-0.126,0.362L-0.487,0.362ZM-4.294,2.278L-3.766,1.121L-5.47,1.121L-5.016,0.127L-3.439,0.127L-2.918,-1.016L-4.495,-1.016L-4.119,-1.841L-2.416,-1.841L-1.895,-2.982L-5.019,-2.982L-7.419,2.278L-4.294,2.278ZM-10.044,2.278L-11.465,2.278L-9.596,-1.819L-10.882,-1.819L-10.351,-2.982L-6.362,-2.982L-6.893,-1.819L-8.175,-1.819L-10.044,2.278ZM-14.096,2.278L-15.96,2.278L-16.189,-1.429L-16.222,-1.429C-16.442,-0.845 -16.623,-0.4 -16.762,-0.094L-17.844,2.278L-19.103,2.278L-16.703,-2.982L-14.847,-2.982L-14.601,0.673L-14.579,0.673C-14.372,0.143 -14.194,-0.282 -14.046,-0.604L-12.961,-2.982L-11.695,-2.982L-14.096,2.278ZM-20.617,2.278L-20.089,1.121L-21.792,1.121L-21.338,0.127L-19.761,0.127L-19.24,-1.016L-20.816,-1.016L-20.441,-1.841L-18.738,-1.841L-18.216,-2.982L-21.34,-2.982L-23.741,2.278L-20.617,2.278ZM-24.872,-1.892C-25.209,-1.892 -25.537,-1.753 -25.852,-1.477C-26.168,-1.199 -26.437,-0.818 -26.659,-0.33C-27.121,0.682 -26.967,1.188 -26.196,1.188C-25.964,1.188 -25.724,1.155 -25.476,1.09C-25.229,1.025 -24.974,0.948 -24.711,0.856L-25.26,2.06C-25.788,2.255 -26.329,2.351 -26.882,2.351C-27.677,2.351 -28.179,2.12 -28.393,1.66C-28.607,1.199 -28.514,0.534 -28.117,-0.337C-27.869,-0.88 -27.549,-1.359 -27.154,-1.771C-26.762,-2.185 -26.322,-2.501 -25.835,-2.724C-25.349,-2.945 -24.846,-3.057 -24.326,-3.057C-23.757,-3.057 -23.271,-2.934 -22.865,-2.687L-23.81,-1.568C-23.962,-1.66 -24.122,-1.735 -24.288,-1.8C-24.454,-1.861 -24.648,-1.892 -24.872,-1.892M-35.318,2.278L-32.918,-2.982L-31.498,-2.982L-33.373,1.129L-31.348,1.129L-31.873,2.278L-35.318,2.278ZM-40.2,2.278L-37.799,-2.982L-36.379,-2.982L-38.255,1.129L-36.229,1.129L-36.753,2.278L-40.2,2.278ZM-42.489,0.127L-43.607,0.127C-43.013,-0.699 -42.618,-1.253 -42.427,-1.532C-42.236,-1.814 -42.101,-2.016 -42.023,-2.138C-42.06,-2.005 -42.108,-1.788 -42.173,-1.482C-42.236,-1.178 -42.286,-0.93 -42.32,-0.738L-42.489,0.127ZM-42.916,2.278L-41.361,2.278L-40.689,-3.005L-42.585,-3.005L-46.71,2.278L-45.149,2.278L-44.433,1.29L-42.724,1.29L-42.916,2.278ZM-47.273,-1.892C-47.61,-1.892 -47.938,-1.753 -48.253,-1.477C-48.57,-1.199 -48.838,-0.818 -49.062,-0.33C-49.522,0.682 -49.368,1.188 -48.598,1.188C-48.366,1.188 -48.126,1.155 -47.877,1.09C-47.629,1.025 -47.375,0.948 -47.112,0.856L-47.661,2.06C-48.189,2.255 -48.73,2.351 -49.284,2.351C-50.078,2.351 -50.581,2.12 -50.794,1.66C-51.008,1.199 -50.916,0.534 -50.519,-0.337C-50.271,-0.88 -49.95,-1.359 -49.557,-1.771C-49.164,-2.185 -48.724,-2.501 -48.237,-2.724C-47.75,-2.945 -47.247,-3.057 -46.727,-3.057C-46.159,-3.057 -45.672,-2.934 -45.267,-2.687L-46.211,-1.568C-46.363,-1.66 -46.523,-1.735 -46.689,-1.8C-46.855,-1.861 -47.049,-1.892 -47.273,-1.892" style="fill:white;"/>
                        </g>
                        <g transform="matrix(0.871304,0,0,1,443.684,388.256)">
                            <path d="M0,9.843L-613.964,9.843C-616.667,9.843 -618.883,7.628 -618.883,4.921C-618.883,2.214 -616.667,0 -613.964,0L0,0C2.703,0 4.919,2.214 4.919,4.921C4.919,7.628 2.703,9.843 0,9.843" style="fill:rgb(1,2,14);"/>
                        </g>
                        <g transform="matrix(1,0,0,1,-135.865,388.256)">
                            <path d="M0,9.843L21.791,9.843C24.497,9.843 26.712,7.628 26.712,4.921C26.712,2.214 24.497,0 21.791,0L0,0C-2.707,0 -4.921,2.214 -4.921,4.921C-4.921,7.628 -2.707,9.843 0,9.843" style="fill:rgb(1,2,14);"/>
                        </g>
                        <g transform="matrix(1,0,0,1,110.499,219.048)">
                            <path d="M0,-7.49C0,-8.107 -0.501,-8.607 -1.118,-8.607C-1.735,-8.607 -2.235,-8.107 -2.235,-7.49L-2.235,-4.863L-4.863,-4.863C-5.48,-4.863 -5.98,-4.362 -5.98,-3.745C-5.98,-3.128 -5.48,-2.628 -4.863,-2.628L-2.235,-2.628L-2.235,0C-2.235,0.618 -1.735,1.117 -1.118,1.117C-0.501,1.117 0,0.618 0,0L0,-2.628L2.627,-2.628C3.244,-2.628 3.745,-3.128 3.745,-3.745C3.745,-4.362 3.244,-4.863 2.627,-4.863L0,-4.863L0,-7.49Z" style="fill:rgb(191,204,232);"/>
                        </g>
                        <g transform="matrix(1,0,0,1,-13.5036,235.498)">
                            <path d="M0,-7.491C0,-8.109 -0.5,-8.608 -1.117,-8.608C-1.734,-8.608 -2.234,-8.109 -2.234,-7.491L-2.234,-4.863L-4.862,-4.863C-5.479,-4.863 -5.979,-4.364 -5.979,-3.746C-5.979,-3.129 -5.479,-2.628 -4.862,-2.628L-2.234,-2.628L-2.234,-0.001C-2.234,0.616 -1.734,1.117 -1.117,1.117C-0.5,1.117 0,0.616 0,-0.001L0,-2.628L2.628,-2.628C3.246,-2.628 3.745,-3.129 3.745,-3.746C3.745,-4.364 3.246,-4.863 2.628,-4.863L0,-4.863L0,-7.491Z" style="fill:rgb(191,204,232);"/>
                        </g>
                        <g transform="matrix(1,0,0,1,-138.77,223.713)">
                            <path d="M0,-7.491C0,-8.109 -0.5,-8.608 -1.117,-8.608C-1.735,-8.608 -2.234,-8.109 -2.234,-7.491L-2.234,-4.863L-4.862,-4.863C-5.48,-4.863 -5.979,-4.363 -5.979,-3.746C-5.979,-3.129 -5.48,-2.628 -4.862,-2.628L-2.234,-2.628L-2.234,0C-2.234,0.616 -1.735,1.117 -1.117,1.117C-0.5,1.117 0,0.616 0,0L0,-2.628L2.628,-2.628C3.245,-2.628 3.746,-3.129 3.746,-3.746C3.746,-4.363 3.245,-4.863 2.628,-4.863L0,-4.863L0,-7.491Z" style="fill:rgb(191,204,232);"/>
                        </g>
                        <g transform="matrix(1,0,0,1,401.521,130.078)">
                            <path d="M0,-7.49C0,-8.108 -0.5,-8.608 -1.117,-8.608C-1.734,-8.608 -2.234,-8.108 -2.234,-7.49L-2.234,-4.863L-4.862,-4.863C-5.479,-4.863 -5.979,-4.362 -5.979,-3.745C-5.979,-3.128 -5.479,-2.627 -4.862,-2.627L-2.234,-2.627L-2.234,0.001C-2.234,0.617 -1.734,1.118 -1.117,1.118C-0.5,1.118 0,0.617 0,0.001L0,-2.627L2.628,-2.627C3.245,-2.627 3.745,-3.128 3.745,-3.745C3.745,-4.362 3.245,-4.863 2.628,-4.863L0,-4.863L0,-7.49Z" style="fill:rgb(191,204,232);"/>
                        </g>
                        <g transform="matrix(1,0,0,1,415.44,275.59)">
                            <path d="M0,-7.49C0,-8.107 -0.5,-8.608 -1.117,-8.608C-1.734,-8.608 -2.234,-8.107 -2.234,-7.49L-2.234,-4.862L-4.862,-4.862C-5.479,-4.862 -5.979,-4.362 -5.979,-3.745C-5.979,-3.128 -5.479,-2.627 -4.862,-2.627L-2.234,-2.627L-2.234,0C-2.234,0.617 -1.734,1.118 -1.117,1.118C-0.5,1.118 0,0.617 0,0L0,-2.627L2.628,-2.627C3.244,-2.627 3.745,-3.128 3.745,-3.745C3.745,-4.362 3.244,-4.862 2.628,-4.862L0,-4.862L0,-7.49Z" style="fill:rgb(191,204,232);"/>
                        </g>
                        <g transform="matrix(1,0,0,1,139.55,178.507)">
                            <path d="M0,-7.49C0,-8.107 -0.501,-8.608 -1.117,-8.608C-1.735,-8.608 -2.235,-8.107 -2.235,-7.49L-2.235,-4.863L-4.862,-4.863C-5.48,-4.863 -5.98,-4.362 -5.98,-3.745C-5.98,-3.128 -5.48,-2.628 -4.862,-2.628L-2.235,-2.628L-2.235,0C-2.235,0.618 -1.735,1.118 -1.117,1.118C-0.501,1.118 0,0.618 0,0L0,-2.628L2.628,-2.628C3.244,-2.628 3.745,-3.128 3.745,-3.745C3.745,-4.362 3.244,-4.863 2.628,-4.863L0,-4.863L0,-7.49Z" style="fill:white;"/>
                        </g>
                        <g transform="matrix(1,0,0,1,277.47,341.732)">
                            <path d="M0,-7.489C0,-8.106 -0.5,-8.607 -1.117,-8.607C-1.735,-8.607 -2.234,-8.106 -2.234,-7.489L-2.234,-4.861L-4.862,-4.861C-5.48,-4.861 -5.979,-4.361 -5.979,-3.744C-5.979,-3.127 -5.48,-2.627 -4.862,-2.627L-2.234,-2.627L-2.234,0.001C-2.234,0.618 -1.735,1.118 -1.117,1.118C-0.5,1.118 0,0.618 0,0.001L0,-2.627L2.629,-2.627C3.245,-2.627 3.745,-3.127 3.745,-3.744C3.745,-4.361 3.245,-4.861 2.629,-4.861L0,-4.861L0,-7.489Z" style="fill:white;"/>
                        </g>
                        <g transform="matrix(1,0,0,1,430.573,340.467)">
                            <path d="M0,-7.489C0,-8.106 -0.5,-8.607 -1.116,-8.607C-1.734,-8.607 -2.234,-8.106 -2.234,-7.489L-2.234,-4.861L-4.861,-4.861C-5.479,-4.861 -5.979,-4.361 -5.979,-3.744C-5.979,-3.128 -5.479,-2.627 -4.861,-2.627L-2.234,-2.627L-2.234,0.001C-2.234,0.617 -1.734,1.118 -1.116,1.118C-0.5,1.118 0,0.617 0,0.001L0,-2.627L2.629,-2.627C3.245,-2.627 3.746,-3.128 3.746,-3.744C3.746,-4.361 3.245,-4.861 2.629,-4.861L0,-4.861L0,-7.489Z" style="fill:white;"/>
                        </g>
                    </g>
                </g>
                <g id="BACKGROUND">
                </g>
                <g id="OBJECTS1" serif:id="OBJECTS">
                </g>
                <g transform="matrix(1.0005,0,0,1.0005,2.37552,-21.1977)">
                    <g transform="matrix(0.140108,0,0,0.556732,-1439.23,5996.04)">
                        <path d="M0,1307.27C0,1307.27 -497.429,809.407 -188.521,511.732C120.387,214.057 364.541,600.497 533.391,572.025C747.116,535.987 839.545,-6.239 1159.05,-6.754C1522.58,-7.339 1789.4,207.563 1647.28,719.363C1542.45,1096.85 2263.01,787.724 2157.18,1314.61L0,1307.27Z" style="fill:rgb(226,232,245);fill-rule:nonzero;"/>
                    </g>
                    <g transform="matrix(0.140108,0,0,0.556732,-1287.23,6558.61)">
                        <path d="M0,232.073C-67.621,221.19 -118.674,244.879 -167.764,238.07C-206.91,232.64 -227.313,193.031 -279.921,181.814C-267.407,174.433 -252.827,165.204 -245.861,158.493C-232.323,145.451 -212.876,119.373 -245.861,118.347C-269.593,117.61 -288.076,157.14 -296.578,179.378C-304.368,178.726 -312.803,178.675 -321.985,179.351C-311.126,144.355 -289.954,76.615 -284.774,63.601C-277.726,45.893 -307.33,-13.146 -342.223,53.113C-366.695,99.588 -350.077,153.291 -337.969,181.221C-347.531,182.763 -356.548,184.988 -365.166,187.682C-394.003,121.9 -485.729,-65.655 -585.163,-42.349C-693.564,-16.943 -461.322,109.145 -402.75,202.628C-450.598,224.806 -492.644,251.749 -565.318,232.073C-758.457,179.786 -773.777,297.434 -773.777,297.434L89.332,297.728C89.332,297.728 67.619,242.957 0,232.073" style="fill:rgb(172,210,154);fill-rule:nonzero;"/>
                    </g>
                    <g transform="matrix(0.140108,0,0,0.556732,-1320.12,6422.1)">
                        <path d="M0,53.937C0.889,62.244 12.642,61.943 25.924,59.953C39.206,57.962 35.773,61.455 54.452,61.093C73.129,60.733 79.359,54.348 80.174,51.651C80.901,49.257 71.844,47.563 62.146,45.541C60.927,45.291 59.702,45.025 58.478,44.759C47.54,42.363 40.088,34.484 30.572,27.704C21.558,21.282 15.484,-8.151 15.484,-8.151L-11.067,-8.307C-11.067,-8.307 -2.724,18.309 1.621,27.566C4.177,33.01 1.454,40 0.597,45.244C0.138,48.094 -0.317,51.009 0,53.937" style="fill:rgb(255,176,123);fill-rule:nonzero;"/>
                    </g>
                    <g transform="matrix(0.140108,0,0,0.556732,-1316.49,6448.56)">
                        <path d="M0,12.418C13.282,10.428 9.85,13.92 28.528,13.559C47.205,13.198 53.436,6.814 54.25,4.116C54.978,1.723 45.92,0.028 36.222,-1.993L36.113,-1.813C36.113,-1.813 24.307,5.038 8.882,4.004C-3.691,3.165 -16.651,-1.642 -25.327,-2.291C-25.786,0.56 -26.241,3.475 -25.924,6.402C-25.035,14.709 -13.282,14.408 0,12.418" style="fill:rgb(54,93,164);fill-rule:nonzero;"/>
                    </g>
                    <g transform="matrix(0.140108,0,0,0.556732,-1349.21,6418.09)">
                        <path d="M0,59.816C0.575,68.151 12.331,68.294 25.679,66.805C39.026,65.316 35.465,68.676 54.144,69.02C72.821,69.364 79.288,63.218 80.204,60.553C81.021,58.188 72.033,56.154 62.418,53.768C61.209,53.472 59.996,53.161 58.782,52.849C47.942,50.042 40.792,41.887 31.538,34.754C22.772,27.997 29.983,-0.034 29.983,-0.034L9.837,-9.548C9.837,-9.548 7.066,19.34 5.571,33.952C4.959,39.935 1.979,45.945 0.924,51.152C0.358,53.984 -0.205,56.879 0,59.816" style="fill:rgb(255,176,123);fill-rule:nonzero;"/>
                    </g>
                    <g transform="matrix(0.140108,0,0,0.556732,-1345.61,6447.99)">
                        <path d="M0,13.094C13.348,11.605 9.786,14.965 28.465,15.309C47.143,15.653 53.609,9.507 54.525,6.842C55.343,4.477 46.354,2.443 36.739,0.057L36.624,0.233C36.624,0.233 24.568,6.635 9.192,5.02C-3.34,3.707 -16.11,-1.583 -24.755,-2.559C-25.32,0.273 -25.884,3.168 -25.679,6.105C-25.104,14.44 -13.348,14.582 0,13.094" style="fill:rgb(54,93,164);fill-rule:nonzero;"/>
                    </g>
                    <g transform="matrix(0.140108,0,0,0.556732,-1342.87,6428.04)">
                        <path d="M0,-374.042C0,-374.042 -5.58,-347.021 -11.173,-209.983C-11.173,-209.983 -21.538,-184.609 -29.057,-153.584C-36.576,-122.56 -41.882,6.897 -41.882,6.897C-41.882,6.897 -38.885,11.22 -29.781,11.766C-22.348,12.212 -16.564,8.953 -16.564,8.953C-16.564,8.953 35.709,-160.605 61.153,-226.431C86.598,-292.259 101.507,-386.254 101.507,-386.254L0,-374.042Z" style="fill:rgb(43,71,139);fill-rule:nonzero;"/>
                    </g>
                    <g transform="matrix(0.140108,0,0,0.556732,-1334.06,6409.29)">
                        <path d="M0,-328.806C0,-328.806 4.122,-301.524 46.323,-171.027C46.323,-171.027 45.385,-143.634 49.074,-111.924C52.762,-80.214 95.479,44.632 95.479,44.632C95.479,44.632 101.15,46.603 109.663,44.357C117.574,42.269 123.777,37.509 123.777,37.509C123.777,37.509 107.402,-140.935 108.48,-211.5C109.558,-282.065 91,-375.409 91,-375.409L0,-328.806Z" style="fill:rgb(43,71,139);fill-rule:nonzero;"/>
                    </g>
                    <g transform="matrix(0.140108,0,0,0.556732,-1323.59,6141.59)">
                        <path d="M0,-225.899C-6.615,-230.109 -14.752,-230.94 -20.476,-230.887C-18.93,-232.331 -16.013,-232.739 -16.013,-232.739C-19.525,-233.442 -27.599,-230.327 -27.599,-230.327C-75.873,-251.754 -87.233,-179.665 -87.041,-162.774C-86.855,-145.887 -87.699,-126.499 -113.026,-112.626C-162.859,-85.33 -124.66,-31.418 -124.66,-31.418C-133.631,-5.679 -100.422,25.855 -100.422,25.855C-100.984,12.186 -38.241,-74.898 -4.411,-94.765C4.149,-106.105 8.02,-126.701 8.314,-128.323C6.116,-111.949 2.842,-102.867 0.068,-97.799C29.081,-121.94 17.532,-214.744 0,-225.899" style="fill:rgb(15,41,51);fill-rule:nonzero;"/>
                    </g>
                    <g transform="matrix(0.140108,0,0,0.556732,-1325.06,6061.27)">
                        <path d="M0,40.17C0.17,40.247 -15.827,48.552 -27.863,45.262C-39.185,42.177 -46.58,27.497 -46.427,27.463C-41.633,26.511 -40.247,19.923 -40.35,-8.382L-38.182,-7.956L-3.051,-0.995L-1.742,-0.74C-1.742,-0.74 -2.576,10.726 -2.602,21.53C-2.609,23.816 -2.576,26.068 -2.49,28.177C-2.253,34.449 -1.556,39.44 0,40.17" style="fill:rgb(255,197,199);fill-rule:nonzero;"/>
                    </g>
                    <g transform="matrix(0.140108,0,0,0.556732,-1325.42,6061.48)">
                        <path d="M0,21.148C-0.008,23.435 0.025,25.687 0.111,27.795C-20.323,26.971 -32.104,3.604 -36.55,-6.647L-0.449,-1.377L0.859,-1.122C0.859,-1.122 0.025,10.344 0,21.148" style="fill:rgb(254,138,139);fill-rule:nonzero;"/>
                    </g>
                    <g transform="matrix(0.140108,0,0,0.556732,-1330.94,6010.19)">
                        <path d="M0,79.835C0,79.835 -10.686,62.951 -13.25,48.514C-15.082,38.206 -9.831,0 28.562,5.502C28.562,5.502 39.713,6.601 50.194,13.681C58.53,19.311 70.561,31.465 57.109,64.805L53.615,76.067L0,79.835Z" style="fill:rgb(15,41,51);fill-rule:nonzero;"/>
                    </g>
                    <g transform="matrix(0.138802,-0.0758389,-0.0190857,-0.551542,-1324.2,6069.24)">
                        <path d="M-5.945,-1.133C-5.945,-1.133 -52.471,11.647 -44.067,40.5C-35.662,69.352 -36.007,90.434 -5.945,83.494C24.117,76.554 26.655,63.87 26.193,53.558C25.73,43.245 6.376,-3.713 -5.945,-1.133" style="fill:rgb(255,197,199);fill-rule:nonzero;"/>
                    </g>
                    <g transform="matrix(-0.0576289,-0.507457,-0.127707,0.228994,-1331.49,6015.37)">
                        <path d="M-39.092,-44.443C-39.092,-44.443 -61.592,-14.257 -55.005,5.611C-48.419,25.48 -39.092,29.935 -39.092,29.935C-39.092,29.935 -37.119,10.175 -20.733,-4.208C-20.733,-4.208 -19.588,-45.145 -39.092,-44.443" style="fill:rgb(15,41,51);fill-rule:nonzero;"/>
                    </g>
                    <g transform="matrix(-0.132115,0.185355,0.0466468,0.52497,-1319.61,6039.28)">
                        <path d="M22.273,-32.508C22.273,-32.508 17.242,-20.933 18.7,-13.045C20.159,-5.157 26.58,9.269 22.273,10.945C22.273,10.945 2.257,-5.568 5.792,-22.783C9.539,-41.038 22.273,-32.508 22.273,-32.508" style="fill:rgb(15,41,51);fill-rule:nonzero;"/>
                    </g>
                    <g transform="matrix(0.140108,0,0,0.556732,-1279.56,6340.93)">
                        <path d="M0,-161.162C-10.035,-182.419 -37.934,-200.008 -61.439,-200.016C-78.799,-200.02 -94.109,-194.097 -105.957,-184.446C-112.731,-178.929 -122.949,-182.567 -124.787,-191.109L-145.36,-286.698C-148.36,-300.636 -162.092,-309.505 -176.03,-306.505L-508.942,-234.854C-522.561,-231.923 -531.225,-218.508 -528.293,-204.889L-456.722,127.659C-454.675,137.171 -447.699,144.347 -439.051,147.104L-443.421,148.343L-430.497,148.343L-430.392,148.324C-428.812,148.278 -427.213,148.096 -425.609,147.751L-418.36,146.191L-332.92,127.802C-320.93,125.222 -316.062,110.716 -324.118,101.468C-331.901,92.535 -337.501,81.471 -339.888,68.937C-346.611,33.618 -324.775,-1.368 -290.073,-10.77C-251.474,-21.228 -212.491,2.868 -204.186,41.462C-201.061,55.981 -202.737,70.415 -208.148,83.113C-210.25,88.046 -208.512,93.169 -204.901,96.089L-209.886,98.521L-198.338,98.514L-198.338,98.513C-197.474,98.534 -196.582,98.46 -195.672,98.264L-93.651,76.307C-79.707,73.305 -70.836,59.568 -73.837,45.624L-94.283,-49.376C-96.176,-58.167 -88.158,-65.872 -79.447,-63.634C-69.377,-61.046 -58.568,-60.697 -47.711,-63.033C-5.021,-72.221 19.931,-118.943 0,-161.162" style="fill:rgb(216,103,19);fill-rule:nonzero;"/>
                    </g>
                    <g transform="matrix(0.140108,0,0,0.556732,-1289.82,6363.93)">
                        <path d="M0,-241.321C-17.358,-241.326 -32.669,-235.402 -44.518,-225.752C-51.291,-220.234 -61.509,-223.873 -63.347,-232.415L-83.92,-328.004C-86.92,-341.941 -100.651,-350.81 -114.59,-347.81L-447.502,-276.16C-461.12,-273.228 -469.785,-259.813 -466.853,-246.194L-395.282,86.354C-392.238,100.493 -378.309,109.489 -364.169,106.446L-271.48,86.496C-259.489,83.916 -254.621,69.41 -262.679,60.162C-270.461,51.23 -276.061,40.165 -278.447,27.631C-285.171,-7.686 -263.335,-42.674 -228.634,-52.076C-190.033,-62.534 -151.051,-38.437 -142.745,0.157C-139.619,14.676 -141.297,29.11 -146.707,41.808C-150.223,50.059 -143.001,58.845 -134.232,56.958L-32.211,35.001C-18.268,31.999 -9.396,18.263 -12.396,4.319L-32.844,-90.681C-34.735,-99.472 -26.717,-107.177 -18.007,-104.939C-7.937,-102.351 2.873,-102.003 13.73,-104.339C56.418,-113.526 81.371,-160.249 61.44,-202.467C51.404,-223.724 23.508,-241.313 0,-241.321" style="fill:rgb(241,163,79);fill-rule:nonzero;"/>
                    </g>
                    <g transform="matrix(-0.123564,0.262447,0.0660478,0.490991,-1301.41,6175.76)">
                        <path d="M20.457,-44.679C20.457,-44.679 3.748,-31.889 5.315,-17.415C6.881,-2.94 17.894,1.542 20.457,0.136C23.022,-1.271 26.944,-5.816 25.957,-13.23C24.971,-20.643 20.457,-44.679 20.457,-44.679" style="fill:rgb(255,176,123);fill-rule:nonzero;"/>
                    </g>
                    <g transform="matrix(-0.111151,0.338937,0.0852974,0.44167,-1340.2,6205.84)">
                        <path d="M23.809,-47.931C23.809,-47.931 5.298,-33.763 7.033,-17.729C8.769,-1.694 20.967,3.273 23.809,1.715C26.65,0.156 30.993,-4.88 29.901,-13.091C28.809,-21.305 23.809,-47.931 23.809,-47.931" style="fill:rgb(255,176,123);fill-rule:nonzero;"/>
                    </g>
                    <g transform="matrix(0.140108,0,0,0.556732,-1306.8,6109.45)">
                        <path d="M0,105.017C-2.065,104.576 -11.102,103.513 -22.596,101.704C-43.757,98.383 -73.263,92.538 -83.162,83.407C-85.842,80.927 -92.089,67.286 -98.579,51.647C-105.146,86.27 -105.508,112.825 -103.77,133.041L-246.813,163.829C-234.547,139.033 -215.564,108.288 -219.124,83.407C-220.442,74.182 -225.497,61.525 -227.387,47.305C-227.546,46.082 -227.681,44.86 -227.79,43.619C-247.85,60.132 -271.025,78.353 -271.58,81.997C-272.503,88.105 -256.885,155.729 -256.885,155.729C-260.764,164.657 -277.607,162.779 -277.607,162.779C-293.395,151.507 -316.611,87.628 -314.747,73.478C-312.892,59.326 -255.332,-21.321 -241.401,-40.595C-227.639,-59.64 -177.4,-59.164 -176.191,-59.156L-176.166,-59.156C-136.214,-35.168 -132.611,-55.104 -132.611,-55.104C-132.611,-55.104 -96.564,-48.249 -90.367,-37.605C-84.17,-26.954 -57.006,53.795 -55.084,56.641C-51.062,62.587 14.61,86.38 15.786,93.269C16.979,100.158 5.887,106.266 0,105.017" style="fill:rgb(58,157,194);fill-rule:nonzero;"/>
                    </g>
                    <g transform="matrix(0.140108,0,0,0.556732,-1334.4,6139.69)">
                        <path d="M0,98.836L-49.877,109.523C-37.459,84.796 -21.133,54 -24.703,29.273C-26.038,20.042 -29.031,9.117 -30.475,-5.166C-30.614,-6.543 -30.854,-10.687 -30.854,-10.687C-30.854,-10.687 4.468,17.109 5.089,47.191C5.412,62.797 2.687,83.212 0,98.836" style="fill:rgb(55,143,176);fill-rule:nonzero;"/>
                    </g>
                    <g transform="matrix(0.140108,0,0,0.556732,-1309.78,6124.27)">
                        <path d="M0,75.276C-21.42,71.949 -51.291,66.103 -61.31,56.967C-64.025,54.486 -70.351,40.83 -76.921,25.171C-76.921,25.171 -79.224,0 -72.645,0.94C-66.065,1.88 -56.384,46.525 -49.477,49.344C-43.292,51.873 -9.107,64.994 0,75.276" style="fill:rgb(55,143,176);fill-rule:nonzero;"/>
                    </g>
                    <g transform="matrix(0.140108,0,0,0.556732,-1297.48,6464.03)">
                        <path d="M0,455.336L-95.222,23.006L-69.01,23.006C-62.798,23.006 -57.715,17.923 -57.715,11.711L-57.715,-2.893C-57.715,-9.105 -62.798,-14.187 -69.01,-14.187L-401.5,-14.187C-407.714,-14.187 -412.796,-9.105 -412.796,-2.893L-412.796,11.711C-412.796,17.923 -407.714,23.006 -401.5,23.006L-367.756,23.006L-462.979,455.336C-464.259,461.148 -460.564,466.954 -454.77,468.237C-448.975,469.523 -443.186,465.817 -441.905,460.005L-345.656,23.006L-117.323,23.006L-21.073,460.005C-19.793,465.817 -14.004,469.523 -8.209,468.237C-2.414,466.954 1.28,461.148 0,455.336" style="fill:rgb(195,224,244);fill-rule:nonzero;"/>
                    </g>
                    <g transform="matrix(0.140108,0,0,0.556732,-1209.01,6651.31)">
                        <path d="M0,-145.81C-35.244,-179.645 -162.123,33.835 -162.123,33.835C-162.123,33.835 35.244,-111.975 0,-145.81" style="fill:rgb(172,210,154);fill-rule:nonzero;"/>
                    </g>
                    <g transform="matrix(0.140108,0,0,0.556732,-1209.6,6719.99)">
                        <path d="M0,-170.496C-31.202,-182.976 -130.912,-77.853 -153.369,-53.58C-170.553,-55.864 -189.398,-57.346 -210.056,-57.714C-367.95,-60.534 -439.569,10.982 -439.569,10.982L0.886,12.48C0.886,12.48 -38.131,-37.062 -148.816,-52.957C-121.773,-65.727 -41.78,-102.93 -12.688,-110.083C22.557,-118.749 35.244,-156.398 0,-170.496" style="fill:rgb(172,210,154);fill-rule:nonzero;"/>
                    </g>
                    <g transform="matrix(0.140108,0,0,0.556732,-1227.01,6724.37)">
                        <path d="M0,-392.615L-95.063,-392.615C-107.361,-392.615 -115.194,-379.424 -109.247,-368.659C-103.503,-358.261 -123.714,-268.175 -166.297,-265.824C-206.333,-263.613 -239.468,-295.559 -239.468,-335.142C-239.468,-350.033 -234.778,-363.828 -226.796,-375.133C-221.608,-382.479 -226.835,-392.615 -235.828,-392.615L-340.463,-392.615C-354.765,-392.615 -366.358,-381.022 -366.358,-366.719C-366.358,-366.719 -375.843,-254.41 -383.908,-258.44C-392.217,-262.594 -401.477,-265.123 -411.272,-265.627L-411.27,-265.63L-411.364,-265.63C-412.533,-265.688 -413.708,-265.724 -414.891,-265.724C-416.079,-265.724 -433.302,-266.018 -433.302,-266.018L-435.913,-127.232L-420.956,-127.073C-406.735,-127.498 -394.387,-128.829 -383.409,-134.426C-375.606,-138.405 -366.358,-132.681 -366.358,-123.922L-366.358,-25.884C-366.358,-11.589 -354.77,0 -340.474,0L0.969,0C14.936,0 26.258,-11.322 26.258,-25.289L26.258,-366.358C26.258,-380.859 14.501,-392.615 0,-392.615" style="fill:rgb(216,103,19);fill-rule:nonzero;"/>
                    </g>
                    <g transform="matrix(0.140108,0,0,0.556732,-1289.88,6577.19)">
                        <path d="M0,135.503C17.016,139.17 33.272,136.593 46.922,129.633C54.727,125.653 63.975,131.377 63.975,140.137L63.975,238.175C63.975,252.47 75.563,264.06 89.859,264.06L431.301,264.06C445.268,264.06 456.591,252.736 456.591,238.77L456.591,-102.299C456.591,-116.801 444.834,-128.557 430.333,-128.557L335.27,-128.557C322.972,-128.557 315.139,-115.365 321.086,-104.601C326.83,-94.203 329.984,-82.175 329.68,-69.386C328.819,-33.349 300.035,-3.659 264.036,-1.765C223.994,0.343 190.865,-31.501 190.865,-71.083C190.865,-85.975 195.555,-99.769 203.537,-111.074C208.724,-118.421 203.498,-128.557 194.504,-128.557L89.87,-128.557C75.567,-128.557 63.975,-116.963 63.975,-102.661L63.975,-5.228C63.975,3.789 54.49,9.649 46.424,5.618C37.099,0.957 26.577,-1.666 15.441,-1.666C-28.341,-1.666 -62.657,38.868 -52.026,84.456C-46.674,107.41 -23.039,130.536 0,135.503" style="fill:rgb(241,163,79);fill-rule:nonzero;"/>
                    </g>
                    <g transform="matrix(0.140108,0,0,0.556732,-1428.39,6623.98)">
                        <path d="M0,181.936L61.366,182.387C61.366,182.387 59.231,167.539 17.922,163.708C1.907,119.221 -45.141,-0.451 -85.996,5.208C-126.334,10.798 -30.8,120.588 8.065,163.27C2.566,163.28 -2.56,163.727 -7.291,164.488C-16.653,145.847 -35.217,119.498 -65.01,120.699C-96.717,121.976 -53.52,150.93 -23.78,168.711C-38.844,174.115 -46.979,181.59 -46.979,181.59L-0.697,181.93C-0.152,182.228 0.143,182.387 0.143,182.387C0.143,182.387 0.095,182.228 0,181.936" style="fill:rgb(172,210,154);fill-rule:nonzero;"/>
                    </g>
                    <g transform="matrix(0.140108,0,0,0.556732,-1397.67,6470.95)">
                        <path d="M0,-39.077L9.079,-31.703C9.079,-31.703 33.918,-40.609 39.523,-11.095C39.523,-11.095 41.016,1.485 33.048,1.508C25.08,1.532 28.367,0.133 17.084,0.464C5.801,0.795 -3.551,-5.154 -5.204,-14.31L-10.602,-22.068L0,-39.077Z" style="fill:rgb(234,142,80);fill-rule:nonzero;"/>
                    </g>
                    <g transform="matrix(0.140108,0,0,0.556732,-1397.82,6354.3)">
                        <path d="M0,186.278C7.243,178.714 6.66,173.124 6.66,173.124C6.66,173.124 -77.223,104.448 -85.729,98.852C-91.526,95.04 -153.303,40.273 -182.18,6.885C-196.503,-9.676 -214.245,-3.249 -234.545,2.575L-251.262,7.371C-271.447,13.162 -276.697,41.394 -260.135,55.113C-213.489,93.749 -135.893,137.207 -121.375,146.339C-85.331,169.012 -14.78,195.954 -14.78,195.954C-14.78,195.954 -6.221,192.773 0,186.278" style="fill:rgb(30,61,112);fill-rule:nonzero;"/>
                    </g>
                    <g transform="matrix(0.140108,0,0,0.556732,-1384.06,6724.92)">
                        <path d="M0,-58.201C0,-58.201 20.356,-42.949 51.549,-51.009C51.549,-51.009 76.699,-56.739 82.215,-44.196C82.215,-44.196 43.644,-24.601 33.883,-19.243C26.527,-15.204 18.851,-8.829 13.424,-3.901C9.129,0 2.438,-0.529 -1.223,-5.031C-2.92,-7.118 -4.861,-9.602 -6.989,-12.485C-12.936,-20.544 -26.794,-46.577 -26.794,-46.577L0,-58.201Z" style="fill:rgb(35,56,98);fill-rule:nonzero;"/>
                    </g>
                    <g transform="matrix(0.140108,0,0,0.556732,-1382.73,6502.01)">
                        <path d="M0,335.137C0,335.137 -12.396,363.719 -41.01,358.465C-41.01,358.465 -99.397,310.246 -139.447,260.156C-152.454,243.887 -163.529,227.421 -170.037,212.353C-196.596,150.863 -268.278,59.151 -313.854,12.669L-199.826,-28.582C-199.826,-28.582 -163.303,44.89 -114.707,135.137C-79.685,200.159 -38.404,273.896 0,335.137" style="fill:rgb(118,202,85);fill-rule:nonzero;"/>
                    </g>
                    <g transform="matrix(0.140108,0,0,0.556732,-1398.8,6555.7)">
                        <path d="M0,38.7L-24.74,163.719C-37.747,147.45 -48.822,130.984 -55.33,115.916C-81.889,54.426 -153.571,-37.286 -199.147,-83.768L-85.119,-125.019C-85.119,-125.019 -48.596,-51.547 0,38.7" style="fill:rgb(95,189,57);fill-rule:nonzero;"/>
                    </g>
                    <g transform="matrix(0.140108,0,0,0.556732,-1411.9,6717.24)">
                        <path d="M0,-28.201C0,-28.201 -1.243,-5.394 26.405,-2.352C26.405,-2.352 42.205,-2.268 42.25,12.247L-38.107,12.502C-38.107,12.502 -40.44,6.646 -41.007,-5.894C-41.441,-15.525 -31.672,-40.703 -31.672,-40.703L0,-28.201Z" style="fill:rgb(35,56,98);fill-rule:nonzero;"/>
                    </g>
                    <g transform="matrix(0.140108,0,0,0.556732,-1415.97,6705.58)">
                        <path d="M0,-394.22C0,-394.22 50.798,-338.402 83.044,-237.839C100.588,-183.126 50.888,-45.565 41.198,2.23C41.198,2.23 7.857,5.06 -14.939,-3.753C-14.939,-3.753 -16.672,-102.471 -3.339,-178.557C4.122,-221.139 -70.224,-269.626 -102.71,-346.568C-124.81,-398.911 -97.924,-398.023 -64.883,-399.28L0,-394.22Z" style="fill:rgb(118,202,85);fill-rule:nonzero;"/>
                    </g>
                    <g transform="matrix(0.140108,0,0,0.556732,-1424.18,6317.99)">
                        <path d="M0,52.926C-28.263,68.885 -86.122,54.167 -86.122,54.167C-86.122,54.167 -62.625,27.304 -73.302,-15.959L-51.111,-4.689L-27.274,7.416C-27.274,7.416 -25.734,15.057 -24.662,28.78C-24.39,32.315 -24.146,36.262 -23.977,40.575C-9.465,44.975 0,52.926 0,52.926" style="fill:rgb(255,197,199);fill-rule:nonzero;"/>
                    </g>
                    <g transform="matrix(0.140108,0,0,0.556732,-1409.66,6354.43)">
                        <path d="M0,233.625C0,238.593 -5.722,240.971 -6.937,241.212C-18.336,243.296 -50.165,255.677 -78.838,258.517C-102.98,261.045 -125.396,258.644 -150.022,253.699C-153.283,253.043 -160.938,250.981 -161.482,247.856C-162.162,244.443 -256.47,55.601 -183.156,-25.518C-181.435,-27.42 -166.963,-23.993 -153.729,-20.853C-141.507,-17.953 -130.296,-19.569 -120.284,-23.585L-107.873,-17.055C-92.632,-8.562 -63.792,21.613 -60.418,45.289C-58.704,57.33 -51.818,66.246 -49.826,76.838C-49.086,80.757 -48.33,84.584 -47.561,88.313C-46.059,95.628 -44.51,102.589 -42.918,109.21C-38.606,127.117 -34.055,142.533 -29.585,155.851C-24.829,169.991 -20.164,181.753 -15.997,191.589C-10.592,204.349 -6.023,213.884 -3.17,221.185C-1.154,226.325 0,230.356 0,233.625" style="fill:white;fill-rule:nonzero;"/>
                    </g>
                    <g transform="matrix(0.140108,0,0,0.556732,-1410.11,6375.6)">
                        <path d="M0,183.159C-133.127,120.437 -179.232,0 -179.232,0C-179.232,0 -71.07,39.899 -44.391,50.287C-42.889,57.602 -41.34,64.563 -39.748,71.184C-35.437,89.092 -30.885,104.508 -26.415,117.825C-21.659,131.966 -16.994,143.727 -12.827,153.563C-7.422,166.323 -2.854,175.858 0,183.159" style="fill:rgb(228,228,228);fill-rule:nonzero;"/>
                    </g>
                    <g transform="matrix(0.140108,0,0,0.556732,-1357.42,6247.79)">
                        <path d="M0,279.342L-28.515,188.92C-31.284,180.139 -40.371,175.982 -48.307,178.215L-48.329,178.221C-48.751,178.341 -49.168,178.485 -49.582,178.64L-59.581,181.98C-59.581,181.98 -75.233,198.101 -86.473,201.352C-121.01,211.345 -153.791,192.937 -166.393,159.264C-180.408,121.81 -164.147,80.682 -126.499,68.809C-113.617,64.746 -88.266,72.317 -88.266,72.317L-78.089,68.935C-72.563,67.254 -68.766,61.29 -70.74,55.03L-102.127,-44.495C-106.417,-58.098 -120.922,-65.649 -134.525,-61.358L-227.2,-32.133C-235.777,-29.428 -244.196,-36.691 -242.781,-45.571C-241.146,-55.84 -241.807,-66.635 -245.146,-77.225C-258.28,-118.87 -307.129,-139.351 -347.303,-115.565C-367.529,-103.59 -382.437,-74.172 -380.249,-50.767C-378.633,-33.483 -371.306,-18.793 -360.591,-7.897C-354.465,-1.668 -357.135,8.846 -365.467,11.473L-458.718,40.881C-472.315,45.17 -479.861,59.669 -475.573,73.266L-373.152,398.034C-368.963,411.319 -354.797,418.693 -341.512,414.503L-17.099,312.194C-3.305,307.844 4.351,293.136 0,279.342" style="fill:rgb(74,117,203);fill-rule:nonzero;"/>
                    </g>
                    <g transform="matrix(0.140108,0,0,0.556732,-1412.08,6433.4)">
                        <path d="M0,-380.874C1.616,-363.59 8.943,-348.899 19.659,-338.004C25.784,-331.774 23.114,-321.263 14.782,-318.635L-78.468,-289.227C-92.065,-284.938 -99.612,-270.438 -95.324,-256.841L7.097,67.928C11.286,81.213 25.452,88.585 38.737,84.397L363.15,-17.914C376.945,-22.264 384.6,-36.972 380.25,-50.766L351.733,-141.187C348.045,-152.885 333.147,-156.377 324.693,-147.491C316.526,-138.909 306.031,-132.3 293.776,-128.754C259.24,-118.762 222.367,-137.235 209.766,-170.908C195.75,-208.362 216.102,-249.426 253.751,-261.299C267.914,-265.765 282.442,-265.443 295.59,-261.242C304.134,-258.512 312.207,-266.523 309.51,-275.078L278.122,-374.603C273.833,-388.206 259.327,-395.755 245.725,-391.466L153.049,-362.238C144.473,-359.534 136.053,-366.797 137.468,-375.678C139.104,-385.947 138.442,-396.741 135.102,-407.333C121.968,-448.978 73.122,-469.459 32.947,-445.673C12.72,-433.696 -2.188,-404.278 0,-380.874" style="fill:rgb(105,157,238);fill-rule:nonzero;"/>
                    </g>
                    <g transform="matrix(0.140108,0,0,0.556732,-1399.2,6470.85)">
                        <path d="M0,-24.271L11.504,-20.053C11.504,-20.053 34.542,-36.343 48.884,-9.849C48.884,-9.849 54.072,1.723 45.86,4.236C37.647,6.75 40.634,4.383 29.091,8.228C17.548,12.072 6.177,9.303 1.816,1.057L-6.002,-4.679L0,-24.271Z" style="fill:rgb(255,197,199);fill-rule:nonzero;"/>
                    </g>
                    <g transform="matrix(0.140108,0,0,0.556732,-1397.87,6360.19)">
                        <path d="M0,190.753C4.254,179.655 6.196,174.63 6.196,174.63C6.196,174.63 -80.73,103.775 -89.587,97.698C-95.623,93.558 -155.709,48.644 -185.004,13.641C-199.535,-3.722 -222.447,-11.659 -244.607,-7.013L-262.854,-3.185C-284.889,1.436 -292.048,29.324 -274.955,43.977C-226.816,85.245 -145.625,133.11 -130.487,143.065C-92.906,167.78 -9.783,202.412 -9.783,202.412C-9.783,202.412 -3.34,199.47 0,190.753" style="fill:rgb(247,247,247);fill-rule:nonzero;"/>
                    </g>
                    <g transform="matrix(0.109928,-0.345179,-0.0868684,-0.436809,-1426.95,6324.19)">
                        <path d="M-14.832,-10.782C-37.605,5.225 -37.558,34.435 -37.558,34.435C-37.558,34.435 -23.384,32.107 -14.832,31.877L-3.635,7.6C-3.635,7.6 -7.164,0.65 -14.832,-10.782" style="fill:rgb(254,138,139);fill-rule:nonzero;"/>
                    </g>
                    <g transform="matrix(0.0881274,-0.432808,-0.108921,-0.350182,-1425.64,6294.56)">
                        <path d="M-34.424,-24.758C-34.424,-24.758 -84.406,-11.029 -75.376,19.965C-66.346,50.959 -66.717,73.606 -34.424,66.151C-2.13,58.693 0.596,45.07 0.099,33.992C-0.398,22.913 -21.191,-27.53 -34.424,-24.758" style="fill:rgb(255,197,199);fill-rule:nonzero;"/>
                    </g>
                    <g transform="matrix(0.140108,0,0,0.556732,-1428.71,6312.44)">
                        <path d="M0,-77.522C-1.51,-87.714 -4.907,-94.886 -4.907,-94.886C-4.907,-94.886 -7.55,-83.939 -27.556,-85.45C-47.562,-86.959 -79.27,-83.482 -89.839,-60.685C-90.512,-59.234 -91.111,-57.74 -91.644,-56.212C-93.557,-61.267 -94.018,-68.84 -94.018,-68.84C-97.819,-59.027 -94.018,-46.75 -94.018,-46.75L-94.017,-46.75C-94.073,-46.393 -94.121,-46.034 -94.173,-45.674C-98.587,-41.942 -102.296,-30.338 -102.296,-30.338C-100.963,-33.573 -97.714,-35.686 -94.816,-36.987C-94.906,-19.248 -87.713,-1.906 -75.086,3.257C-56.621,10.806 -56.769,5.047 -38.198,17.364C-38.198,17.364 -33.218,11.184 -36.614,7.032C-40.013,2.879 -52.846,-3.16 -45.674,-9.2C-38.502,-15.239 -35.86,-8.445 -33.218,-12.597C-30.575,-16.75 -43.786,-28.829 -26.801,-40.152C-9.814,-51.476 1.51,-67.331 0,-77.522" style="fill:rgb(15,41,51);fill-rule:nonzero;"/>
                    </g>
                    <g transform="matrix(0.140108,0,0,0.556732,-1276.83,6609.27)">
                        <path d="M0,206.601C0,206.601 -21.294,175.125 -54.623,177.662C-64.751,178.433 -81.211,180.901 -100.328,183.531C-114.748,133.216 -154.492,13.61 -208.095,6.877C-262.84,0 -155.709,133.016 -111.9,185.092C-119.89,186.143 -128.187,187.172 -136.562,188.081C-159.756,163.316 -200.175,126.626 -233.926,129.446C-267.761,132.273 -204.414,167.253 -158.693,190.137C-186.747,192.237 -213.346,192.005 -229.603,185.721C-269.412,170.33 -305.999,206.601 -305.999,206.601L0,206.601Z" style="fill:rgb(130,179,120);fill-rule:nonzero;"/>
                    </g>
                </g>
            </g>
        </g>
    </g>
</svg>
