<svg xmlns="http://www.w3.org/2000/svg" width="491" height="439" viewBox="0 0 491 439">
    <g fill="none" fill-rule="evenodd">
        <g fill="#E5E8EB">
            <g>
                <path d="M185.03 76.304c-26.338 4.886-53.317 5.802-79.71 10.494-35.67 6.342-69.832 16.91-89.068 50.204-18.741 32.451-22.19 75.384-5.524 109.3 12.09 24.596 31.152 47.993 54.301 62.596 29.662 18.707 62.197 32.831 96.099 41.717 36.886 9.67 76.316 13.556 108.803 33.558 17.02 10.476 31.314 24.942 48.242 35.566 36.155 22.69 84.878 25.351 121.653 3.69 36.775-21.661 58.381-67.979 48.192-109.503-6.408-26.128-23.672-48.186-33.294-73.306-8.243-21.502-10.699-45.204-7.047-67.95 3.762-23.444 13.657-45.585 16.097-69.273 2.04-19.838-5.019-45.119-15.99-61.822C425.452 7.57 384.69-4.558 346.289 1.495c-29.01 4.574-57.593 19.196-81.809 35.414-11.508 7.702-20.384 17.94-33.127 24.453-13.09 6.69-27.285 11.088-41.648 14.028-1.556.32-3.113.625-4.673.914" transform="translate(-857 -645) matrix(-1 0 0 1 1348 645)"/>
            </g>
        </g>
    </g>
</svg>
