<?xml version="1.0" encoding="UTF-8" standalone="no"?>
<!DOCTYPE svg PUBLIC "-//W3C//DTD SVG 1.1//EN" "http://www.w3.org/Graphics/SVG/1.1/DTD/svg11.dtd">
<svg width="100%" height="100%" viewBox="0 0 1260 855" version="1.1" xmlns="http://www.w3.org/2000/svg" xmlns:xlink="http://www.w3.org/1999/xlink" xml:space="preserve" xmlns:serif="http://www.serif.com/" style="fill-rule:evenodd;clip-rule:evenodd;stroke-linejoin:round;stroke-miterlimit:2;">
    <g transform="matrix(1,0,0,1,-2158,-6605)">
        <g id="Artboard8" transform="matrix(0.535907,0,0,1.11455,-926.291,2126.86)">
            <rect x="5757.07" y="4017.93" width="2348.92" height="766.226" style="fill:none;"/>
            <clipPath id="_clip1">
                <rect x="5757.07" y="4017.93" width="2348.92" height="766.226"/>
            </clipPath>
            <g clip-path="url(#_clip1)">
                <g id="BACKGROUND">
                </g>
                <g id="OBJECTS">
                </g>
                <g id="Layer-1" serif:id="Layer 1" transform="matrix(1.09615,0,0,0.527061,5251.89,3799.83)">
                    <path d="M0,2000L3000,2000L3000,0L0,0L0,2000ZM1,0.999L2999,0.999L2999,1999L1,1999L1,0.999Z" style="fill-rule:nonzero;"/>
                    <g transform="matrix(0.832633,0,0,1.01606,491.271,259.351)">
                        <path d="M0,1334.95L2431.39,1334.95C2092.64,146.41 2371.86,0 1023.51,349.145C1023.51,349.117 625.241,278.424 625.241,278.424C548.438,264.791 472.127,304.777 439.633,375.678L0,1334.95Z" style="fill:rgb(227,238,253);fill-rule:nonzero;"/>
                    </g>
                    <g transform="matrix(0.800988,0,0,-1.20937,2524.7,1609.69)">
                        <path d="M0,10.941C-3.896,7.07 -2545.6,18.357 -2544.76,7.08C-2550.28,3.25 24.067,-7.416 0,10.941" style="fill:rgb(56,56,92);fill-rule:nonzero;"/>
                    </g>
                    <g transform="matrix(1.01141,0,0,1.01606,1223.89,684.058)">
                        <path d="M0,-249.23L-379.841,-249.23C-393.682,-249.23 -404.901,-238.012 -404.901,-224.174C-401.832,-1.479 -451.222,-74.774 -127.905,-62.549L-48.893,-3.126C-44.736,0 -38.794,-2.965 -38.794,-8.167L-38.794,-62.549C-17.271,-63.811 24.419,-54.163 25.06,-87.606C25.061,-87.605 25.061,-224.174 25.061,-224.174C25.061,-238.012 13.841,-249.23 0,-249.23" style="fill:rgb(164,196,255);fill-rule:nonzero;"/>
                    </g>
                    <g transform="matrix(-1.01141,0,0,1.01606,1908.12,-1061.8)">
                        <rect x="855.234" y="1507.64" width="178.592" height="23.495" style="fill:rgb(227,238,253);"/>
                    </g>
                    <g transform="matrix(-1.01141,0,0,1.01606,1908.12,-892.412)">
                        <rect x="855.234" y="1424.28" width="178.592" height="23.495" style="fill:rgb(227,238,253);"/>
                    </g>
                    <g transform="matrix(-1.01141,0,0,1.01606,2229.58,-977.103)">
                        <rect x="1014.15" y="1465.96" width="178.592" height="23.495" style="fill:rgb(227,238,253);"/>
                    </g>
                    <g transform="matrix(-1.01141,0,0,1.01606,2183.61,-1061.8)">
                        <rect x="1047.06" y="1507.64" width="67.33" height="23.495" style="fill:rgb(227,238,253);"/>
                    </g>
                    <g transform="matrix(-1.01141,0,0,1.01606,2342.11,-1061.8)">
                        <rect x="1125.41" y="1507.64" width="67.331" height="23.495" style="fill:rgb(227,238,253);"/>
                    </g>
                    <g transform="matrix(-1.01141,0,0,1.01606,1795.59,-977.103)">
                        <rect x="855.233" y="1465.96" width="67.331" height="23.495" style="fill:rgb(227,238,253);"/>
                    </g>
                    <g transform="matrix(-1.01141,0,0,1.01606,1954.09,-977.103)">
                        <rect x="933.589" y="1465.96" width="67.331" height="23.495" style="fill:rgb(227,238,253);"/>
                    </g>
                    <g transform="matrix(1.01141,0,0,1.01606,806.841,1113.46)">
                        <path d="M0,494.347C0,494.347 -187.981,496.54 -324.156,382.586C-324.156,382.586 -219.473,347.069 -105.296,395.906C-105.296,395.906 -282.626,313.994 -303.434,165.038C-303.434,165.038 -143.498,225.715 -85.85,302.67C-85.85,302.67 -161.338,218.315 -183.541,82.162C-183.541,82.162 -69.489,175.398 -48.845,203.516C-48.845,203.516 -62.167,74.763 -22.203,-2.193L0,494.347Z" style="fill:rgb(167,189,55);fill-rule:nonzero;"/>
                    </g>
                    <g transform="matrix(1.01141,0,0,1.01606,-2.495,-6.34655)">
                        <clipPath id="_clip2">
                            <path d="M751.359,1305.62C730.714,1277.51 616.664,1184.27 616.664,1184.27C634.382,1292.92 686.035,1368.59 706.177,1394.72C642.945,1322.61 496.77,1267.14 496.77,1267.14C517.577,1416.1 694.908,1498.01 694.908,1498.01C580.731,1449.18 476.048,1484.69 476.048,1484.69C612.223,1598.65 800.204,1596.45 800.204,1596.45L778.001,1099.91C738.037,1176.87 751.359,1305.62 751.359,1305.62Z" clip-rule="nonzero"/>
                        </clipPath>
                        <g clip-path="url(#_clip2)">
                            <g transform="matrix(1,0,0,1,825.06,1265.01)">
                                <path d="M0,279.018C-96.795,231.035 -245.717,77.333 -328.83,3.485C-330.504,2.888 -329.555,0 -327.749,0.785C-248.682,74.628 -85.722,228.97 0,279.018" style="fill:rgb(62,84,9);fill-rule:nonzero;"/>
                            </g>
                            <g transform="matrix(1,0,0,1,800.204,1183.03)">
                                <path d="M0,259.407C-0.354,259.407 -0.709,259.278 -0.989,259.019C-18.645,242.656 -52.953,203.338 -116.126,108.952C-154.077,49.647 -186.489,4.384 -184.3,0C-179.395,0.052 -153.997,49.539 -113.698,107.343C-65.267,184.463 -18.125,233.156 0,259.407" style="fill:rgb(62,84,9);fill-rule:nonzero;"/>
                            </g>
                            <g transform="matrix(1,0,0,1,823.785,1480.9)">
                                <path d="M0,93.743C-34.143,74.396 -346.379,8.376 -349.155,3.473C-345.69,0 -270.501,21.068 -185.921,39.947C-75.859,68.885 -6.906,80.316 0,93.743" style="fill:rgb(62,84,9);fill-rule:nonzero;"/>
                            </g>
                        </g>
                    </g>
                    <g transform="matrix(1.01141,0,0,1.01606,2205.95,1088.63)">
                        <path d="M0,524.605C0,524.605 240.596,452.343 301.762,365.88C301.762,365.88 159.392,366.935 84.516,394.35C84.516,394.35 236.377,320.541 266.96,215.099C266.96,215.099 148.846,243.569 100.335,289.963C100.335,289.963 196.303,168.225 195.248,84.112C195.248,84.112 63.424,158.162 56.042,207.718C56.042,207.718 47.982,27.414 11.068,0L0,524.605Z" style="fill:rgb(167,189,55);fill-rule:nonzero;"/>
                    </g>
                    <g transform="matrix(1.01141,0,0,1.01606,-2.495,-6.34655)">
                        <clipPath id="_clip3">
                            <path d="M2183.53,1602.28C2183.53,1602.28 2424.12,1530.02 2485.29,1443.55C2485.29,1443.55 2342.92,1444.61 2268.04,1472.02C2268.04,1472.02 2419.9,1398.21 2450.49,1292.77C2450.49,1292.77 2332.37,1321.24 2283.86,1367.64C2283.86,1367.64 2379.83,1245.9 2378.78,1161.79C2378.78,1161.79 2246.95,1235.84 2239.57,1285.39C2239.57,1285.39 2231.51,1105.09 2194.6,1077.67L2183.53,1602.28Z" clip-rule="nonzero"/>
                        </clipPath>
                        <g clip-path="url(#_clip3)">
                            <g transform="matrix(1,0,0,1,2117.72,1443.14)">
                                <path d="M0,127.104C33.57,92.701 356.721,1.462 368.964,0C366.148,5.118 43.723,94.412 0,127.104" style="fill:rgb(62,84,9);fill-rule:nonzero;"/>
                            </g>
                            <g transform="matrix(1,0,0,1,2171,1292.06)">
                                <path d="M0,172.025C22.777,141.493 253.721,12.542 280.753,0C279.62,5.172 50.073,129.969 0,172.025" style="fill:rgb(62,84,9);fill-rule:nonzero;"/>
                            </g>
                            <g transform="matrix(1,0,0,1,2177.88,1160.59)">
                                <path d="M0,239.254C55.87,198.637 198.774,1.572 201.725,0C191.96,27.096 24.615,235.972 0,239.254" style="fill:rgb(62,84,9);fill-rule:nonzero;"/>
                            </g>
                        </g>
                    </g>
                    <g transform="matrix(1.01141,0,0,1.01606,699.078,1871.27)">
                        <path d="M0,-71.252C1.54,-54.578 -6.502,-19.747 12.897,-10.468C26.029,0 1550.81,-10.51 1565.62,-6.89C1573.38,-6.898 1580.86,-9.932 1586.44,-15.356C1599.24,-25.62 1594.83,-50.19 1595.52,-64.321L0,-71.252Z" style="fill:rgb(115,155,253);fill-rule:nonzero;"/>
                    </g>
                    <g transform="matrix(1.01141,0,0,1.01606,2181.35,747.492)">
                        <path d="M0,868.962L-1336.57,868.962C-1364.53,868.962 -1387.2,846.293 -1387.2,818.329L-1387.2,50.632C-1387.2,22.669 -1364.53,0 -1336.57,0L0,0C27.964,0 50.633,22.669 50.633,50.633L50.633,818.329C50.633,846.293 27.964,868.962 0,868.962" style="fill:rgb(56,56,92);fill-rule:nonzero;"/>
                    </g>
                    <g transform="matrix(-1.01141,0,0,1.01606,3013.37,352.132)">
                        <rect x="839.409" y="450.019" width="1303.02" height="747.149" style="fill:rgb(164,196,255);"/>
                    </g>
                    <g transform="matrix(1.01141,0,0,1.01606,2285.7,1630.41)">
                        <path d="M0,197.978L-1538.87,197.978C-1562.81,197.978 -1576.11,170.288 -1561.15,151.604L-1439.73,0L-103.176,0L21.99,151.249C37.387,169.854 24.151,197.978 0,197.978" style="fill:rgb(164,196,255);fill-rule:nonzero;"/>
                    </g>
                    <g transform="matrix(1.01141,0,0,1.01606,829.533,1712.2)">
                        <path d="M0,-80.503L1336.56,-80.503L-64.473,0L0,-80.503Z" style="fill:rgb(115,155,253);fill-rule:nonzero;"/>
                    </g>
                    <g transform="matrix(1.01141,0,0,1.01606,-2.495,-6.34655)">
                        <g opacity="0.48">
                            <g transform="matrix(1,0,0,1,1163.71,1549.98)">
                                <path d="M0,-747.149L-324.3,-274.942L-324.3,0L-65.817,0L448.178,-747.149L0,-747.149Z" style="fill:rgb(115,155,253);fill-rule:nonzero;"/>
                            </g>
                        </g>
                    </g>
                    <g transform="matrix(1.01141,0,0,1.01606,-2.495,-6.34655)">
                        <g opacity="0.34">
                            <g transform="matrix(1,0,0,1,1845.48,1549.98)">
                                <path d="M0,-747.149L-497.713,0L-127.983,0L296.944,-638.941L296.944,-747.149L0,-747.149Z" style="fill:rgb(115,155,253);fill-rule:nonzero;"/>
                            </g>
                        </g>
                    </g>
                    <g transform="matrix(-1.0105,0.0431314,0.0429342,1.01514,862.632,1572.91)">
                        <path d="M-1317.8,-696.153L-64.061,-696.153L14.782,-27.983L-15.957,-751.466L-1317.8,-696.153Z" style="fill:rgb(115,155,253);fill-rule:nonzero;"/>
                    </g>
                    <g transform="matrix(-0.19564,0.996868,0.992311,0.196538,1594,1303.26)">
                        <path d="M201.596,-283.932L322.072,-283.932L234.492,160.286C234.492,160.286 170.071,176.994 114.659,157.02L201.596,-283.932Z" style="fill:rgb(15,41,51);fill-rule:nonzero;"/>
                    </g>
                    <g transform="matrix(1.01141,0,0,1.01606,1607.49,923.733)">
                        <path d="M0,-373.33C49.14,-327.241 58.28,-253.349 74.082,-189.965C87.553,-149.489 128.699,-122.291 135.795,-79.254C143.286,-33.813 96.258,10.102 60.591,30.253C9.366,55.603 -87.32,50.471 -145.92,50.182C-283.452,42.212 -386.642,-131.515 -312.112,-252.088C-291.697,-286.244 -275.918,-321.966 -256.71,-356.63C-230.269,-407.743 -192.443,-420.168 -137.735,-422.227C-81.197,-428.933 -34.328,-408.608 0,-373.33" style="fill:rgb(15,41,51);fill-rule:nonzero;"/>
                    </g>
                    <g transform="matrix(1.01141,0,0,1.01606,1966,1405.19)">
                        <path d="M0,-412.743C-12.021,-415.484 -337.027,-565.368 -337.755,-557.059C-337.757,-557.055 -550.906,-546.729 -550.906,-546.729C-555.762,-546.969 -567.06,-544.951 -566.843,-544.623C-572.634,-543.859 -862.184,-505.608 -862.184,-505.608L-851.996,-289.987L-654.521,-297.698L-745.003,42.549C-628.676,152.625 -268.455,69.806 -187.104,42.549L-251.167,-303.093L-108.575,-232.61L0,-412.743Z" style="fill:white;fill-rule:nonzero;"/>
                    </g>
                    <g transform="matrix(1.01141,0,0,1.01606,-2.495,-6.34655)">
                        <clipPath id="_clip4">
                            <path d="M1608.53,832.173C1608.53,832.176 1395.38,842.502 1395.38,842.502C1390.52,842.263 1379.22,844.279 1379.44,844.608C1373.65,845.373 1084.1,883.624 1084.1,883.624L1094.29,1099.24L1291.76,1091.53L1201.28,1431.78C1317.61,1541.86 1677.83,1459.04 1759.18,1431.78L1695.12,1086.14L1837.71,1156.62L1946.28,976.489C1934.59,973.822 1626.56,831.843 1609.28,831.839C1608.8,831.839 1608.55,831.948 1608.53,832.173Z" clip-rule="nonzero"/>
                        </clipPath>
                        <g clip-path="url(#_clip4)">
                            <g transform="matrix(-0.107565,0.994198,0.994198,0.107565,1584.76,1076.18)">
                                <path d="M207.221,-328.944C263.963,-156.461 247.833,13.19 147.843,169.503L207.221,195.272C321.185,-3.106 326.183,-114.989 278.944,-339.972L207.221,-328.944Z" style="fill:rgb(121,209,86);fill-rule:nonzero;"/>
                            </g>
                            <g transform="matrix(-0.130243,0.991482,0.991482,0.130243,1593.45,998.542)">
                                <path d="M178.782,-310.656C227.82,-106.413 225.486,-52.101 127.975,136.433L178.782,154.711C279.316,-37.73 308.134,-114.308 240.193,-312.78L178.782,-310.656Z" style="fill:rgb(121,209,86);fill-rule:nonzero;"/>
                            </g>
                            <g opacity="0.41">
                                <g transform="matrix(0.976776,-0.214262,-0.214262,-0.976776,1075.65,1059.32)">
                                    <path d="M5.849,26.115L258.503,26.115L198.349,-89.104L-8.49,-54.673L5.849,26.115Z" style="fill:rgb(121,209,86);fill-rule:nonzero;"/>
                                </g>
                            </g>
                            <g opacity="0.41">
                                <g transform="matrix(-0.202203,-0.979344,-0.979344,0.202203,1791.82,1165.76)">
                                    <path d="M97.531,78.605L188.84,78.605L30.451,-91.37L-20.506,-46.663L97.531,78.605Z" style="fill:rgb(121,209,86);fill-rule:nonzero;"/>
                                </g>
                            </g>
                        </g>
                    </g>
                    <g transform="matrix(1.01141,0,0,1.01606,-2.495,-6.34655)">
                        <g opacity="0.41">
                            <g transform="matrix(-0.665829,0.746105,0.746105,0.665829,1714.22,1343.21)">
                                <path d="M93.509,-482.774C93.509,-482.774 190.142,-331.574 184.406,-262.782C178.67,-193.99 93.509,53.639 93.509,53.639C164.331,11.295 407.245,-172.164 407.615,-323.737L93.509,-482.774Z" style="fill:rgb(121,209,86);fill-rule:nonzero;"/>
                            </g>
                        </g>
                    </g>
                    <g transform="matrix(1.01141,0,0,1.01606,1362.41,607.181)">
                        <path d="M0,54.434C29.734,-225.358 303.237,-44.495 183.696,152.416L204.974,261.178L98.83,279.792L92.151,196.735C40.148,187.466 0,127.312 0,54.434" style="fill:rgb(255,197,199);fill-rule:nonzero;"/>
                    </g>
                    <g transform="matrix(1.01141,0,0,1.01606,-2.495,-6.34655)">
                        <clipPath id="_clip5">
                            <path d="M1349.5,658.266C1349.5,731.144 1389.65,791.297 1441.65,800.566L1448.33,883.624L1554.48,865.009L1533.2,756.248C1608.56,632.109 1527.73,514.348 1450.23,514.367C1404.79,514.378 1360.49,554.864 1349.5,658.266Z" clip-rule="nonzero"/>
                        </clipPath>
                        <g clip-path="url(#_clip5)">
                            <g transform="matrix(1,0,0,1,1533.2,815.659)">
                                <path d="M0,-59.411C0,-59.411 -26.638,-23.321 -77.553,-16.411C-77.553,-16.411 -19.62,0 17.526,-19.002L0,-59.411" style="fill:rgb(254,138,139);fill-rule:nonzero;"/>
                            </g>
                            <g transform="matrix(1,0,0,1,1345.93,518.689)">
                                <path d="M0,167.154C43.999,150.171 115.638,142.58 122.626,67.786C122.626,67.786 147.477,128.227 215.86,139.576C284.243,150.925 215.86,139.576 215.86,139.576L145.491,1.616L74.142,0L-11.061,92.43L0,167.154Z" style="fill:rgb(254,138,139);fill-rule:nonzero;"/>
                            </g>
                        </g>
                    </g>
                    <g transform="matrix(1.01141,0,0,1.01606,1408.81,949.631)">
                        <path d="M0,-98.368C33.875,10.217 185.113,-13.154 210.916,-108.585L0,-98.368Z" style="fill:rgb(255,182,166);fill-rule:nonzero;"/>
                    </g>
                    <g transform="matrix(1.01141,0,0,1.01606,1095.86,888.936)">
                        <path d="M0,33.922L-373.165,-156.04L-410.898,-91.198L-108.498,157.276C-75.499,182.503 -33.441,189.962 7.269,187.758L0,33.922Z" style="fill:rgb(255,197,199);fill-rule:nonzero;"/>
                    </g>
                    <g transform="matrix(-0.996732,0.172489,0.171701,1.00131,1081.51,1095.47)">
                        <clipPath id="_clip6">
                            <path d="M340.962,-357.542L85.134,-61.339C56.897,-30.877 16.715,-16.385 -23.778,-11.646L-42.731,-164.483L292.77,-415.038L340.962,-357.542Z" clip-rule="nonzero"/>
                        </clipPath>
                        <g clip-path="url(#_clip6)">
                            <path d="M-43.861,-176.665C-43.861,-176.665 41.472,-33.761 44.05,-10.801L-43.861,6.408L-72.235,-166.296L-43.861,-176.665" style="fill:rgb(253,177,177);fill-rule:nonzero;"/>
                        </g>
                    </g>
                    <g transform="matrix(1.01141,0,0,1.01606,719.557,748.871)">
                        <path d="M0,-191.166L-111.466,-98.17L-247.496,-148.19C-257.045,-147.375 -228.028,-21.082 -228.83,-15.217C-227.211,-6.089 -218.5,0 -209.372,-1.617L13.646,-41.103C22.774,-42.719 28.864,-51.428 27.248,-60.555C24.389,-66.725 8.571,-190.799 0,-191.166" style="fill:rgb(121,209,86);fill-rule:nonzero;"/>
                    </g>
                    <g transform="matrix(1.01141,0,0,1.01606,719.557,644.608)">
                        <path d="M0,-88.551C-3.657,-91.546 -8.542,-92.996 -13.562,-92.108L-236.58,-52.621C-241.201,-51.803 -245.038,-49.163 -247.496,-45.575L-111.466,4.445L0,-88.551Z" style="fill:rgb(76,182,34);fill-rule:nonzero;"/>
                    </g>
                    <g transform="matrix(1.01141,0,0,1.01606,729.737,704.037)">
                        <path d="M0,31.625C0,31.625 -36.004,-51.971 -41.511,-54.044C-55.08,-59.154 -45.9,12.27 -45.9,12.27C-45.9,12.27 -154.944,31.09 -153.518,30.837C-152.091,30.584 -48.907,90.779 -48.907,90.779L0,31.625Z" style="fill:rgb(255,197,199);fill-rule:nonzero;"/>
                    </g>
                    <g transform="matrix(1.01141,0,0,1.01606,683.313,755.634)">
                        <clipPath id="_clip7">
                            <path d="M0,-38.512C0,-38.512 -105.99,-20.219 -107.613,-19.945C-105.977,-20.072 -3.006,39.998 -3.006,39.998L45.9,-19.157C45.9,-19.157 9.895,-102.752 4.389,-104.826C3.921,-105.002 3.479,-105.087 3.063,-105.088C-8.559,-105.095 0,-38.512 0,-38.512ZM-107.618,-19.944C-107.638,-19.941 -107.636,-19.941 -107.613,-19.945C-107.614,-19.945 -107.616,-19.944 -107.618,-19.944Z" clip-rule="nonzero"/>
                        </clipPath>
                        <g clip-path="url(#_clip7)">
                            <path d="M0,-38.512C0,-38.512 -43.844,-2.273 -82.489,0L-114.357,-18.751L0,-38.512" style="fill:rgb(253,177,177);fill-rule:nonzero;"/>
                        </g>
                    </g>
                    <g transform="matrix(1.01141,0,0,1.01606,1943.52,1043.83)">
                        <path d="M0,-20.218L388.961,-159.609L395.925,-83.773C346.79,-60.761 68.305,139.391 14.665,129.844C-16.782,132.748 -48.952,120.291 -77.445,108.268L0,-20.218Z" style="fill:rgb(255,197,199);fill-rule:nonzero;"/>
                    </g>
                    <g transform="matrix(-0.819103,-0.596042,-0.593317,0.822865,1804.8,1134.68)">
                        <clipPath id="_clip8">
                            <path d="M-46.762,-169.246L-59.415,-19.759C-89.543,-26.738 -122.904,-35.519 -146.667,-56.32C-195.709,-80.053 -303.829,-405.515 -330.123,-452.974L-279.996,-510.306L-46.762,-169.246Z" clip-rule="nonzero"/>
                        </clipPath>
                        <g clip-path="url(#_clip8)">
                            <path d="M-45.426,-185.027C-45.426,-185.027 -116.463,-85.9 -128.258,-34.739L-45.426,-5.358L-6.687,-140.219L-45.426,-185.027Z" style="fill:rgb(253,177,177);fill-rule:nonzero;"/>
                        </g>
                    </g>
                    <g transform="matrix(1.01141,0,0,1.01606,2556.28,775.937)">
                        <path d="M0,227.405L-198.396,227.405C-211.417,227.405 -221.973,216.85 -221.973,203.829L-221.973,23.576C-221.973,10.556 -211.417,0 -198.396,0L0,0C13.021,0 23.576,10.556 23.576,23.576L23.576,203.829C23.576,216.85 13.021,227.405 0,227.405" style="fill:rgb(121,209,86);fill-rule:nonzero;"/>
                    </g>
                    <g transform="matrix(1.01141,0,0,1.01606,2406.77,803.358)">
                        <path d="M0,162.625C32.98,169.918 55.605,136.681 76.647,117.657C93.905,99.562 128.247,76.334 123.563,47.215C123.293,34.006 118.579,21.081 109.213,11.608C94.482,-7.293 80.76,18.898 69.503,27.413C64.779,31.997 64.666,39.541 69.251,44.264L91.793,67.488C75.08,83.704 42.113,115.692 25.404,131.904L2.862,108.679C-1.722,103.957 -9.267,103.843 -13.99,108.427C-20.572,116.894 -46.673,131.643 -34.041,144.486C-25.298,154.475 -13.336,161.407 0,162.625" style="fill:rgb(76,182,34);fill-rule:nonzero;"/>
                    </g>
                    <g transform="matrix(-0.498287,0.884193,0.880151,0.500575,2414.06,877.602)">
                        <path d="M45.139,-67.935C45.139,-67.935 19.387,22.347 24.198,22.422C29.01,22.498 38.838,19.112 45.139,10.321C51.305,1.574 75.504,-38.19 84.563,-53.093L45.139,-67.935Z" style="fill:rgb(255,197,199);fill-rule:nonzero;"/>
                    </g>
                    <g transform="matrix(1.01141,0,0,1.01606,2331.77,975.719)">
                        <path d="M0,-49.338C0,-49.338 -18.383,-29.334 -14.994,0L0.006,-9.283L0,-49.338Z" style="fill:rgb(253,177,177);fill-rule:nonzero;"/>
                    </g>
                    <g transform="matrix(-0.846074,-0.556724,-0.554179,0.849959,1330.64,573.732)">
                        <path d="M-98.335,-131.624C-98.335,-131.624 -154.629,-43.515 -107.52,7.227L-98.335,-43.229C-98.335,-43.229 -104.12,16.612 -52.177,49.043C-17.572,-12.764 -4.373,-99.829 -98.335,-131.624" style="fill:rgb(15,41,51);fill-rule:nonzero;"/>
                    </g>
                    <g transform="matrix(1.01141,0,0,1.01606,1486.78,662.489)">
                        <path d="M0,-143.582C-10.157,-82.183 44.853,-27.824 89.315,0C133.445,-72.685 75.481,-135.869 0,-143.582" style="fill:rgb(15,41,51);fill-rule:nonzero;"/>
                    </g>
                    <g transform="matrix(1.01141,0,0,1.01606,1979.37,505.361)">
                        <path d="M0,43.538L213.578,-49.09L67.53,92.628L0,43.538Z" style="fill:rgb(164,196,255);fill-rule:nonzero;"/>
                    </g>
                    <g transform="matrix(1.01141,0,0,1.01606,2047.67,516.574)">
                        <path d="M0,81.592L37.114,141.719L146.048,-60.127L0,81.592Z" style="fill:white;fill-rule:nonzero;"/>
                    </g>
                    <g transform="matrix(1.01141,0,0,1.01606,2195.39,652.164)">
                        <path d="M0,-193.574L-102.224,-34.567L-33.077,0L0,-193.574Z" style="fill:rgb(164,196,255);fill-rule:nonzero;"/>
                    </g>
                    <g transform="matrix(1.01141,0,0,1.01606,2065.18,1512.02)">
                        <path d="M0,-802.922C-1.578,-802.901 -2.793,-804.493 -2.333,-806.011C-0.304,-813.142 0.624,-817.221 0.633,-817.261C1.276,-820.334 6.104,-819.255 5.363,-816.192C5.325,-816.023 4.403,-811.96 2.331,-804.684C2.028,-803.618 1.057,-802.922 0,-802.922M-7.001,-780.62C-12.774,-781.709 -5.813,-791.264 -5.678,-794.873C-4.781,-797.884 -0.061,-796.408 -1.05,-793.417C-3.029,-789.808 -2.726,-782.025 -7.001,-780.62M-15.005,-758.696C-20.921,-759.839 -13.481,-769.261 -13.167,-772.87C-12.131,-775.838 -7.486,-774.149 -8.609,-771.207C-10.748,-767.623 -10.789,-760.118 -15.005,-758.696M-23.895,-737.136C-29.952,-738.331 -22.049,-747.642 -21.584,-751.22C-20.43,-754.143 -15.854,-752.266 -17.098,-749.371C-19.433,-745.738 -19.624,-738.741 -23.895,-737.136M-33.637,-715.959C-39.827,-717.227 -31.513,-726.318 -30.862,-729.938C-29.587,-732.81 -25.098,-730.752 -26.455,-727.91C-28.949,-724.269 -29.412,-717.563 -33.637,-715.959M-44.219,-695.196C-50.556,-696.821 -41.752,-705.367 -40.982,-709.049C-39.602,-711.869 -35.188,-709.634 -36.659,-706.848C-39.251,-703.334 -40.032,-696.802 -44.219,-695.196M-55.641,-674.889C-62.119,-676.585 -52.851,-684.986 -51.937,-688.596C-50.434,-691.358 -46.124,-688.942 -47.709,-686.219C-50.411,-682.802 -51.49,-676.497 -55.641,-674.889M-67.91,-655.088C-74.535,-656.868 -64.793,-665.087 -63.729,-668.624C-62.112,-671.321 -57.908,-668.722 -59.605,-666.07C-62.423,-662.749 -63.791,-656.694 -67.91,-655.088M-81.036,-635.848C-82.938,-635.794 -84.18,-638.151 -83.006,-639.684C-80.07,-642.179 -77.5,-651.678 -72.997,-649.823C-71.89,-649.068 -71.604,-647.559 -72.359,-646.452C-75.327,-643.18 -76.951,-637.446 -81.036,-635.848M-95.029,-617.234C-96.978,-617.174 -98.21,-619.648 -96.932,-621.161C-93.853,-623.552 -90.88,-632.878 -86.466,-630.823C-85.395,-630.018 -85.179,-628.498 -85.982,-627.427C-89.041,-624.304 -90.967,-618.827 -95.029,-617.234M-109.894,-599.314C-111.894,-599.25 -113.11,-601.844 -111.721,-603.332C-108.539,-605.559 -105.11,-614.741 -100.803,-612.475C-99.771,-611.619 -99.629,-610.09 -100.484,-609.06C-103.663,-606.051 -105.854,-600.895 -109.894,-599.314M-125.636,-582.162C-127.69,-582.091 -128.888,-584.817 -127.38,-586.272C-124.071,-588.348 -120.208,-597.323 -116.016,-594.85C-115.028,-593.943 -114.963,-592.41 -115.868,-591.423C-119.146,-588.563 -121.612,-583.727 -125.636,-582.162M-142.247,-565.858C-144.36,-565.782 -145.531,-568.646 -143.9,-570.059C-140.485,-571.953 -136.158,-580.713 -132.103,-578.025C-131.164,-577.068 -131.179,-575.532 -132.135,-574.594C-135.52,-571.88 -138.238,-567.399 -142.247,-565.858M-159.716,-550.479C-161.891,-550.4 -163.028,-553.408 -161.269,-554.768C-157.77,-556.458 -152.958,-564.982 -149.057,-562.076C-145.753,-559.802 -157.612,-551.139 -159.716,-550.479M-178.018,-536.107C-180.259,-536.023 -181.354,-539.184 -179.462,-540.481C-175.871,-541.969 -170.589,-550.207 -166.858,-547.087C-163.868,-544.311 -175.704,-537.067 -178.018,-536.107M-197.116,-522.816C-199.427,-522.728 -200.469,-526.048 -198.444,-527.271C-194.756,-528.557 -189.026,-536.46 -185.481,-533.133C-182.772,-529.989 -194.644,-523.96 -197.116,-522.816M-216.962,-510.674C-219.346,-510.584 -220.327,-514.068 -218.167,-515.204C-214.398,-516.276 -208.225,-523.818 -204.882,-520.289C-202.497,-516.779 -214.323,-511.976 -216.962,-510.674M-237.495,-499.739C-239.956,-499.649 -240.865,-503.298 -238.571,-504.339C-234.742,-505.183 -228.135,-512.34 -225.007,-508.619C-222.989,-504.76 -234.686,-501.161 -237.495,-499.739M-258.646,-490.057C-267.091,-493.833 -251.838,-497.525 -249.009,-499.37C-246.168,-500.719 -244.107,-496.229 -246.99,-494.96C-250.847,-493.365 -254.646,-491.19 -258.646,-490.057M-280.336,-481.657C-282.955,-481.569 -283.693,-485.553 -281.145,-486.368C-277.377,-486.754 -269.577,-493.076 -267.168,-488.998C-266.006,-484.531 -277.155,-483.218 -280.336,-481.657M-302.484,-474.549C-305.186,-474.465 -305.822,-478.615 -303.156,-479.304C-299.361,-479.474 -291.22,-485.32 -289.05,-481.109C-288.162,-476.545 -299.22,-476.043 -302.484,-474.549M-325.006,-468.732C-327.791,-468.653 -328.318,-472.964 -325.543,-473.522C-321.75,-473.473 -313.272,-478.843 -311.354,-474.512C-310.739,-469.878 -321.677,-470.129 -325.006,-468.732M-347.816,-464.182C-350.684,-464.11 -351.099,-468.576 -348.224,-468.999C-344.443,-468.744 -335.677,-473.633 -333.999,-469.201C-333.854,-464.404 -344.314,-465.535 -347.816,-464.182M-370.85,-460.87C-372.063,-460.87 -373.11,-461.778 -373.255,-463.011C-373.05,-467.745 -363.099,-465.806 -359.654,-467.201C-356.54,-467.691 -355.844,-462.802 -358.963,-462.399C-362.867,-461.854 -366.868,-461.287 -370.85,-460.87M-394.019,-458.667C-397.018,-458.605 -397.242,-463.308 -394.222,-463.507L-385.688,-464.233C-383.632,-464.401 -380.344,-465.242 -380.009,-462.308C-379.812,-459.349 -383.212,-459.591 -385.275,-459.402C-385.552,-459.398 -393.737,-458.657 -394.019,-458.667M-417.2,-456.661C-420.197,-456.6 -420.424,-461.296 -417.41,-461.502C-413.7,-460.966 -404.376,-464.924 -403.19,-460.305C-403.57,-455.541 -413.606,-457.824 -417.2,-456.661M-440.381,-454.601C-443.373,-454.54 -443.607,-459.229 -440.596,-459.441C-436.883,-458.912 -427.563,-462.901 -426.373,-458.28C-426.74,-453.514 -436.787,-455.773 -440.381,-454.601M-463.556,-452.477C-466.544,-452.416 -466.784,-457.096 -463.776,-457.317C-460.06,-456.8 -450.768,-460.81 -449.55,-456.196C-449.907,-451.43 -459.963,-453.656 -463.556,-452.477M-486.725,-450.281C-489.707,-450.217 -489.955,-454.89 -486.953,-455.119C-483.235,-454.614 -473.958,-458.654 -472.723,-454.044C-473.063,-449.276 -483.135,-451.47 -486.725,-450.281M-509.89,-448C-512.865,-447.936 -513.124,-452.597 -510.129,-452.837C-506.409,-452.347 -497.14,-456.42 -495.892,-451.813C-496.217,-447.047 -506.302,-449.202 -509.89,-448M-533.045,-445.625C-536.014,-445.56 -536.282,-450.208 -533.296,-450.462C-529.574,-449.988 -520.316,-454.101 -519.053,-449.497C-519.361,-444.729 -529.462,-446.841 -533.045,-445.625M-556.191,-443.149C-559.153,-443.085 -559.433,-447.721 -556.452,-447.984C-552.734,-447.526 -543.469,-451.687 -542.204,-447.084C-542.492,-442.315 -552.611,-444.378 -556.191,-443.149M-579.326,-440.561C-580.542,-440.561 -581.591,-441.472 -581.732,-442.709C-581.505,-447.473 -571.549,-445.448 -568.027,-446.706C-564.904,-447.089 -564.354,-442.192 -567.487,-441.884C-571.434,-441.458 -575.377,-440.966 -579.326,-440.561M-602.448,-437.852C-605.395,-437.786 -605.697,-442.393 -602.734,-442.684C-599.011,-442.265 -589.795,-446.518 -588.477,-441.93C-588.72,-437.16 -598.876,-439.112 -602.448,-437.852M-625.557,-435.01C-628.493,-434.944 -628.81,-439.536 -625.856,-439.842C-622.127,-439.448 -612.954,-443.746 -611.594,-439.17C-611.81,-434.396 -621.989,-436.292 -625.557,-435.01M-648.648,-432.027C-649.846,-432.027 -650.888,-432.914 -651.049,-434.134C-650.906,-438.903 -640.913,-437.05 -637.412,-438.368C-634.304,-438.818 -633.661,-433.913 -636.791,-433.556C-640.745,-433.066 -644.692,-432.492 -648.648,-432.027M-671.72,-428.894C-672.911,-428.894 -673.95,-429.771 -674.119,-430.985C-674.008,-435.755 -664.001,-433.97 -660.511,-435.309C-657.4,-435.772 -656.731,-430.882 -659.857,-430.503C-663.813,-429.987 -667.762,-429.381 -671.72,-428.894M-694.771,-425.601C-695.955,-425.601 -696.991,-426.469 -697.168,-427.674C-697.092,-432.446 -687.071,-430.733 -683.588,-432.095C-680.484,-432.579 -679.778,-427.695 -682.903,-427.294C-686.86,-426.753 -690.81,-426.111 -694.771,-425.601M-717.798,-422.139C-718.974,-422.139 -720.007,-422.998 -720.191,-424.195C-720.15,-428.966 -710.118,-427.329 -706.646,-428.717C-703.542,-429.219 -702.804,-424.345 -705.924,-423.92C-709.885,-423.351 -713.835,-422.671 -717.798,-422.139M-740.797,-418.495C-741.965,-418.495 -742.995,-419.34 -743.188,-420.531C-743.186,-425.302 -733.14,-423.746 -729.678,-425.161C-726.579,-425.688 -725.802,-420.82 -728.919,-420.37C-732.881,-419.772 -736.832,-419.05 -740.797,-418.495M-763.766,-414.661C-766.633,-414.588 -767.048,-419.053 -764.173,-419.476C-760.434,-419.249 -751.441,-423.944 -749.89,-419.428C-749.909,-414.658 -760.239,-416.063 -763.766,-414.661M-786.702,-410.63C-787.853,-410.63 -788.874,-411.453 -789.085,-412.625C-789.167,-417.396 -779.092,-416.012 -775.656,-417.486C-772.568,-418.066 -771.706,-413.212 -774.815,-412.709C-778.781,-412.047 -782.731,-411.237 -786.702,-410.63M-809.6,-406.387C-812.437,-406.313 -812.893,-410.726 -810.05,-411.195C-806.309,-411.036 -797.397,-415.892 -795.768,-411.403C-795.496,-406.756 -806.208,-407.767 -809.6,-406.387M-832.456,-401.924C-835.28,-401.848 -835.755,-406.234 -832.929,-406.728C-829.187,-406.605 -820.318,-411.55 -818.65,-407.075C-818.332,-402.435 -829.075,-403.325 -832.456,-401.924M-855.266,-397.234C-858.075,-397.157 -858.57,-401.512 -855.764,-402.032C-852.023,-401.946 -843.197,-406.983 -841.489,-402.523C-841.125,-397.892 -851.896,-398.656 -855.266,-397.234M-878.025,-392.303C-880.817,-392.225 -881.335,-396.551 -878.549,-397.096C-874.804,-397.053 -866.047,-402.177 -864.279,-397.74C-863.866,-393.116 -874.667,-393.75 -878.025,-392.303M-900.728,-387.126C-903.504,-387.046 -904.044,-391.341 -901.278,-391.912C-897.537,-391.912 -888.826,-397.131 -887.017,-392.712C-886.554,-388.098 -897.382,-388.593 -900.728,-387.126M-923.368,-381.688C-926.127,-381.607 -926.688,-385.87 -923.945,-386.467C-920.202,-386.509 -911.563,-391.829 -909.696,-387.431C-909.179,-382.828 -920.036,-383.178 -923.368,-381.688M-946.003,-376.195C-948.77,-376.114 -949.322,-380.39 -946.57,-380.977L-935.249,-383.707C-932.208,-384.488 -931.036,-379.687 -934.11,-378.992L-945.432,-376.262C-945.624,-376.216 -945.815,-376.195 -946.003,-376.195M-968.616,-370.611C-971.362,-370.53 -971.942,-374.767 -969.215,-375.386C-965.418,-375.48 -956.854,-380.834 -954.962,-376.448C-954.423,-371.856 -965.237,-372.135 -968.616,-370.611M-991.101,-364.547C-993.805,-364.463 -994.437,-368.618 -991.769,-369.303C-988.334,-369.409 -979.511,-375.093 -977.538,-370.718C-976.715,-366.27 -988.169,-365.987 -991.101,-364.547M-1013.35,-357.654C-1015.99,-357.567 -1016.7,-361.595 -1014.12,-362.378C-1010.61,-362.679 -1002.07,-368.671 -999.943,-364.37C-998.947,-360.006 -1010.37,-359.18 -1013.35,-357.654M-1035.18,-349.567C-1037.74,-349.477 -1038.55,-353.327 -1036.1,-354.237C-1032.47,-354.777 -1024.66,-361.233 -1022.05,-357.052C-1020.66,-352.947 -1032.37,-351.083 -1035.18,-349.567M-1056.34,-339.869C-1064.63,-343.412 -1049.89,-347.741 -1046.88,-349.58C-1044.04,-350.929 -1041.98,-346.436 -1044.86,-345.17C-1048.86,-343.572 -1052.45,-341.107 -1056.34,-339.869M-1076.39,-328.067C-1078.69,-327.98 -1079.74,-331.256 -1077.76,-332.501C-1074.34,-333.797 -1067.78,-341.597 -1064.45,-337.918C-1063.78,-336.762 -1064.16,-335.275 -1065.32,-334.598C-1069.24,-332.656 -1072.5,-329.455 -1076.39,-328.067M-1094.63,-313.639C-1096.74,-313.563 -1097.91,-316.422 -1096.29,-317.835C-1093.12,-319.683 -1087.71,-328.342 -1083.89,-325.138C-1083.06,-324.086 -1083.25,-322.561 -1084.3,-321.731C-1088.03,-319.367 -1090.72,-315.152 -1094.63,-313.639M-1108.79,-295.35C-1110.52,-295.315 -1111.76,-297.246 -1110.99,-298.802C-1109.07,-301.459 -1105.69,-311.841 -1101.09,-309.498C-1100.04,-308.662 -1099.87,-307.137 -1100.7,-306.089C-1104.31,-302.89 -1104.77,-296.894 -1108.79,-295.35M-1111.42,-272.676C-1116.18,-274.11 -1114.35,-282.971 -1114.44,-286.94C-1114.12,-290.063 -1109.21,-289.489 -1109.63,-286.366C-1111.29,-282.635 -1106.42,-273.283 -1111.42,-272.676M-1100.92,-252.13C-1105.16,-253.795 -1107.18,-259.843 -1109.48,-263.113C-1110.99,-265.869 -1106.62,-268.187 -1105.19,-265.38C-1104.71,-261.959 -1094.07,-253.958 -1100.92,-252.13M-1084.37,-235.819C-1088.48,-237.366 -1091.63,-241.657 -1094.78,-244.214C-1097.06,-246.376 -1093.62,-249.919 -1091.39,-247.69C-1089.8,-244.868 -1076.69,-238.365 -1084.37,-235.819M-1065.33,-222.423C-1068.17,-223.82 -1079.55,-229.141 -1077.04,-232.64C-1073.5,-235.927 -1068,-228.226 -1064.05,-226.911C-1061.97,-225.722 -1062.99,-222.333 -1065.33,-222.423M-1045.1,-210.832C-1047.87,-212.261 -1059.52,-216.336 -1057.4,-220.111C-1054.17,-223.751 -1047.74,-216.362 -1043.95,-215.395C-1041.73,-214.3 -1042.68,-210.74 -1045.1,-210.832M-1024.28,-200.349C-1027.13,-201.798 -1038.81,-205.022 -1036.92,-208.967C-1033.89,-212.771 -1027.08,-205.738 -1023.25,-204.969C-1020.92,-203.963 -1021.79,-200.256 -1024.28,-200.349M-1002.96,-190.951C-1005.98,-192.477 -1017.42,-194.694 -1015.9,-198.919C-1013.32,-202.895 -1005.76,-196.188 -1002.04,-195.62C-999.602,-194.706 -1000.41,-190.86 -1002.96,-190.951M-981.222,-182.609C-984.304,-184.105 -995.699,-185.61 -994.407,-189.943C-992.024,-194.04 -984.147,-187.712 -980.407,-187.319C-977.87,-186.499 -978.602,-182.519 -981.222,-182.609M-959.123,-175.284C-962.369,-176.816 -973.421,-177.457 -972.516,-182.008C-970.32,-186.211 -962.167,-180.255 -958.412,-180.029C-955.784,-179.303 -956.44,-175.198 -959.123,-175.284M-936.732,-168.93C-940.078,-170.413 -950.995,-170.469 -950.296,-175.075C-948.285,-179.368 -939.927,-173.788 -936.12,-173.702C-933.409,-173.071 -933.989,-168.847 -936.732,-168.93M-914.104,-163.489C-917.475,-164.897 -928.313,-164.445 -927.805,-169.09C-925.97,-173.464 -917.37,-168.215 -913.584,-168.284C-910.8,-167.744 -911.304,-163.41 -914.104,-163.489M-891.29,-158.904C-894.676,-160.231 -905.433,-159.323 -905.099,-163.996C-903.436,-168.44 -894.608,-163.506 -890.858,-163.715C-888.006,-163.264 -888.436,-158.829 -891.29,-158.904M-461.657,-156.469C-464.777,-156.421 -464.818,-161.324 -461.689,-161.319C-457.999,-160.523 -448.378,-163.703 -447.591,-158.989C-448.351,-154.296 -457.968,-157.391 -461.657,-156.469M-426.732,-156.283C-430.302,-157.257 -440.074,-154.247 -440.798,-158.954C-439.987,-163.666 -430.231,-160.382 -426.671,-161.132C-423.564,-161.099 -423.629,-156.232 -426.732,-156.283M-484.935,-155.909C-488.02,-155.857 -488.114,-160.705 -485.015,-160.757C-481.344,-160.03 -471.771,-163.428 -470.872,-158.733C-471.532,-154.012 -481.296,-156.903 -484.935,-155.909M-403.471,-155.297C-407.003,-156.385 -416.935,-153.681 -417.522,-158.411C-416.55,-163.097 -406.894,-159.511 -403.329,-160.142C-400.273,-160.015 -400.422,-155.238 -403.471,-155.297M-868.331,-155.109C-871.928,-156.431 -882.189,-154.935 -882.223,-159.73C-880.707,-164.227 -871.782,-159.613 -867.977,-159.932C-865.068,-159.566 -865.425,-155.038 -868.331,-155.109M-508.197,-154.938C-511.258,-154.882 -511.39,-159.687 -508.314,-159.784C-504.627,-159.11 -495.127,-162.678 -494.143,-157.996C-494.725,-153.262 -504.571,-155.982 -508.197,-154.938M-531.445,-153.665C-534.489,-153.608 -534.647,-158.383 -531.588,-158.51C-527.909,-157.87 -518.404,-161.557 -517.4,-156.891C-517.92,-152.146 -527.832,-154.741 -531.445,-153.665M-380.261,-153.474C-383.761,-154.692 -393.848,-152.363 -394.278,-157.111C-393.154,-161.764 -383.59,-157.824 -380.025,-158.313C-377.033,-158.077 -377.276,-153.412 -380.261,-153.474M-554.681,-152.206C-557.714,-152.148 -557.888,-156.907 -554.836,-157.05C-551.152,-156.43 -541.693,-160.184 -540.643,-155.531C-541.127,-150.779 -551.075,-153.298 -554.681,-152.206M-845.263,-152.043C-848.826,-153.275 -859.04,-151.436 -859.216,-156.232C-857.845,-160.778 -848.71,-156.434 -844.982,-156.877C-842.021,-156.59 -842.308,-151.976 -845.263,-152.043M-357.146,-150.694C-360.693,-152.05 -370.851,-150.173 -371.099,-154.925C-369.793,-159.535 -360.466,-155.202 -356.806,-155.521C-353.887,-155.169 -354.232,-150.624 -357.146,-150.694M-577.91,-150.67C-580.942,-150.612 -581.117,-155.368 -578.068,-155.514L-566.455,-156.285C-565.117,-156.381 -563.963,-155.363 -563.874,-154.026C-563.785,-152.69 -564.796,-151.535 -566.132,-151.446C-566.294,-151.44 -577.761,-150.663 -577.91,-150.67M-822.113,-149.641C-825.701,-150.792 -835.802,-148.648 -836.113,-153.435C-834.865,-158.02 -825.619,-153.938 -821.899,-154.481C-818.892,-154.269 -819.116,-149.579 -822.113,-149.641M-601.14,-149.168C-602.41,-149.168 -603.478,-150.156 -603.558,-151.441C-603.084,-156.18 -593.271,-153.654 -589.679,-154.753C-586.556,-155.02 -586.213,-150.064 -589.365,-149.912C-593.295,-149.662 -597.22,-149.398 -601.14,-149.168M-798.905,-147.839C-802.51,-148.916 -812.507,-146.504 -812.937,-151.28C-811.816,-155.897 -802.449,-152.051 -798.75,-152.685C-795.704,-152.542 -795.868,-147.782 -798.905,-147.839M-624.377,-147.816C-627.431,-147.76 -627.574,-152.553 -624.504,-152.663C-620.822,-151.989 -611.378,-155.683 -610.333,-151.032C-610.838,-146.277 -620.78,-148.858 -624.377,-147.816M-334.19,-146.831C-337.567,-148.253 -348.21,-147.098 -348.04,-151.732C-346.508,-156.272 -337.388,-151.505 -333.73,-151.637C-330.898,-151.157 -331.354,-146.755 -334.19,-146.831M-647.629,-146.736C-650.706,-146.683 -650.813,-151.516 -647.721,-151.583C-643.909,-150.817 -634.834,-154.489 -633.576,-149.771C-634.132,-145.019 -644.029,-147.726 -647.629,-146.736M-775.658,-146.579C-779.28,-147.584 -789.17,-144.936 -789.71,-149.699C-788.676,-154.34 -779.245,-150.715 -775.555,-151.427C-772.474,-151.345 -772.584,-146.524 -775.658,-146.579M-670.895,-146.024C-673.995,-145.974 -674.066,-150.846 -670.953,-150.873C-667.386,-150.133 -657.527,-153.455 -656.833,-148.834C-657.268,-144.181 -667.375,-146.922 -670.895,-146.024M-752.384,-145.798C-756.015,-146.736 -765.817,-143.89 -766.449,-148.636C-765.522,-153.298 -755.996,-149.866 -752.327,-150.649C-749.218,-150.623 -749.277,-145.748 -752.384,-145.798M-694.173,-145.574C-697.292,-145.525 -697.334,-150.428 -694.205,-150.422C-690.526,-149.608 -680.997,-152.922 -680.107,-148.24C-680.784,-143.513 -690.536,-146.477 -694.173,-145.574M-729.093,-145.443C-732.987,-145.468 -736.882,-145.512 -740.778,-145.572C-742.118,-145.592 -743.187,-146.694 -743.166,-148.033C-742.314,-152.711 -732.732,-149.45 -729.078,-150.293C-725.943,-150.318 -725.957,-145.395 -729.093,-145.443M-717.452,-145.404C-718.791,-145.403 -719.877,-146.488 -719.877,-147.827C-719.117,-152.523 -709.464,-149.405 -705.83,-150.3C-702.687,-150.37 -702.644,-145.427 -705.793,-145.451C-709.676,-145.422 -713.562,-145.406 -717.452,-145.404M-311.472,-141.769C-314.776,-143.303 -325.58,-142.816 -325.166,-147.409C-323.405,-151.867 -314.521,-146.615 -310.88,-146.546C-308.152,-145.933 -308.717,-141.686 -311.472,-141.769M-289.085,-135.408C-292.243,-136.974 -303.416,-137.448 -302.565,-141.843C-300.288,-146.206 -292.157,-140.435 -288.352,-140.146C-285.743,-139.399 -286.416,-135.321 -289.085,-135.408M-267.138,-127.661C-269.395,-128.116 -272.334,-129.617 -274.574,-130.315C-276.708,-131.367 -281.304,-131.545 -280.335,-134.947C-278.306,-138.903 -272.427,-133.993 -269.329,-133.539C-265.737,-132.908 -261.988,-129.162 -267.138,-127.661M-245.968,-117.997C-248.565,-119.409 -260.625,-122.995 -258.633,-126.535C-255.719,-130.532 -248.456,-123.503 -244.842,-122.572C-242.603,-121.496 -243.533,-117.904 -245.968,-117.997M-226.007,-106.042C-229.918,-107.447 -233.202,-110.727 -237.053,-112.661C-238.201,-113.349 -238.575,-114.838 -237.889,-115.988C-234.535,-119.635 -228.114,-111.834 -224.634,-110.467C-222.662,-109.217 -223.719,-105.952 -226.007,-106.042M-207.728,-91.652C-211.651,-93.166 -214.439,-97.339 -218.121,-99.673C-219.174,-100.503 -219.356,-102.027 -218.528,-103.079C-214.737,-106.282 -209.358,-97.708 -206.098,-95.875C-204.439,-94.475 -205.597,-91.573 -207.728,-91.652M-191.69,-74.814C-195.662,-76.383 -197.732,-81.542 -201.149,-84.286C-202.073,-85.257 -202.036,-86.792 -201.066,-87.714C-196.852,-90.348 -192.771,-81.093 -189.813,-78.773C-188.5,-77.268 -189.724,-74.751 -191.69,-74.814M-179.193,-55.276C-183.203,-56.689 -183.426,-63.068 -186.759,-66.58C-188.529,-69.177 -184.405,-71.905 -182.71,-69.253C-181.036,-65.457 -172.979,-56.956 -179.193,-55.276M-177.685,-32.67C-182.907,-33.765 -177.59,-40.37 -178.611,-43.96C-179.796,-48.139 -175.571,-51.377 -173.879,-46.686C-174.02,-42.412 -172.942,-34.355 -177.685,-32.67M-192.273,-15.131C-200.068,-17.779 -186.558,-23.796 -185.416,-26.815C-183.385,-29.214 -179.656,-25.973 -181.759,-23.63C-184.539,-20.848 -187.981,-16.666 -192.273,-15.131M-212.975,-4.594C-215.562,-4.505 -216.337,-8.422 -213.84,-9.285C-209.61,-9.875 -202.913,-16.491 -200.129,-12.748C-198.51,-8.356 -209.529,-6.157 -212.975,-4.594M-235.247,2.238C-238.004,2.318 -238.569,-1.942 -235.828,-2.542C-231.738,-2.615 -223.808,-8.182 -221.686,-3.975C-220.875,0.645 -231.716,0.793 -235.247,2.238M-258.075,6.945C-260.942,7.017 -261.357,2.551 -258.479,2.129C-254.518,2.36 -245.956,-2.524 -244.238,1.887C-244.078,6.69 -254.409,5.576 -258.075,6.945M-281.149,10.258C-282.36,10.258 -283.407,9.353 -283.555,8.12C-283.363,3.378 -273.273,5.298 -269.932,3.921C-266.821,3.433 -266.123,8.323 -269.244,8.722C-273.085,9.255 -277.106,9.829 -281.149,10.258M-304.347,12.562C-305.597,12.562 -306.658,11.602 -306.761,10.333C-306.388,5.597 -296.394,7.909 -292.963,6.681C-289.842,6.33 -289.347,11.244 -292.486,11.508C-296.34,11.881 -300.339,12.263 -304.347,12.562M-327.61,14.077C-330.668,14.132 -330.804,9.33 -327.73,9.23C-323.907,9.917 -314.615,6.193 -313.549,10.825C-314.027,15.591 -323.885,13.052 -327.61,14.077M-409.14,14.518C-412.225,13.967 -416.906,15.588 -417.188,11.655C-416.428,7.833 -412.143,9.953 -409.034,9.669C-405.954,9.754 -406.068,14.572 -409.14,14.518M-350.911,14.935C-352.223,14.935 -353.303,13.888 -353.334,12.569C-352.686,7.86 -342.934,10.741 -339.346,9.732C-336.218,9.597 -336.013,14.501 -339.168,14.579C-343.045,14.721 -346.996,14.844 -350.911,14.935M-385.864,15.143C-389.649,14.254 -399.261,17.17 -399.93,12.435C-399.031,7.773 -389.657,11.118 -385.835,10.293C-382.71,10.285 -382.737,15.192 -385.864,15.143M-374.184,15.214L-374.224,10.366C-370.483,11.238 -360.985,8.008 -360.144,12.689C-360.857,17.412 -370.509,14.37 -374.184,15.214" style="fill:white;fill-rule:nonzero;"/>
                    </g>
                    <g transform="matrix(1.01141,0,0,1.01606,950.946,1400.95)">
                        <path d="M0,0C-3.187,186.538 -280.705,186.509 -283.864,-0.006C-280.678,-186.538 -3.159,-186.51 0,0" style="fill:white;fill-rule:nonzero;"/>
                    </g>
                    <g transform="matrix(1.01141,0,0,1.01606,802.286,1335.19)">
                        <path d="M0,40.377L-24.269,12.949C-30.389,6.031 -40.959,5.385 -47.878,11.505L-61.147,23.241C-68.066,29.361 -68.712,39.93 -62.592,46.847L-4.42,112.592C8.396,125.733 20.46,113.497 30.398,104.12C30.399,104.121 44.986,91.219 44.986,91.219L187.31,-34.67C194.228,-40.789 194.875,-51.357 188.754,-58.275C179.654,-68.711 168.545,-85.356 153.405,-72.986C153.406,-72.987 23.609,41.821 23.609,41.821C16.69,47.94 6.121,47.294 0,40.377" style="fill:rgb(121,209,86);fill-rule:nonzero;"/>
                    </g>
                    <g transform="matrix(1.01141,0,0,1.01606,1832.7,395.246)">
                        <path d="M0,59.284L-24.638,59.284L-24.638,12.317C-24.638,5.514 -19.122,0 -12.319,0C-5.516,0 0,5.514 0,12.317L0,59.284Z" style="fill:rgb(115,155,253);fill-rule:nonzero;"/>
                    </g>
                    <g transform="matrix(1.01141,0,0,1.01606,1851.71,605.526)">
                        <path d="M0,0C-0.698,40.887 -61.526,40.88 -62.219,-0.001C-61.521,-40.887 -0.692,-40.88 0,0" style="fill:rgb(56,117,255);fill-rule:nonzero;"/>
                    </g>
                    <g transform="matrix(1.01141,0,0,1.01606,1889.72,466.891)">
                        <path d="M0,105.34C0.819,48.919 10.02,-27.407 -68.174,-30.986C-146.401,-27.406 -137.155,48.989 -136.349,105.34C-155.31,105.236 -153.342,122.792 -153.099,136.326L16.751,136.326C16.997,122.769 18.951,105.237 0,105.34" style="fill:rgb(164,196,255);fill-rule:nonzero;"/>
                    </g>
                    <g transform="matrix(1.01141,0,0,1.01606,-2.495,-6.34655)">
                        <g opacity="0.48">
                            <g transform="matrix(1,0,0,1,1734.52,502.936)">
                                <path d="M0,68.163L103.908,68.163C103.908,68.163 18.438,47.352 0,0L0,68.163Z" style="fill:rgb(115,155,253);fill-rule:nonzero;"/>
                            </g>
                        </g>
                    </g>
                    <g transform="matrix(1.01141,0,0,1.01606,1952.21,571.685)">
                        <path d="M0,0C-0.865,50.694 -76.285,50.686 -77.144,-0.002C-76.277,-50.694 -0.858,-50.687 0,0" style="fill:rgb(56,117,255);fill-rule:nonzero;"/>
                    </g>
                    <g transform="matrix(1.01141,0,0,1.01606,1900.48,602.028)">
                        <path d="M0,-55.273L18.928,-58.613L23.256,-20.559L9.13,-18.066L0,-55.273ZM12.453,-11.992C17.417,-19.553 29.213,-11.335 23.912,-4.084C18.896,3.34 7.142,-4.622 12.453,-11.992" style="fill:white;fill-rule:nonzero;"/>
                    </g>
                    <g transform="matrix(1.01141,0,0,1.01606,2016.04,1301.34)">
                        <path d="M0,145.104C-89.652,142.405 -89.629,12.168 0.001,9.483C89.651,12.182 89.628,142.419 0,145.104M94.212,92.56L116.438,92.56L116.438,52.544L92.184,52.544C89.336,41.905 84.54,31.632 78.225,22.635L96.483,4.379L68.184,-23.916L48.91,-4.645C40.028,-9.961 30.121,-13.867 20.011,-16.016L20.011,-43.866L-20.011,-43.866L-20.011,-16.016C-30.121,-13.867 -40.028,-9.961 -48.911,-4.645L-68.184,-23.916L-96.483,4.379L-78.226,22.635C-84.54,31.632 -89.336,41.905 -92.185,52.544L-116.438,52.544L-116.438,92.56L-94.212,92.56C-92.331,104.355 -88.103,115.926 -81.953,126.196L-96.483,140.724L-68.184,169.02L-54.668,155.505C-44.343,162.753 -32.358,167.981 -20.011,170.604L-20.011,188.97L20.011,188.97L20.011,170.604C32.357,167.981 44.342,162.753 54.667,155.505L68.184,169.02L96.483,140.724L81.953,126.196C88.103,115.926 92.33,104.356 94.212,92.56" style="fill:rgb(227,238,253);fill-rule:nonzero;"/>
                    </g>
                    <g transform="matrix(1.01141,0,0,1.01606,1860.95,1284.83)">
                        <path d="M0,51.467C-31.619,50.96 -31.613,3.864 0.001,3.363C31.619,3.869 31.613,50.965 0,51.467M33.416,32.829L41.3,32.829L41.3,18.637L32.697,18.637C31.687,14.863 29.985,11.219 27.746,8.028L34.222,1.553L24.185,-8.483L17.349,-1.648C14.197,-3.534 10.684,-4.92 7.098,-5.681L7.098,-15.559L-7.098,-15.559L-7.098,-5.681C-10.684,-4.92 -14.198,-3.534 -17.349,-1.648L-24.185,-8.483L-34.223,1.553L-27.746,8.028C-29.985,11.219 -31.687,14.863 -32.697,18.637L-41.3,18.637L-41.3,32.829L-33.417,32.829C-32.749,37.014 -31.249,41.117 -29.068,44.76L-34.223,49.913L-24.185,59.949L-19.391,55.156C-15.728,57.727 -11.478,59.581 -7.098,60.511L-7.098,67.026L7.098,67.026L7.098,60.511C11.478,59.581 15.728,57.727 19.391,55.156L24.185,59.949L34.222,49.913L29.068,44.76C31.249,41.117 32.749,37.014 33.416,32.829" style="fill:rgb(227,238,253);fill-rule:nonzero;"/>
                    </g>
                    <g transform="matrix(-0.890097,-0.482499,-0.480293,0.894185,707.999,1045.38)">
                        <path d="M41.251,105.554L61.353,105.554L26.661,-10.419L6.559,-10.419L41.251,105.554Z" style="fill:white;fill-rule:nonzero;"/>
                    </g>
                    <g transform="matrix(1.01141,0,0,1.01606,619.903,1028.21)">
                        <path d="M0,21.296C-13.894,13.858 -2.677,-7.313 11.282,0.001C25.175,7.439 13.958,28.609 0,21.296M16.921,-10.646C-11.328,-24.995 -33.382,16.645 -5.64,31.943C22.609,46.291 44.663,4.651 16.921,-10.646" style="fill:white;fill-rule:nonzero;"/>
                    </g>
                    <g transform="matrix(1.01141,0,0,1.01606,677.456,1095.81)">
                        <path d="M0,21.296C-13.894,13.858 -2.677,-7.313 11.281,0.001C25.174,7.439 13.958,28.609 0,21.296M16.921,-10.646C-11.329,-24.995 -33.382,16.645 -5.64,31.943C22.609,46.291 44.663,4.651 16.921,-10.646" style="fill:white;fill-rule:nonzero;"/>
                    </g>
                    <g transform="matrix(0.74186,-0.690615,-0.687458,-0.745267,1681.11,1583.22)">
                        <path d="M-129.361,-50.723C-375.168,198.856 -394.087,77.569 -170.653,328.349C-159.685,340.186 -141.199,340.889 -129.361,329.92C116.445,80.341 135.363,201.629 -88.069,-49.151C-99.038,-60.989 -117.524,-61.692 -129.361,-50.723" style="fill:white;fill-rule:nonzero;"/>
                    </g>
                    <g transform="matrix(0.689143,-0.743695,-0.740295,-0.692308,1539.66,1562.77)">
                        <path d="M-58.005,-25.251C-153.356,86.571 -174.003,51.654 -84.02,134.176C-76.579,141.105 -64.932,140.687 -58.005,133.245C37.347,21.423 57.994,56.341 -31.99,-26.182C-39.43,-33.111 -51.077,-32.692 -58.005,-25.251" style="fill:rgb(121,209,86);fill-rule:nonzero;"/>
                    </g>
                    <g transform="matrix(-0.98557,-0.228214,-0.227171,0.990096,1555.31,1528.32)">
                        <path d="M-55.839,63.567L-5.957,63.567L4.959,16.209L-40.135,-4.566L-55.839,63.567Z" style="fill:rgb(121,209,86);fill-rule:nonzero;"/>
                    </g>
                </g>
            </g>
        </g>
    </g>
</svg>
