<?xml version="1.0" encoding="UTF-8" standalone="no"?>
<!DOCTYPE svg PUBLIC "-//W3C//DTD SVG 1.1//EN" "http://www.w3.org/Graphics/SVG/1.1/DTD/svg11.dtd">
<svg width="100%" height="100%" viewBox="0 0 529 501" version="1.1" xmlns="http://www.w3.org/2000/svg" xmlns:xlink="http://www.w3.org/1999/xlink" xml:space="preserve" xmlns:serif="http://www.serif.com/" style="fill-rule:evenodd;clip-rule:evenodd;stroke-linejoin:round;stroke-miterlimit:2;">
    <g transform="matrix(1,0,0,1,-1921,-7240)">
        <g id="Artboard12" transform="matrix(0.379176,0,0,0.379176,1880.92,4551.04)">
            <rect x="107.358" y="7093.11" width="1391.91" height="1318.65" style="fill:none;"/>
            <g transform="matrix(2.54557,0,0,2.44066,-117.238,-10120.6)">
                <path d="M627.861,7138.18C627.861,7092.83 592.562,7056.02 549.085,7056.02L167.457,7056.02C123.979,7056.02 88.68,7092.83 88.68,7138.18L88.68,7508.35C88.68,7553.69 123.979,7590.51 167.457,7590.51L549.085,7590.51C592.562,7590.51 627.861,7553.69 627.861,7508.35L627.861,7138.18Z" style="fill:none;"/>
            </g>
            <g transform="matrix(1.94562,0,0,1.94562,269.913,7255.67)">
                <path d="M351.332,153.66L351.332,65.207C351.332,29.254 322.078,0 286.121,0L65.203,0C29.25,0 -0,29.254 -0,65.207L-0,212.922C-0,243.719 21.457,269.594 50.203,276.391L50.203,313.34C50.203,319.406 53.859,324.875 59.465,327.199C61.32,327.969 63.27,328.34 65.203,328.34C69.105,328.34 72.941,326.816 75.812,323.945L121.625,278.133L130.672,278.133L130.672,248.867C130.672,196.367 173.379,153.66 225.875,153.66L351.332,153.66Z" style="fill:rgb(4,16,72);fill-rule:nonzero;"/>
            </g>
            <g transform="matrix(1.94562,0,0,1.94562,269.913,7255.67)">
                <path d="M446.793,183.66L225.875,183.66C189.922,183.66 160.672,212.91 160.672,248.867L160.672,396.582C160.672,432.539 189.922,461.789 225.875,461.789L390.371,461.789L436.184,507.605C439.055,510.477 442.891,512 446.797,512C448.727,512 450.676,511.629 452.531,510.859C458.137,508.535 461.793,503.066 461.793,497L461.793,460.051C490.543,453.258 512,427.379 512,396.582L512,248.867C512,212.91 482.746,183.66 446.793,183.66ZM400.195,297.828L329.188,368.836C326.258,371.766 322.418,373.227 318.582,373.227C314.742,373.227 310.902,371.766 307.977,368.836L272.469,333.332C266.609,327.477 266.609,317.977 272.469,312.117C278.324,306.262 287.824,306.262 293.68,312.117L318.582,337.016L378.98,276.613C384.84,270.758 394.336,270.758 400.195,276.613C406.055,282.473 406.055,291.973 400.195,297.828Z" style="fill:rgb(79,171,43);fill-rule:nonzero;"/>
            </g>
        </g>
    </g>
</svg>
