<?xml version="1.0" encoding="UTF-8" standalone="no"?>
<!DOCTYPE svg PUBLIC "-//W3C//DTD SVG 1.1//EN" "http://www.w3.org/Graphics/SVG/1.1/DTD/svg11.dtd">
<svg width="100%" height="100%" viewBox="0 0 529 501" version="1.1" xmlns="http://www.w3.org/2000/svg" xmlns:xlink="http://www.w3.org/1999/xlink" xml:space="preserve" xmlns:serif="http://www.serif.com/" style="fill-rule:evenodd;clip-rule:evenodd;stroke-linejoin:round;stroke-miterlimit:2;">
    <g transform="matrix(1,0,0,1,-1307,-7211)">
        <g id="Artboard12" transform="matrix(0.379176,0,0,0.379176,1266.99,4521.52)">
            <rect x="107.358" y="7093.11" width="1391.91" height="1318.65" style="fill:none;"/>
            <g transform="matrix(2.54557,0,0,2.44066,-117.238,-10120.6)">
                <path d="M627.861,7138.18C627.861,7092.83 592.562,7056.02 549.085,7056.02L167.457,7056.02C123.979,7056.02 88.68,7092.83 88.68,7138.18L88.68,7508.35C88.68,7553.69 123.979,7590.51 167.457,7590.51L549.085,7590.51C592.562,7590.51 627.861,7553.69 627.861,7508.35L627.861,7138.18Z" style="fill:rgb(156,202,220);"/>
            </g>
            <g transform="matrix(1.97655,0,0,1.97655,298.522,7233.23)">
                <path d="M467.069,212.578L267.381,12.861C255.604,1.113 236.553,1.252 224.93,12.846C213.241,24.565 213.241,43.593 224.93,55.297L424.647,255C436.347,266.7 455.368,266.7 467.069,255C478.801,243.268 478.801,224.308 467.069,212.578Z" style="fill:rgb(79,171,43);fill-rule:nonzero;"/>
            </g>
            <g transform="matrix(1.97655,0,0,1.97655,298.522,7233.23)">
                <path d="M210.115,82.905L208.612,90.439C198.025,143.397 172.295,193.708 137.494,234.485L246.141,343.132C286.913,308.338 336.531,281.917 389.491,271.317L397.039,269.814L210.115,82.905Z" style="fill:rgb(4,16,72);fill-rule:nonzero;"/>
            </g>
            <g transform="matrix(1.97655,0,0,1.97655,298.522,7233.23)">
                <path d="M117.575,256.989L43.322,331.227C25.777,348.772 25.704,377.256 43.322,394.874L85.744,437.296C103.289,454.841 131.773,454.913 149.391,437.296L223.637,363.05L117.575,256.989ZM128.181,373.664C122.322,379.523 112.829,379.523 106.97,373.664C101.111,367.805 101.111,358.312 106.97,352.453L128.181,331.242C134.04,325.383 143.533,325.383 149.392,331.242C155.251,337.101 155.251,346.594 149.392,352.453L128.181,373.664Z" style="fill:rgb(4,16,72);fill-rule:nonzero;"/>
            </g>
            <g transform="matrix(1.97655,0,0,1.97655,298.522,7233.23)">
                <path d="M286.266,445.278L306.671,424.873C324.29,407.257 324.232,378.773 306.672,361.242L291.516,346.075C283.139,351.702 275.139,357.816 267.361,364.34L285.461,382.467C291.306,388.282 291.347,397.746 285.461,403.663L264.719,424.405L234.237,394.872L191.813,437.296L259.87,503.243C271.484,514.887 290.553,514.953 302.277,503.228C313.981,491.524 313.981,472.496 302.277,460.791L286.266,445.278Z" style="fill:rgb(79,171,43);fill-rule:nonzero;"/>
            </g>
        </g>
    </g>
</svg>
