<?xml version="1.0" encoding="UTF-8" standalone="no"?>
<!DOCTYPE svg PUBLIC "-//W3C//DTD SVG 1.1//EN" "http://www.w3.org/Graphics/SVG/1.1/DTD/svg11.dtd">
<svg width="100%" height="100%" viewBox="0 0 529 501" version="1.1" xmlns="http://www.w3.org/2000/svg" xmlns:xlink="http://www.w3.org/1999/xlink" xml:space="preserve" xmlns:serif="http://www.serif.com/" style="fill-rule:evenodd;clip-rule:evenodd;stroke-linejoin:round;stroke-miterlimit:2;">
    <g transform="matrix(1,0,0,1,-681,-7211)">
        <g id="Artboard12" transform="matrix(0.379176,0,0,0.379176,641.26,4521.52)">
            <rect x="107.358" y="7093.11" width="1391.91" height="1318.65" style="fill:none;"/>
            <g transform="matrix(2.54557,0,0,2.44066,-117.238,-10120.6)">
                <path d="M627.861,7138.18C627.861,7092.83 592.562,7056.02 549.085,7056.02L167.457,7056.02C123.979,7056.02 88.68,7092.83 88.68,7138.18L88.68,7508.35C88.68,7553.69 123.979,7590.51 167.457,7590.51L549.085,7590.51C592.562,7590.51 627.861,7553.69 627.861,7508.35L627.861,7138.18Z" style="fill:none;"/>
            </g>
            <g transform="matrix(2.42522,0,0,2.42522,-12211.9,-2995.18)">
                <path d="M5418.67,4544L5418.67,4458.67C5418.67,4423.32 5447.32,4394.67 5482.67,4394.67L5546.67,4394.67L5546.67,4330.67C5546.67,4313.69 5539.93,4297.41 5527.91,4285.42C5515.93,4273.41 5499.65,4266.67 5482.67,4266.67L5226.67,4266.67C5209.69,4266.67 5193.41,4273.41 5181.42,4285.42C5169.41,4297.41 5162.67,4313.69 5162.67,4330.67L5162.67,4480C5162.67,4496.98 5169.41,4513.26 5181.42,4525.25C5193.41,4537.26 5209.69,4544 5226.67,4544L5333.33,4544L5333.33,4565.33L5312,4565.33C5300.22,4565.33 5290.67,4574.89 5290.67,4586.67C5290.67,4598.44 5300.22,4608 5312,4608L5397.33,4608C5409.11,4608 5418.67,4598.44 5418.67,4586.67C5418.67,4574.89 5409.11,4565.33 5397.33,4565.33L5376,4565.33L5376,4544L5418.67,4544Z" style="fill:rgb(4,16,72);"/>
            </g>
            <g transform="matrix(2.42522,0,0,2.42522,-54.2758,-10056.6)">
                <path d="M566.436,7365.77C566.436,7348.81 552.668,7335.04 535.709,7335.04L474.256,7335.04C457.297,7335.04 443.529,7348.81 443.529,7365.77L443.529,7487.71C443.529,7504.67 457.297,7518.44 474.256,7518.44L535.709,7518.44C552.668,7518.44 566.436,7504.67 566.436,7487.71L566.436,7365.77Z" style="fill:rgb(79,171,43);"/>
            </g>
        </g>
    </g>
</svg>
