<?xml version="1.0" encoding="UTF-8" standalone="no"?>
<!DOCTYPE svg PUBLIC "-//W3C//DTD SVG 1.1//EN" "http://www.w3.org/Graphics/SVG/1.1/DTD/svg11.dtd">
<svg width="100%" height="100%" viewBox="0 0 1358 1358" version="1.1" xmlns="http://www.w3.org/2000/svg" xmlns:xlink="http://www.w3.org/1999/xlink" xml:space="preserve" xmlns:serif="http://www.serif.com/" style="fill-rule:evenodd;clip-rule:evenodd;stroke-linejoin:round;stroke-miterlimit:2;">
    <g transform="matrix(1,0,0,1,-514,-3827)">
        <g id="Artboard3" transform="matrix(0.99993,0,0,1.11876,351.455,-454.546)">
            <rect x="162.556" y="3827.04" width="1358.1" height="1213.84" style="fill:none;"/>
            <g id="Ñëîé-1" serif:id="Ñëîé 1" transform="matrix(0.736394,0,0,0.658176,176.814,3961.56)">
                <g transform="matrix(0.929612,0,0,1.05811,1534.2,-134.163)">
                    <path d="M0,1524.59C0,1524.59 552.113,0 -461.075,103.199C-895.03,147.4 -814.019,415.555 -1005.68,666.455C-1129.91,829.087 -1368.84,696.044 -1458.38,838.156C-1547.92,980.27 -1442.7,1385.49 -1405.79,1524.59L0,1524.59Z" style="fill:rgb(229,240,248);fill-rule:nonzero;"/>
                </g>
                <g transform="matrix(1.05811,0,0,1.05811,1509.89,1297.21)">
                    <path d="M0,180.12C0,180.12 27.921,68.744 97.521,34.372C167.121,0 241.405,47.058 222.542,96.541C206.277,139.21 139.396,86.745 87.357,107.377C35.319,128.009 27.116,180.12 27.116,180.12L0,180.12Z" style="fill:rgb(127,223,237);fill-rule:nonzero;stroke:rgb(0,194,222);stroke-width:1.28px;"/>
                </g>
                <g transform="matrix(1.05811,0,0,1.05811,1731.13,1442.75)">
                    <path d="M0,-70.683C0,-70.683 -74.699,-113.253 -130.121,-73.896C-185.542,-34.538 -203.082,42.57 -203.082,42.57" style="fill:none;fill-rule:nonzero;stroke:rgb(0,158,193);stroke-width:4.02px;stroke-linejoin:miter;stroke-miterlimit:10;"/>
                </g>
                <g transform="matrix(-0.969959,0.422833,0.422833,0.969959,1702.36,1358.25)">
                    <path d="M-18.169,-3.788L0.79,-3.788" style="fill:none;fill-rule:nonzero;stroke:rgb(0,158,193);stroke-width:4.02px;stroke-linejoin:miter;stroke-miterlimit:10;"/>
                </g>
                <g transform="matrix(-0.957986,0.449298,0.449298,0.957986,1660.57,1353.86)">
                    <path d="M-36.425,-8.118L1.809,-8.118" style="fill:none;fill-rule:nonzero;stroke:rgb(0,158,193);stroke-width:4.02px;stroke-linejoin:miter;stroke-miterlimit:10;"/>
                </g>
                <g transform="matrix(-0.683675,0.807586,0.807586,0.683675,1629.7,1355.51)">
                    <path d="M-22.941,-10.637L4.932,-10.637" style="fill:none;fill-rule:nonzero;stroke:rgb(0,158,193);stroke-width:4.02px;stroke-linejoin:miter;stroke-miterlimit:10;"/>
                </g>
                <g transform="matrix(-0.404102,0.97791,0.97791,0.404102,1604.33,1363.08)">
                    <path d="M-14.647,-9.796L6.551,-9.796" style="fill:none;fill-rule:nonzero;stroke:rgb(0,158,193);stroke-width:4.02px;stroke-linejoin:miter;stroke-miterlimit:10;"/>
                </g>
                <g transform="matrix(-0.547358,-0.905542,-0.905542,0.547358,1707.75,1349.13)">
                    <path d="M-39.128,22.07L12.448,22.07" style="fill:none;fill-rule:nonzero;stroke:rgb(0,158,193);stroke-width:4.02px;stroke-linejoin:miter;stroke-miterlimit:10;"/>
                </g>
                <g transform="matrix(-0.559289,-0.898222,-0.898222,0.559289,1657.17,1347.18)">
                    <path d="M-35.382,19.65L10.912,19.65" style="fill:none;fill-rule:nonzero;stroke:rgb(0,158,193);stroke-width:4.02px;stroke-linejoin:miter;stroke-miterlimit:10;"/>
                </g>
                <g transform="matrix(-1.05004,-0.130474,-0.130474,1.05004,1576.85,1376.36)">
                    <path d="M-36.928,2.286L0.141,2.286" style="fill:none;fill-rule:nonzero;stroke:rgb(0,158,193);stroke-width:4.02px;stroke-linejoin:miter;stroke-miterlimit:10;"/>
                </g>
                <g transform="matrix(1.05811,0,0,1.05811,1472.3,1089.06)">
                    <path d="M0,373.325C0,373.325 -19.701,0 158.612,48.108C336.925,96.217 19.518,297.422 19.787,373.325L0,373.325Z" style="fill:rgb(0,194,222);fill-rule:nonzero;"/>
                </g>
                <g transform="matrix(0.440136,-0.96223,-0.96223,-0.440136,1661.37,1458.16)">
                    <path d="M-93.605,145.748C-93.605,145.748 86.361,221.219 226.939,145.748" style="fill:none;fill-rule:nonzero;stroke:rgb(0,142,173);stroke-width:4.02px;stroke-linejoin:miter;stroke-miterlimit:10;"/>
                </g>
                <g transform="matrix(-1.04924,0.136758,0.136758,1.04924,1577.78,1223.67)">
                    <path d="M-86.277,-5.599L0.363,-5.599" style="fill:none;fill-rule:nonzero;stroke:rgb(0,142,173);stroke-width:4.02px;stroke-linejoin:miter;stroke-miterlimit:10;"/>
                </g>
                <g transform="matrix(-1.051,0.122457,0.122457,1.051,1537.04,1283.46)">
                    <path d="M-91.146,-5.292L0.307,-5.292" style="fill:none;fill-rule:nonzero;stroke:rgb(0,142,173);stroke-width:4.02px;stroke-linejoin:miter;stroke-miterlimit:10;"/>
                </g>
                <g transform="matrix(1.05811,0,0,1.05811,241.127,1302.08)">
                    <path d="M0,179.787C0,179.787 -27.869,68.618 -97.34,34.308C-166.811,0 -240.958,46.972 -222.13,96.363C-205.895,138.953 -139.137,86.585 -87.196,107.179C-35.254,127.772 -27.066,179.787 -27.066,179.787L0,179.787Z" style="fill:rgb(127,223,237);fill-rule:nonzero;stroke:rgb(0,194,222);stroke-width:1.28px;"/>
                </g>
                <g transform="matrix(1.05811,0,0,1.05811,20.2974,1447.35)">
                    <path d="M0,-70.551C0,-70.551 74.56,-113.043 129.879,-73.758C185.198,-34.474 202.705,42.492 202.705,42.492" style="fill:none;fill-rule:nonzero;stroke:rgb(0,158,193);stroke-width:4.02px;stroke-linejoin:miter;stroke-miterlimit:10;"/>
                </g>
                <g transform="matrix(0.96996,0.42283,0.42283,-0.96996,35.3855,1348.34)">
                    <path d="M-0.788,-3.781L18.135,-3.781" style="fill:none;fill-rule:nonzero;stroke:rgb(0,158,193);stroke-width:4.02px;stroke-linejoin:miter;stroke-miterlimit:10;"/>
                </g>
                <g transform="matrix(0.957986,0.449299,0.449299,-0.957986,64.9021,1327.58)">
                    <path d="M-1.806,-8.102L36.358,-8.102" style="fill:none;fill-rule:nonzero;stroke:rgb(0,158,193);stroke-width:4.02px;stroke-linejoin:miter;stroke-miterlimit:10;"/>
                </g>
                <g transform="matrix(0.683675,0.807586,0.807586,-0.683675,126.4,1331.24)">
                    <path d="M-4.923,-10.617L22.899,-10.617" style="fill:none;fill-rule:nonzero;stroke:rgb(0,158,193);stroke-width:4.02px;stroke-linejoin:miter;stroke-miterlimit:10;"/>
                </g>
                <g transform="matrix(0.404097,0.977913,0.977913,-0.404097,162.718,1352.03)">
                    <path d="M-6.539,-9.778L14.62,-9.778" style="fill:none;fill-rule:nonzero;stroke:rgb(0,158,193);stroke-width:4.02px;stroke-linejoin:miter;stroke-miterlimit:10;"/>
                </g>
                <g transform="matrix(0.547352,-0.905546,-0.905546,-0.547352,68.9482,1402.14)">
                    <path d="M-12.425,22.028L39.055,22.028" style="fill:none;fill-rule:nonzero;stroke:rgb(0,158,193);stroke-width:4.02px;stroke-linejoin:miter;stroke-miterlimit:10;"/>
                </g>
                <g transform="matrix(0.55928,-0.898228,-0.898228,-0.55928,115.689,1395.84)">
                    <path d="M-10.892,19.613L35.316,19.613" style="fill:none;fill-rule:nonzero;stroke:rgb(0,158,193);stroke-width:4.02px;stroke-linejoin:miter;stroke-miterlimit:10;"/>
                </g>
                <g transform="matrix(1.05004,-0.130486,-0.130486,-1.05004,136.326,1390.67)">
                    <path d="M-0.141,2.282L36.86,2.282" style="fill:none;fill-rule:nonzero;stroke:rgb(0,158,193);stroke-width:4.02px;stroke-linejoin:miter;stroke-miterlimit:10;"/>
                </g>
                <g transform="matrix(1.00532,0.330059,0.330059,-1.00532,182.808,1408.54)">
                    <path d="M-0.553,-3.455L21.6,-3.455" style="fill:none;fill-rule:nonzero;stroke:rgb(0,158,193);stroke-width:4.02px;stroke-linejoin:miter;stroke-miterlimit:10;"/>
                </g>
                <g transform="matrix(1.05811,0,0,1.05811,276.318,1094.32)">
                    <path d="M0,372.633C0,372.633 19.666,0 -158.317,48.02C-336.3,96.039 -19.481,296.87 -19.75,372.633L0,372.633Z" style="fill:rgb(0,194,222);fill-rule:nonzero;"/>
                </g>
                <g transform="matrix(-0.440135,-0.962231,-0.962231,0.440135,308.992,1206.62)">
                    <path d="M-226.517,145.478C-226.517,145.478 -46.886,70.146 93.431,145.478" style="fill:none;fill-rule:nonzero;stroke:rgb(0,158,193);stroke-width:4.02px;stroke-linejoin:miter;stroke-miterlimit:10;"/>
                </g>
                <g transform="matrix(-0.0499068,-1.05694,-1.05694,0.0499068,220.489,1201.61)">
                    <path d="M-35.19,33.567L32.02,33.567" style="fill:none;fill-rule:nonzero;stroke:rgb(0,158,193);stroke-width:4.02px;stroke-linejoin:miter;stroke-miterlimit:10;"/>
                </g>
                <g transform="matrix(1.04924,0.136768,0.136768,-1.04924,82.5867,1205.23)">
                    <path d="M-0.363,-5.589L86.117,-5.589" style="fill:none;fill-rule:nonzero;stroke:rgb(0,158,193);stroke-width:4.02px;stroke-linejoin:miter;stroke-miterlimit:10;"/>
                </g>
                <g transform="matrix(1.05101,0.122442,0.122442,-1.05101,117.698,1266.16)">
                    <path d="M-0.307,-5.281L90.977,-5.282" style="fill:none;fill-rule:nonzero;stroke:rgb(0,158,193);stroke-width:4.02px;stroke-linejoin:miter;stroke-miterlimit:10;"/>
                </g>
                <g transform="matrix(1.04771,0.148048,0.148048,-1.04771,165.796,1326.62)">
                    <path d="M-0.348,-4.948L70.38,-4.948" style="fill:none;fill-rule:nonzero;stroke:rgb(0,158,193);stroke-width:4.02px;stroke-linejoin:miter;stroke-miterlimit:10;"/>
                </g>
                <g transform="matrix(-0.402727,0.978477,0.978477,0.402727,253.264,1311.95)">
                    <path d="M-29.112,-19.499L13.061,-19.499" style="fill:none;fill-rule:nonzero;stroke:rgb(0,158,193);stroke-width:4.02px;stroke-linejoin:miter;stroke-miterlimit:10;"/>
                </g>
                <g transform="matrix(-0.255904,1.0267,1.0267,0.255904,237.194,1251.74)">
                    <path d="M-35.135,-27.453L21.45,-27.453" style="fill:none;fill-rule:nonzero;stroke:rgb(0,158,193);stroke-width:4.02px;stroke-linejoin:miter;stroke-miterlimit:10;"/>
                </g>
                <g transform="matrix(-0.474524,0.945745,0.945745,0.474524,264.017,1370.08)">
                    <path d="M-20.653,-12.744L7.864,-12.744" style="fill:none;fill-rule:nonzero;stroke:rgb(0,158,193);stroke-width:4.02px;stroke-linejoin:miter;stroke-miterlimit:10;"/>
                </g>
                <g transform="matrix(1.00915,0.31817,0.31817,-1.00915,207.266,1379.85)">
                    <path d="M-1.218,-7.911L51.401,-7.911" style="fill:none;fill-rule:nonzero;stroke:rgb(0,158,193);stroke-width:4.02px;stroke-linejoin:miter;stroke-miterlimit:10;"/>
                </g>
                <g transform="matrix(0.905803,0,0,1.05811,1541.42,1471.65)">
                    <path d="M0,39.065L-1530.55,39.065C-1539.74,39.065 -1547.18,31.618 -1547.18,22.43L-1547.18,16.634C-1547.18,7.447 -1539.74,0 -1530.55,0L0,0C9.188,0 16.635,7.447 16.635,16.634L16.635,22.43C16.635,31.618 9.188,39.065 0,39.065" style="fill:rgb(7,117,239);fill-rule:nonzero;"/>
                </g>
                <g transform="matrix(1.05811,0,0,1.05811,1575.69,632.185)">
                    <path d="M0,0.032C0,18.774 -0.96,37.292 -2.783,55.554C-21.045,235.745 -127.1,390.029 -277.514,474.879C-356.511,519.463 -447.726,544.889 -544.89,544.889C-643.684,544.889 -736.337,518.599 -816.23,472.64C-979.694,378.579 -1089.75,202.163 -1089.75,0.032C-1089.75,-276.235 -884.162,-504.495 -617.618,-540.028C-616.595,-540.188 -615.571,-540.316 -614.548,-540.444C-614.068,-540.508 -613.588,-540.572 -613.108,-540.635C-590.752,-543.418 -567.982,-544.857 -544.89,-544.857C-541.179,-544.857 -537.47,-544.825 -533.792,-544.729C-495.828,-543.993 -458.792,-539.356 -423.1,-531.2C-419.645,-530.401 -416.255,-529.601 -412.833,-528.738C-202.738,-476.446 -40.842,-302.204 -6.685,-85.522C-2.271,-57.633 0,-29.072 0,0.032" style="fill:rgb(187,219,243);fill-rule:nonzero;"/>
                </g>
                <g transform="matrix(1.05811,0,0,1.05811,1575.36,669.725)">
                    <path d="M0,0.033C0,19.5 -0.997,38.733 -2.891,57.701C-21.858,244.857 -132.013,405.106 -288.242,493.236C-370.293,539.544 -465.034,565.953 -565.954,565.953C-668.567,565.953 -764.803,538.646 -847.784,490.911C-1017.57,393.214 -1131.87,209.977 -1131.87,0.033C-1131.87,-286.913 -918.341,-523.998 -641.494,-560.904C-640.431,-561.07 -639.368,-561.203 -638.305,-561.336C-637.806,-561.403 -637.308,-561.468 -636.81,-561.535C-613.589,-564.425 -589.938,-565.92 -565.954,-565.92C-562.1,-565.92 -558.247,-565.887 -554.427,-565.787C-514.995,-565.023 -476.527,-560.206 -439.455,-551.736C-435.867,-550.905 -432.347,-550.074 -428.792,-549.177C-210.575,-494.864 -42.421,-313.887 -6.943,-88.828C-2.358,-59.861 0,-30.196 0,0.033Z" style="fill:none;fill-rule:nonzero;stroke:rgb(187,219,243);stroke-width:11.65px;stroke-linejoin:miter;stroke-miterlimit:10;"/>
                </g>
                <g transform="matrix(1.05811,0,0,1.05811,1544.41,632.186)">
                    <path d="M0,0.03C0,17.756 -0.907,35.268 -2.632,52.54C-19.903,222.954 -120.203,368.868 -262.457,449.114C-337.168,491.279 -423.435,515.326 -515.326,515.326C-608.76,515.326 -696.387,490.463 -771.945,446.997C-926.54,358.039 -1030.62,191.194 -1030.62,0.03C-1030.62,-261.247 -836.19,-477.123 -584.109,-510.728C-583.141,-510.879 -582.172,-511 -581.205,-511.121C-580.751,-511.182 -580.297,-511.242 -579.843,-511.303C-558.7,-513.934 -537.165,-515.296 -515.326,-515.296C-511.817,-515.296 -508.309,-515.265 -504.83,-515.175C-468.927,-514.479 -433.899,-510.093 -400.144,-502.38C-396.877,-501.624 -393.671,-500.867 -390.435,-500.051C-191.738,-450.596 -38.626,-285.808 -6.322,-80.882C-2.147,-54.506 0,-27.495 0,0.03" style="fill:rgb(229,240,248);fill-rule:nonzero;"/>
                </g>
                <g transform="matrix(-0.94557,-0.474874,-0.474874,0.94557,1054.54,267.555)">
                    <path d="M-36.085,-152.259C1.459,-152.259 31.893,-116.261 31.894,-71.854C31.894,-27.447 1.459,8.552 -36.085,8.552C-73.63,8.552 -104.064,-27.447 -104.065,-71.853C-104.065,-116.26 -73.63,-152.259 -36.085,-152.259" style="fill:rgb(64,53,52);fill-rule:nonzero;"/>
                </g>
                <g transform="matrix(1.05811,0,0,1.05811,1266.7,985.429)">
                    <path d="M0,115.272C-74.711,157.437 -160.978,181.484 -252.869,181.484C-346.303,181.484 -433.93,156.621 -509.488,113.155C-495.544,56.864 -474.673,10.011 -448.812,-25.469C-437.167,-41.41 -424.554,-55.051 -411.064,-66.212L-63.641,-66.212C-26.497,-6.958 -6.987,48.969 0,115.272" style="fill:rgb(237,149,33);fill-rule:nonzero;"/>
                </g>
                <g transform="matrix(1.05811,0,0,1.05811,822.277,895.972)">
                    <path d="M0,-55.094L52.13,-42.765L26.065,0L0,-55.094Z" style="fill:rgb(232,151,128);fill-rule:nonzero;"/>
                </g>
                <g transform="matrix(1.05811,0,0,1.05811,960.186,915.364)">
                    <path d="M0,-579.415L-134.998,-539.663L-121.384,0L226.038,0C226.038,0 249.445,-463.546 260.275,-538.529L121.676,-579.036L0,-579.415Z" style="fill:rgb(0,195,220);fill-rule:nonzero;"/>
                </g>
                <g transform="matrix(1.05811,0,0,1.05811,956.562,174.135)">
                    <path d="M0,118.332L0.098,118.43C1.655,121.157 27.952,165.471 77.72,161.77C121.742,158.458 125.053,121.449 125.053,121.449L125.053,-47.139L0.613,-43.151L0,118.332Z" style="fill:rgb(253,174,151);fill-rule:nonzero;"/>
                </g>
                <g transform="matrix(1.05811,0,0,1.05811,957.211,195.276)">
                    <path d="M0,98.375L85.717,26.609L-0.613,0L0,98.375Z" style="fill:rgb(232,151,128);fill-rule:nonzero;"/>
                </g>
                <g transform="matrix(0.838153,0.645838,0.645838,-0.838153,995.681,286.852)">
                    <path d="M-25.621,-25.04L55.165,-25.04L72.663,-75.887L-31.15,-44.229L-25.621,-25.04Z" style="fill:white;fill-rule:nonzero;"/>
                </g>
                <g transform="matrix(-0.815645,0.67404,0.67404,0.815645,1075.76,402.106)">
                    <path d="M-76.274,-72.828L1.132,-72.828L18.124,-20.765L-75.037,-56.274L-76.274,-72.828Z" style="fill:white;fill-rule:nonzero;"/>
                </g>
                <g transform="matrix(1.05811,0,0,1.05811,1357.35,348.498)">
                    <path d="M0,462.936L-0.895,463.226C-40.203,475.984 -82.803,454.26 -95.561,414.952L-199.512,94.666C-212.271,55.358 -190.547,12.758 -151.238,0L-150.344,-0.29C-111.035,-13.048 -68.435,8.675 -55.677,47.984L48.273,368.269C61.032,407.579 39.309,450.178 0,462.936" style="fill:rgb(1,186,210);fill-rule:nonzero;"/>
                </g>
                <g transform="matrix(1.05811,0,0,1.05811,846.891,942.812)">
                    <path d="M0,-69.781L75.865,-103.844L121.143,-82.821L131.923,-43.472C131.923,-43.472 127.25,-39.408 120.553,-44.43C114.444,-49.011 104.433,-64.535 104.433,-64.535L83.075,-67.189L74.248,-61.55L111.98,-42.933C111.98,-42.933 122.883,-16.071 120.542,-6.067C119.932,-3.461 119.032,1.076 112.334,-2.271C109.574,-3.652 104.164,-7.627 104.164,-7.627C104.164,-7.627 103.974,1.246 102.344,3.567C100.542,6.133 92.854,8.838 90.114,0.773C87.948,-5.605 86.461,-22.057 86.461,-22.057L53.226,-12.748L75.46,-2.213L78.493,27.299C78.493,27.299 63.565,34.063 60.098,11.778C60.098,11.778 45.14,1.267 9.564,13.799C-26.011,26.331 -46.446,21.222 -69.985,3.968L0,-69.781Z" style="fill:rgb(253,174,151);fill-rule:nonzero;"/>
                </g>
                <g transform="matrix(1.05811,0,0,1.05811,957.108,899.237)">
                    <path d="M0,33.555L-5.255,6.064L-40.022,0" style="fill:none;fill-rule:nonzero;stroke:rgb(51,43,39);stroke-width:3.2px;stroke-linejoin:miter;stroke-miterlimit:10;"/>
                </g>
                <g transform="matrix(1.05811,0,0,1.05811,864.462,684.881)">
                    <path d="M0,163.491L-213.077,-75.57C-239.237,-103.207 -286.259,-101.667 -317.685,-72.076C-349.027,-42.445 -353.293,4.483 -327.173,32.205L-97.94,266.698L0,163.491Z" style="fill:rgb(1,186,210);fill-rule:nonzero;"/>
                </g>
                <g transform="matrix(1.05811,0,0,1.05811,525.524,366.185)">
                    <path d="M0,335.075L0.648,335.757C29.14,365.692 76.944,366.874 106.88,338.382L254.699,182.447C284.635,153.955 295.758,149.229 295.433,77.872L294.784,77.191C291.145,27.372 290.569,-24.854 273.809,-19.496L2.625,228.844C-27.311,257.335 -28.492,305.139 0,335.075" style="fill:rgb(1,186,210);fill-rule:nonzero;"/>
                </g>
                <g transform="matrix(1.05811,0,0,1.05811,930.595,18.2924)">
                    <path d="M0,70.637C0,70.637 -32.476,27.139 11.218,0L0,70.637Z" style="fill:rgb(64,53,52);fill-rule:nonzero;"/>
                </g>
                <g transform="matrix(1.05811,0,0,1.05811,1065.75,-11.0998)">
                    <path d="M0,211.683C-29.645,241.485 -70.985,252.245 -100.296,241.981C-129.605,231.819 -135.532,192.322 -134.469,165.986C-134.469,165.885 -134.469,165.885 -134.468,165.784C-134.234,160.336 -133.886,152.667 -133.533,143.99C-132.226,109.986 -130.316,59.635 -130.316,59.635C-130.589,33.362 -74.424,-40.562 11.346,14.338C97.115,69.338 29.646,181.881 0,211.683" style="fill:rgb(253,174,151);fill-rule:nonzero;"/>
                </g>
                <g transform="matrix(1.05811,0,0,1.05811,927.475,139.688)">
                    <path d="M0,-93.428C0,-93.428 8.63,-64.111 55.187,-55.168C101.745,-46.225 148.925,-26.282 155.365,18.66C161.804,63.603 183.196,84.323 183.196,84.323C183.196,84.323 175.162,28.318 190.575,-24.909C196.554,-45.555 196.039,-85.686 169.883,-113.574C128.612,-157.58 46.446,-177.751 0,-93.428" style="fill:rgb(64,53,52);fill-rule:nonzero;"/>
                </g>
                <g transform="matrix(-0.303703,1.01359,1.01359,0.303703,1113.09,134.905)">
                    <path d="M23.482,-23.847C39.883,-24.643 49.51,-21.854 50.134,-8.976C50.759,3.901 39.883,18.494 23.482,19.289C7.08,20.086 -6.723,10.291 -7.348,-2.585C-7.972,-15.462 7.08,-23.05 23.482,-23.847" style="fill:rgb(253,174,151);fill-rule:nonzero;"/>
                </g>
                <g transform="matrix(1.05811,0,0,1.05811,1109.15,145.919)">
                    <path d="M0,8.969C-9.772,7.009 -16.337,12.772 -16.337,12.772C-14.266,-3.803 5.346,-2.439 5.346,-2.439" style="fill:none;fill-rule:nonzero;stroke:rgb(232,151,128);stroke-width:2.62px;stroke-linecap:round;stroke-miterlimit:10;"/>
                </g>
                <g transform="matrix(0.01666,-1.05798,-1.05798,-0.01666,997.916,117.963)">
                    <path d="M-7.43,-7.313C-13.774,-7.313 -18.917,-3.986 -18.917,0.118C-18.918,4.222 -13.774,7.55 -7.43,7.548C-1.086,7.549 4.057,4.222 4.057,0.117C4.058,-3.986 -1.086,-7.315 -7.43,-7.313" style="fill:rgb(51,43,39);fill-rule:nonzero;"/>
                </g>
                <g transform="matrix(0.0166589,-1.05798,-1.05798,-0.0166589,940.652,111.848)">
                    <path d="M-7.431,-7.314C-13.774,-7.314 -18.917,-3.987 -18.918,0.118C-18.918,4.221 -13.774,7.549 -7.431,7.548C-1.086,7.548 4.056,4.221 4.057,0.117C4.057,-3.987 -1.087,-7.315 -7.431,-7.314" style="fill:rgb(51,43,39);fill-rule:nonzero;"/>
                </g>
                <g transform="matrix(-0.987833,-0.379201,-0.379201,0.987833,996.02,91.1252)">
                    <path d="M-29.376,10.565C-29.376,10.565 -11.983,0.093 -0.007,10.565" style="fill:none;fill-rule:nonzero;stroke:rgb(51,43,39);stroke-width:3.89px;stroke-linejoin:miter;stroke-miterlimit:10;"/>
                </g>
                <g transform="matrix(-1.01161,0.310241,0.310241,1.01161,927.84,103.978)">
                    <path d="M-19.965,-0.365C-19.965,-0.365 -12.166,-5.631 0.86,-0.365" style="fill:none;fill-rule:nonzero;stroke:rgb(51,43,39);stroke-width:3.89px;stroke-linejoin:miter;stroke-miterlimit:10;"/>
                </g>
                <g transform="matrix(1.05811,0,0,1.05811,968.528,166.316)">
                    <path d="M0,-42.72C0,-42.72 -1.224,-11.302 -19.729,-7.747C-19.729,-7.747 -13.945,-2.314 -6.628,0" style="fill:none;fill-rule:nonzero;stroke:rgb(51,43,39);stroke-width:3.89px;stroke-linejoin:miter;stroke-miterlimit:10;"/>
                </g>
                <g transform="matrix(0.989787,-0.37407,-0.37407,-0.989787,959.814,200.445)">
                    <path d="M0.361,6.411C0.361,6.411 16.236,-9.171 38.267,6.411" style="fill:none;fill-rule:nonzero;stroke:rgb(51,43,39);stroke-width:3.89px;stroke-linejoin:miter;stroke-miterlimit:10;"/>
                </g>
                <g transform="matrix(-0.295413,-1.01604,-1.01604,0.295413,1002.42,133.604)">
                    <path d="M-22.54,-30.026C-29.151,-30.027 -34.511,-19.517 -34.511,-6.554C-34.511,6.411 -29.151,16.92 -22.54,16.921C-15.929,16.921 -10.57,6.411 -10.569,-6.553C-10.569,-19.517 -15.929,-30.026 -22.54,-30.026" style="fill:rgb(232,151,128);fill-rule:nonzero;"/>
                </g>
                <g transform="matrix(1.05811,0,0,1.05811,936.643,148.122)">
                    <path d="M0,8.82C-1.133,12.749 -5.991,15.042 -12.451,15.307C-12.218,9.859 -11.87,2.19 -11.516,-6.487C-3.367,-2.201 1.543,3.883 0,8.82" style="fill:rgb(232,151,128);fill-rule:nonzero;"/>
                </g>
                <g transform="matrix(-0.00616426,1.0581,1.0581,0.00616426,1094.93,173.213)">
                    <ellipse cx="10.557" cy="-0.062" rx="10.557" ry="10.557" style="fill:none;stroke:white;stroke-width:3.44px;stroke-linejoin:miter;stroke-miterlimit:10;"/>
                </g>
                <g transform="matrix(1.05811,0,0,1.05811,1756.31,535.365)">
                    <path d="M0,-42.164C0,-42.164 16.313,-68.738 10.706,-75.686C5.098,-82.637 2.687,-76.156 2.687,-76.156C2.687,-76.156 7.01,-95.503 0.745,-100.249C-5.52,-104.994 -10.982,-93.904 -10.982,-93.904C-10.982,-93.904 -12.989,-106.499 -21.604,-107.385C-30.217,-108.271 -47.829,-81.365 -57.808,-70.421C-67.786,-59.476 -93.07,-35.814 -98.181,-36.377C-103.292,-36.94 -77.75,-75.162 -84.371,-81.933C-90.992,-88.704 -137.663,-42.379 -152.627,-23.561C-159.062,-15.468 -167.896,-6.768 -175.88,0.531L-129.192,66.107C-117.243,59.882 -60.417,30.097 -38.169,15.09C-13.246,-1.721 12.043,-34.259 8.507,-40.111C4.971,-45.962 0,-42.164 0,-42.164" style="fill:rgb(253,174,151);fill-rule:nonzero;"/>
                </g>
                <g transform="matrix(1.05811,0,0,1.05811,1279.91,676.172)">
                    <path d="M0,26.083C-28.865,48.337 -31.855,93.302 -6.644,126.002C18.567,158.705 62.813,167.253 91.678,144.999L331.623,-61.604L274.356,-141.17L0,26.083Z" style="fill:rgb(1,186,210);fill-rule:nonzero;"/>
                </g>
                <g transform="matrix(-0.770325,0.7254,0.7254,0.770325,718.655,306.982)">
                    <path d="M68.108,-171.671C13.24,-171.672 -31.239,-127.193 -31.238,-72.325C-31.239,-17.458 13.24,27.021 68.108,27.02C122.975,27.021 167.453,-17.458 167.453,-72.325C167.454,-127.193 122.975,-171.671 68.108,-171.671" style="fill:rgb(106,219,106);fill-rule:nonzero;"/>
                </g>
                <g transform="matrix(1.05811,0,0,1.05811,669.059,269.549)">
                    <path d="M0,53.1C-3.473,48.567 -15.421,38.361 -22.983,39.268C-29.555,40.056 -33.841,50.685 -40.464,50.959C-44.863,51.142 -53.966,46.971 -60.551,38.339C-60.551,38.339 -74.654,23.168 -73.72,15.81C-72.787,8.453 -60.698,7.271 -60.304,-2.736C-60.093,-8.089 -68.247,-22.104 -74.901,-26.75C-77.348,-28.458 -80.61,-28.448 -83.033,-26.706C-89.161,-22.301 -101.765,-10.937 -100.235,7.19C-98.224,31.028 -77.208,50.496 -77.208,50.496C-77.208,50.496 -56.482,73.85 -37.995,77.537C-17.826,81.558 -6.565,73.201 -0.931,66.274C4.704,59.348 3.473,57.633 0,53.1" style="fill:white;fill-rule:nonzero;"/>
                </g>
                <g transform="matrix(1.05811,0,0,1.05811,1515.1,126.404)">
                    <path d="M0,-37.569C0,-1.184 -25.646,30.719 -64.208,48.711C-85.223,58.541 -110.107,64.207 -136.746,64.207C-152.158,64.207 -166.957,62.284 -180.784,58.795L-281.335,101.777L-252.519,16.596C-265.796,0.909 -273.513,-17.653 -273.513,-37.569C-273.513,-93.785 -212.285,-139.346 -136.746,-139.346C-82.729,-139.346 -36.026,-116.027 -13.806,-82.178C-4.969,-68.711 0,-53.573 0,-37.569" style="fill:white;fill-rule:nonzero;"/>
                </g>
                <g transform="matrix(1.05811,0,0,1.05811,428.14,188.527)">
                    <path d="M0,-64.003L-96.285,0L-192.552,-64.003L0,-64.003Z" style="fill:rgb(242,187,22);fill-rule:nonzero;"/>
                </g>
                <g transform="matrix(1.05811,0,0,1.05811,428.14,53.0822)">
                    <path d="M0,64.003L-96.285,0L-192.552,64.003L0,64.003Z" style="fill:rgb(242,187,22);fill-rule:nonzero;"/>
                </g>
                <g transform="matrix(-1.05811,0,0,1.05811,2092.2,-639.925)">
                    <rect x="1604.15" y="649.829" width="129.587" height="182.859" style="fill:white;"/>
                </g>
                <g transform="matrix(1.05811,0,0,1.05811,428.14,256.251)">
                    <path d="M0,-128.007L0,0L-192.552,0L-192.552,-128.007L-96.285,-64.004L0,-128.007Z" style="fill:rgb(249,225,129);fill-rule:nonzero;"/>
                </g>
                <g transform="matrix(1.05811,0,0,1.05811,224.398,188.527)">
                    <path d="M0,64.004L96.267,0L192.552,64.004L0,64.004Z" style="fill:rgb(249,236,184);fill-rule:nonzero;"/>
                </g>
                <g transform="matrix(1.05811,0,0,1.05811,350.093,146.384)">
                    <path d="M0,-64.677L-30.255,-14.516L-30.521,-14.075L-44.718,-36.436L-54.476,-30.235L-35.268,0L-30.431,-0.057L-25.439,-0.112L9.898,-58.709L0,-64.677Z" style="fill:rgb(106,219,106);fill-rule:nonzero;"/>
                </g>
                <g transform="matrix(1.05811,0,0,1.05811,716.639,723.966)">
                    <path d="M0,-11.668C1.39,-9.201 -9.806,3.801 -20.533,10.264C-29.617,15.751 -51.921,26.146 -58.518,29.164L-76.728,0.731C-73.462,-2.004 -69.961,-5.138 -67.292,-8.2C-60.666,-15.686 -40.333,-33.98 -37.704,-31.006C-35.075,-28.08 -46.503,-12.717 -44.384,-12.379C-42.266,-12.041 -31.269,-21.357 -26.916,-25.691C-22.513,-30.026 -14.647,-40.832 -11.1,-40.286C-7.502,-39.741 -6.973,-34.455 -6.973,-34.455C-6.973,-34.455 -4.439,-38.938 -1.931,-36.844C0.578,-34.75 -1.62,-26.791 -1.62,-26.791C-1.62,-26.791 -0.511,-29.421 1.677,-26.435C3.867,-23.4 -3.462,-12.707 -3.462,-12.707C-3.462,-12.707 -1.341,-14.186 0,-11.668" style="fill:rgb(253,174,151);fill-rule:nonzero;"/>
                </g>
                <g transform="matrix(1.05811,0,0,1.05811,545.643,665.571)">
                    <path d="M0,167.924C-15.057,176.028 -34.005,170.339 -42.109,155.282L-103.02,42.109C-111.124,27.052 -105.435,8.103 -90.378,-0.001C-75.322,-8.104 -56.373,-2.416 -48.27,12.641L12.642,125.816C20.745,140.872 15.057,159.82 0,167.924" style="fill:rgb(1,132,161);fill-rule:nonzero;"/>
                </g>
                <g transform="matrix(1.05811,0,0,1.05811,399.161,1187)">
                    <path d="M0,-287.209C-20.354,-260.56 -28.022,-205.309 -15.044,-145.79C-2.066,-86.271 2.318,-47.145 2.318,-47.145C5.701,-19.593 30.778,0 58.329,-3.383C85.881,-6.766 105.473,-31.843 102.09,-59.395L81.396,-287.209L0,-287.209Z" style="fill:rgb(7,117,239);fill-rule:nonzero;"/>
                </g>
                <g transform="matrix(1.05811,0,0,1.05811,394.413,883.099)">
                    <path d="M0,-218.476L-54.406,-193.835C-54.406,-193.835 -42.31,-53.779 -41.059,-38.458C-39.808,-23.138 -44.498,0 -44.498,0L85.883,0C85.883,0 84.32,-75.04 93.074,-95.989C99.005,-110.18 103.08,-118.813 99.64,-135.072C96.201,-151.33 71.036,-180.073 75.1,-208.212L46.718,-217.302L0,-218.476Z" style="fill:rgb(0,142,173);fill-rule:nonzero;"/>
                </g>
                <g transform="matrix(1.05811,0,0,1.05811,290.661,677.681)">
                    <path d="M0,179.075C-16.056,173.196 -24.383,155.249 -18.504,139.193L25.687,18.504C31.565,2.448 49.513,-5.879 65.569,0C81.625,5.879 89.952,23.826 84.073,39.882L39.882,160.571C34.003,176.628 16.056,184.954 0,179.075" style="fill:rgb(1,132,161);fill-rule:nonzero;"/>
                </g>
                <g transform="matrix(1.05811,0,0,1.05811,450.787,540.942)">
                    <path d="M0,23.727C0,23.727 7.402,5.514 -10.391,0L0,23.727Z" style="fill:rgb(51,43,39);fill-rule:nonzero;"/>
                </g>
                <g transform="matrix(1.05811,0,0,1.05811,443.838,670.286)">
                    <path d="M0,-79.478L0,-16.19C0,-16.19 -1.275,-2.306 -17.76,-1.08C-31.987,0 -41.063,-9.371 -44.891,-14.375L-46.902,-17.319L-46.951,-17.368L-40.229,-79.478L0,-79.478Z" style="fill:rgb(253,174,151);fill-rule:nonzero;"/>
                </g>
                <g transform="matrix(1.05811,0,0,1.05811,443.827,613.254)">
                    <path d="M0,30.503L-28.05,0L0.018,10.544L0,30.503Z" style="fill:rgb(232,151,128);fill-rule:nonzero;"/>
                </g>
                <g transform="matrix(1.05811,0,0,1.05811,414.388,527.856)">
                    <path d="M0,87.466C13.114,95.197 28.584,95.188 37.916,88.91C47.257,82.669 45.722,68.286 42.941,59.155C42.932,59.12 42.932,59.12 42.922,59.085C42.342,57.196 41.519,54.541 40.601,51.533C37.033,39.737 31.76,22.268 31.76,22.268C29.453,13.036 3.011,-7.731 -22.023,19.351C-47.048,46.468 -13.113,79.734 0,87.466" style="fill:rgb(253,174,151);fill-rule:nonzero;"/>
                </g>
                <g transform="matrix(1.05811,0,0,1.05811,447.107,604.333)">
                    <path d="M0,-53.741C0,-53.741 -0.343,-42.678 -15.839,-35.287C-31.336,-27.895 -46.045,-16.593 -44.191,-0.255C-42.337,16.083 -47.938,25.3 -47.938,25.3C-47.938,25.3 -50.245,4.94 -60.514,-12.302C-64.497,-18.99 -67.986,-33.099 -61.372,-45.263C-50.934,-64.458 -23.987,-79.041 0,-53.741" style="fill:rgb(50,42,40);fill-rule:nonzero;"/>
                </g>
                <g transform="matrix(-0.549805,-0.904059,-0.904059,0.549805,390.695,599.17)">
                    <path d="M-7.069,-9.48C-13.008,-9.769 -16.495,-8.758 -16.721,-4.095C-16.946,0.568 -13.008,5.853 -7.069,6.141C-1.128,6.429 3.87,2.883 4.096,-1.78C4.322,-6.444 -1.128,-9.192 -7.069,-9.48" style="fill:rgb(253,174,151);fill-rule:nonzero;"/>
                </g>
                <g transform="matrix(0.283097,1.01954,1.01954,-0.283097,430.191,581.713)">
                    <path d="M2.593,-1.971C4.891,-1.971 6.753,-0.765 6.753,0.721C6.753,2.207 4.889,3.412 2.593,3.411C0.295,3.411 -1.567,2.205 -1.568,0.719C-1.567,-0.767 0.295,-1.971 2.593,-1.971" style="fill:rgb(44,52,71);fill-rule:nonzero;"/>
                </g>
                <g transform="matrix(0.283286,1.01949,1.01949,-0.283286,449.137,574.647)">
                    <path d="M2.395,-1.819C4.517,-1.819 6.236,-0.706 6.237,0.666C6.237,2.039 4.516,3.151 2.395,3.152C0.272,3.151 -1.447,2.038 -1.447,0.666C-1.447,-0.707 0.273,-1.819 2.395,-1.819" style="fill:rgb(44,52,71);fill-rule:nonzero;"/>
                </g>
                <g transform="matrix(1.05811,0,0,1.05811,526.27,1076.52)">
                    <path d="M0,316.483L-88.312,316.483L-118.628,56.909L-119.017,50.967C-119.017,22.747 -95.765,0 -67.35,0.853C-41.729,1.59 -20.263,22.436 -18.749,48.056L0,316.483Z" style="fill:rgb(7,117,239);fill-rule:nonzero;"/>
                </g>
                <g transform="matrix(0.860081,-0.616334,-0.616334,-0.860081,423.832,583.205)">
                    <path d="M-1.157,3.15C-1.157,3.15 5.142,6.942 9.478,3.15" style="fill:none;fill-rule:nonzero;stroke:rgb(44,52,71);stroke-width:1.41px;stroke-linejoin:miter;stroke-miterlimit:10;"/>
                </g>
                <g transform="matrix(1.04797,0.146182,0.146182,-1.04797,445.33,568.73)">
                    <path d="M0.067,-0.514C0.067,-0.514 2.892,1.394 7.61,-0.514" style="fill:none;fill-rule:nonzero;stroke:rgb(44,52,71);stroke-width:1.41px;stroke-linejoin:miter;stroke-miterlimit:10;"/>
                </g>
                <g transform="matrix(1.05811,0,0,1.05811,355.628,1077.38)">
                    <path d="M0,315.669L-84.274,315.669L-57.529,47.553L-57.451,46.621C-55.666,20.574 -33.928,0 -7.415,0C20.302,0 42.738,22.438 42.738,50.153C42.738,51.706 42.661,53.22 42.505,54.695L0,315.669Z" style="fill:rgb(8,140,252);fill-rule:nonzero;"/>
                </g>
                <g transform="matrix(1.05811,0,0,1.05811,663.761,804.079)">
                    <path d="M0,-33.176L-103.132,32.079L-109.233,37.145C-121.67,45.763 -139.897,41.28 -149.686,27.156C-159.477,13.031 -157.262,-5.578 -144.824,-14.196L-29.311,-78.939L-26.754,-74.982L-8.544,-46.549L0,-33.176Z" style="fill:rgb(247,66,66);fill-rule:nonzero;"/>
                </g>
                <g transform="matrix(1.05811,0,0,1.05811,440.063,594.553)">
                    <path d="M0,-14.363C0,-14.363 3.302,-3.466 10.112,-3.913C10.112,-3.913 8.582,-1.479 6.229,0" style="fill:none;fill-rule:nonzero;stroke:rgb(44,52,71);stroke-width:1.41px;stroke-linejoin:miter;stroke-miterlimit:10;"/>
                </g>
                <g transform="matrix(1.05811,0,0,1.05811,442.021,1185.82)">
                    <path d="M0,-286.072L-1.178,-278.762L-39.003,-47.637C-41.897,-20.016 -66.624,0 -94.245,-2.894C-121.817,-5.789 -141.883,-30.515 -138.988,-58.136C-138.988,-58.136 -134.426,-97.238 -133.69,-158.171C-133.101,-205.367 -122.406,-243.438 -105.578,-268.067C-100.672,-275.229 -95.275,-281.264 -89.487,-286.072L0,-286.072Z" style="fill:rgb(8,140,252);fill-rule:nonzero;"/>
                </g>
                <g transform="matrix(-1.05217,-0.111992,-0.111992,1.05217,435.892,606.881)">
                    <path d="M-13.425,-4.262C-13.425,-4.262 -7.676,1.381 0.303,-4.262" style="fill:none;fill-rule:nonzero;stroke:rgb(44,52,71);stroke-width:1.41px;stroke-linejoin:miter;stroke-miterlimit:10;"/>
                </g>
                <g transform="matrix(-0.0293117,1.05771,1.05771,0.0293117,427.078,586.415)">
                    <path d="M8.498,-8.736C10.893,-8.736 12.834,-4.93 12.834,-0.235C12.834,4.46 10.892,8.266 8.498,8.266C6.104,8.266 4.162,4.46 4.162,-0.235C4.162,-4.931 6.104,-8.737 8.498,-8.736" style="fill:rgb(232,151,128);fill-rule:nonzero;"/>
                </g>
                <g transform="matrix(1.05811,0,0,1.05811,454.56,584.112)">
                    <path d="M0,4.784C0.756,6.057 2.668,6.417 4.956,5.919C4.376,4.03 3.553,1.375 2.635,-1.633C0.172,0.614 -0.992,3.195 0,4.784" style="fill:rgb(232,151,128);fill-rule:nonzero;"/>
                </g>
                <g transform="matrix(-0.273171,-1.02224,-1.02224,0.273171,399.584,609.568)">
                    <ellipse cx="-3.693" cy="-0.987" rx="3.824" ry="3.823" style="fill:none;stroke:white;stroke-width:1.24px;stroke-linejoin:miter;stroke-miterlimit:10;"/>
                </g>
                <g transform="matrix(1.05811,0,0,1.05811,248.508,1411.38)">
                    <path d="M0,56.959L65.054,56.959L73.493,44.105L73.303,56.959L87.629,56.959L86.347,19.82L89.486,0L36.501,0L36.305,19.82L0,56.959Z" style="fill:rgb(253,174,151);fill-rule:nonzero;"/>
                </g>
                <g transform="matrix(-0.0520974,1.05683,1.05683,0.0520974,455.087,714.598)">
                    <path d="M-57.83,-11.487L8.788,-11.487L-53.453,-58.224C-48.642,-54.155 -39.73,-44.628 -41.509,-30.471C-43.545,-14.067 -57.83,-11.487 -57.83,-11.487" style="fill:rgb(249,236,184);fill-rule:nonzero;"/>
                </g>
                <g transform="matrix(0.90936,0.540991,0.540991,-0.90936,405.15,642.886)">
                    <path d="M-6.059,-9.348L31.785,-9.348L32.032,-23.206L-7.131,-16.515L-6.059,-9.348Z" style="fill:white;fill-rule:nonzero;"/>
                </g>
                <g transform="matrix(-0.683273,0.807926,0.807926,0.683273,445.299,678.71)">
                    <path d="M-19.065,-17.945L2.641,-17.945L4.975,-4.884L-18.853,-13.474L-19.065,-17.945Z" style="fill:white;fill-rule:nonzero;"/>
                </g>
                <g transform="matrix(-1.05719,0.0443427,0.0443427,1.05719,483.323,738.151)">
                    <path d="M-132.236,128.492L43.056,128.492L-2.693,-2.773L-177.986,-2.772L-132.236,128.492Z" style="fill:rgb(165,187,214);fill-rule:nonzero;"/>
                </g>
                <g transform="matrix(-0.821241,-0.667211,-0.667211,0.821241,572.47,855.67)">
                    <path d="M85.334,85.654L161.86,85.654L34.864,-26.676L-45.965,-30.482L85.334,85.654Z" style="fill:rgb(137,165,199);fill-rule:nonzero;"/>
                </g>
                <g transform="matrix(-1.05719,0.0443427,0.0443427,1.05719,479.693,735.226)">
                    <path d="M-132.236,128.492L43.056,128.492L-2.694,-2.773L-177.986,-2.772L-132.236,128.492Z" style="fill:rgb(165,187,214);fill-rule:nonzero;"/>
                </g>
                <g transform="matrix(1.05811,0,0,1.05811,667.734,875.9)">
                    <path d="M0,-143.176L3.43,-140.412L-171.708,-133.067L-211.916,0L-215.346,-2.764L-175.138,-135.83L0,-143.176Z" style="fill:rgb(137,165,199);fill-rule:nonzero;"/>
                </g>
                <g transform="matrix(-0.261306,1.02534,1.02534,0.261306,448.742,824.34)">
                    <path d="M9.695,-62.236L16.348,-62.236L48.441,7.235L41.699,7.531L9.695,-62.236Z" style="fill:rgb(88,103,115);fill-rule:nonzero;"/>
                </g>
                <g transform="matrix(-0.0443183,-1.05719,-1.05719,0.0443183,563.592,782.372)">
                    <path d="M-19.418,-20.249C-24.168,-20.249 -28.02,-11.548 -28.021,-0.814C-28.02,9.92 -24.169,18.621 -19.418,18.62C-14.668,18.621 -10.816,9.919 -10.816,-0.814C-10.816,-11.548 -14.667,-20.249 -19.418,-20.249" style="fill:rgb(137,165,199);fill-rule:nonzero;"/>
                </g>
                <g transform="matrix(1.05811,0,0,1.05811,496.114,1411.38)">
                    <path d="M0,56.959L-15.553,45.381L-14.228,56.959L-28.701,56.959L-35.814,19.82L-39.641,0L16.484,0L18.643,19.82L63.681,56.959L0,56.959Z" style="fill:rgb(253,174,151);fill-rule:nonzero;"/>
                </g>
                <g transform="matrix(1.05811,0,0,1.05811,286.923,1471.65)">
                    <path d="M0,-37.139L-36.305,0L28.749,0L37.188,-12.854L36.998,0L51.324,0L50.042,-37.139L0,-37.139Z" style="fill:rgb(50,42,40);fill-rule:nonzero;"/>
                </g>
                <g transform="matrix(1.05811,0,0,1.05811,496.114,1432.35)">
                    <path d="M0,37.139L-15.553,25.561L-14.228,37.139L-28.701,37.139L-35.814,0L18.643,0L63.681,37.139L0,37.139Z" style="fill:rgb(50,42,40);fill-rule:nonzero;"/>
                </g>
                <g transform="matrix(1.05811,0,0,1.05811,520.013,859.613)">
                    <path d="M0,-23.619C2.54,-21.03 -0.19,-16.478 -0.19,-16.478C-0.19,-16.478 4.543,-18.557 5.254,-15.396C5.95,-12.455 0.367,-7.807 -0.36,-7.206C0.171,-7.463 1.973,-8.098 1.918,-4.884C1.887,-1.34 -9.246,2.606 -10.297,2.968C-9.897,3.027 -7.851,3.342 -8.217,5.898C-8.65,8.744 -25.366,12.454 -37.815,11.236C-48.317,10.188 -72.285,5.112 -79.456,3.583L-77.561,-30.033C-73.176,-30.238 -68.26,-30.701 -64.232,-31.585C-54.415,-33.633 -27.182,-36.073 -26.853,-32.115C-26.506,-28.203 -44.854,-22.727 -43.359,-21.207C-41.864,-19.686 -27.495,-20.543 -21.418,-21.376C-15.276,-22.235 -2.494,-26.189 0,-23.619" style="fill:rgb(253,174,151);fill-rule:nonzero;"/>
                </g>
                <g transform="matrix(1.05811,0,0,1.05811,438.569,859.717)">
                    <path d="M0,-40.292L-0.59,-30.131L-2.485,3.485L-2.988,12.408L-133.322,10.249C-148.449,9.729 -160.356,-4.746 -159.787,-21.922C-159.154,-39.126 -146.271,-52.7 -131.099,-52.163L-121.278,-50.493L-121.232,-50.475L0,-40.292Z" style="fill:rgb(1,132,161);fill-rule:nonzero;"/>
                </g>
                <g transform="matrix(1.05811,0,0,1.05811,412.678,772.423)">
                    <path d="M0,40.152L-62.213,34.927L-49.425,0" style="fill:none;fill-rule:nonzero;stroke:rgb(44,52,71);stroke-width:1.41px;stroke-linejoin:miter;stroke-miterlimit:10;"/>
                </g>
                <g transform="matrix(-1.05811,0,0,1.05811,319.366,871.419)">
                    <path d="M-28.279,0L0,0" style="fill:none;fill-rule:nonzero;stroke:rgb(44,52,71);stroke-width:1.41px;stroke-linejoin:miter;stroke-miterlimit:10;"/>
                </g>
                <g transform="matrix(-0.470516,-0.947745,-0.947745,0.470516,425.933,582.358)">
                    <ellipse cx="-5.365" cy="-2.664" rx="7.863" ry="5.99" style="fill:none;stroke:white;stroke-width:1.83px;stroke-linejoin:miter;stroke-miterlimit:10;"/>
                </g>
                <g transform="matrix(-0.470587,-0.94771,-0.94771,0.470587,444.74,575.155)">
                    <ellipse cx="-5.365" cy="-2.664" rx="7.863" ry="5.99" style="fill:none;stroke:white;stroke-width:1.83px;stroke-linejoin:miter;stroke-miterlimit:10;"/>
                </g>
                <g transform="matrix(1.00057,-0.344178,-0.344178,-1.00057,436.185,582.774)">
                    <path d="M-0.207,1.239L7.408,1.239" style="fill:none;fill-rule:nonzero;stroke:white;stroke-width:1.83px;stroke-linejoin:miter;stroke-miterlimit:10;"/>
                </g>
                <g transform="matrix(-0.430233,-0.966699,-0.966699,0.430233,389.323,597.501)">
                    <path d="M-9.569,-14.731C-17.25,-14.731 -23.476,-10.041 -23.476,-4.258C-23.475,1.527 -17.25,6.216 -9.569,6.216C-1.888,6.216 4.338,1.526 4.337,-4.258C4.338,-10.043 -1.888,-14.731 -9.569,-14.731" style="fill:rgb(8,140,252);fill-rule:nonzero;"/>
                </g>
                <g transform="matrix(-0.430202,-0.966712,-0.966712,0.430202,388.854,600.462)">
                    <path d="M-7.193,-11.075C-13.387,-11.075 -18.409,-7.55 -18.41,-3.202C-18.41,1.146 -13.388,4.673 -7.193,4.671C-0.998,4.672 4.024,1.148 4.024,-3.201C4.024,-7.549 -0.997,-11.075 -7.193,-11.075" style="fill:rgb(46,198,252);fill-rule:nonzero;"/>
                </g>
                <g transform="matrix(1.04052,0.192138,0.192138,-1.04052,407.315,609.12)">
                    <path d="M-0.886,-3.963C-0.886,-3.963 17.003,-14.531 42.229,-3.963" style="fill:none;fill-rule:nonzero;stroke:rgb(8,140,252);stroke-width:3.88px;stroke-linejoin:miter;stroke-miterlimit:10;"/>
                </g>
                <g transform="matrix(-0.283357,-1.01947,-1.01947,0.283357,446.786,615.271)">
                    <path d="M-5.774,-7.599C-7.872,-7.599 -9.573,-4.916 -9.574,-1.606C-9.573,1.705 -7.871,4.388 -5.774,4.388C-3.675,4.388 -1.975,1.704 -1.974,-1.606C-1.976,-4.915 -3.676,-7.599 -5.774,-7.599" style="fill:rgb(8,140,252);fill-rule:nonzero;"/>
                </g>
                <g transform="matrix(1.05789,-0.0216822,-0.0216822,-1.05789,397.079,593.508)">
                    <path d="M-0.589,0.017C-0.589,0.017 -14.044,45.36 17.295,56.668C17.295,56.668 7.537,57.331 -0.589,51.795C-0.589,51.795 -15.409,40.572 -6.753,0.143L-0.589,0.017Z" style="fill:rgb(8,140,252);fill-rule:nonzero;"/>
                </g>
                <g transform="matrix(1.05811,0,0,1.05811,1143.9,1324.04)">
                    <path d="M0,-104.453L-157.136,0L-314.242,-104.453L0,-104.453Z" style="fill:rgb(242,187,22);fill-rule:nonzero;"/>
                </g>
                <g transform="matrix(1.05811,0,0,1.05811,1143.9,1434.56)">
                    <path d="M0,-208.905L0,0L-314.242,0L-314.242,-208.905L-157.136,-104.452L0,-208.905Z" style="fill:rgb(242,187,22);fill-rule:nonzero;"/>
                </g>
                <g transform="matrix(1.05811,0,0,1.05811,811.397,1324.04)">
                    <path d="M0,104.452L157.106,0L314.242,104.452L0,104.452Z" style="fill:rgb(242,187,22);fill-rule:nonzero;"/>
                </g>
                <g transform="matrix(1.05811,0,0,1.05811,1156.61,1324.04)">
                    <path d="M0,-104.453L-157.136,0L-314.243,-104.453L0,-104.453Z" style="fill:rgb(249,236,184);fill-rule:nonzero;"/>
                </g>
                <g transform="matrix(1.05811,0,0,1.05811,1156.61,1434.56)">
                    <path d="M0,-208.905L0,0L-314.243,0L-314.243,-208.905L-157.136,-104.452L0,-208.905Z" style="fill:rgb(249,225,129);fill-rule:nonzero;"/>
                </g>
                <g transform="matrix(1.05811,0,0,1.05811,824.104,1324.04)">
                    <path d="M0,104.452L157.107,0L314.243,104.452L0,104.452Z" style="fill:rgb(249,236,184);fill-rule:nonzero;"/>
                </g>
                <g transform="matrix(1.05811,0,0,1.05811,132.728,413.632)">
                    <path d="M0,48.088L26.163,22.11C27.083,21.251 27.973,20.313 28.834,19.3C29.694,18.287 30.461,17.228 31.137,16.122C31.812,15.016 32.35,13.851 32.749,12.621C33.148,11.394 33.348,10.104 33.348,8.753C33.348,7.156 33.056,5.712 32.474,4.422C31.889,3.133 31.091,2.043 30.078,1.152C29.065,0.262 27.867,-0.429 26.485,-0.921C25.103,-1.412 23.644,-1.658 22.109,-1.658C18.916,-1.658 16.273,-0.767 14.187,1.014C12.099,2.796 10.778,5.252 10.226,8.384L0.645,7.554C1.074,4.669 1.919,2.166 3.178,0.046C4.436,-2.072 6.002,-3.837 7.877,-5.25C9.749,-6.662 11.898,-7.706 14.325,-8.383C16.75,-9.058 19.375,-9.396 22.202,-9.396C25.026,-9.396 27.683,-9.012 30.169,-8.245C32.657,-7.475 34.836,-6.34 36.711,-4.836C38.583,-3.33 40.057,-1.458 41.132,0.783C42.207,3.026 42.745,5.651 42.745,8.66C42.745,10.811 42.422,12.821 41.777,14.693C41.132,16.568 40.288,18.333 39.244,19.991C38.2,21.649 37.001,23.215 35.651,24.689C34.299,26.163 32.888,27.607 31.414,29.019L9.949,49.746L42.745,49.746L42.745,57.484L0,57.484L0,48.088Z" style="fill:rgb(187,219,243);fill-rule:nonzero;"/>
                </g>
                <g transform="matrix(1.05811,0,0,1.05811,215.193,463.345)">
                    <path d="M0,-44.218L-0.184,-44.218L-20.083,-11.607L0,-11.607L0,-44.218ZM0,-3.869L-27.822,-3.869L-27.822,-12.896L-1.843,-54.72L8.844,-54.72L8.844,-11.607L18.056,-11.607L18.056,-3.869L8.844,-3.869L8.844,10.502L0,10.502L0,-3.869Z" style="fill:rgb(187,219,243);fill-rule:nonzero;"/>
                </g>
                <g transform="matrix(-0.991852,-0.36856,-0.36856,0.991852,280.484,407.812)">
                    <path d="M9.45,75.029L16.328,75.029L13.403,-1.731L6.611,-1.699L9.45,75.029Z" style="fill:rgb(187,219,243);fill-rule:nonzero;"/>
                </g>
                <g transform="matrix(1.05811,0,0,1.05811,312.081,466.27)">
                    <path d="M0,-49.746L-31.598,-49.746L-31.598,-57.484L9.397,-57.484L9.397,-49.931L-16.581,7.738L-26.53,7.738L0,-49.746Z" style="fill:rgb(187,219,243);fill-rule:nonzero;"/>
                </g>
                <g transform="matrix(1.05811,0,0,1.05811,171.794,313.305)">
                    <path d="M0,227.265C-41.426,207 -67.161,165.779 -67.161,119.69C-67.161,53.693 -13.467,0 52.53,0C118.526,0 172.22,53.693 172.22,119.69C172.22,158.464 153.301,195.007 121.613,217.442L117.671,211.872C147.555,190.715 165.397,156.254 165.397,119.69C165.397,57.455 114.765,6.823 52.53,6.823C-9.705,6.823 -60.337,57.455 -60.337,119.69C-60.337,163.153 -36.069,202.025 2.998,221.137L0,227.265Z" style="fill:rgb(187,219,243);fill-rule:nonzero;"/>
                </g>
                <g transform="matrix(1.05811,0,0,1.05811,286.15,516.769)">
                    <path d="M0,30.178L32.962,26.915L13.655,0L0,30.178Z" style="fill:rgb(187,219,243);fill-rule:nonzero;"/>
                </g>
                <g transform="matrix(1.05811,0,0,1.05811,1793.9,1020.05)">
                    <path d="M0,-17.289C0,-0.545 -11.802,14.138 -29.549,22.417C-39.22,26.941 -50.672,29.549 -62.932,29.549C-70.024,29.549 -76.835,28.664 -83.198,27.059L-129.473,46.839L-116.211,7.638C-122.321,0.419 -125.873,-8.124 -125.873,-17.289C-125.873,-43.161 -97.695,-64.128 -62.932,-64.128C-38.072,-64.128 -16.579,-53.396 -6.354,-37.819C-2.286,-31.621 0,-24.655 0,-17.289" style="fill:white;fill-rule:nonzero;"/>
                </g>
                <g transform="matrix(1.05811,0,0,1.05811,240.725,945.129)">
                    <path d="M0,-12.554C0,-30.581 -9.34,-49.142 -28.434,-49.142C-48.071,-49.142 -57.683,-30.984 -57.552,-11.489C-57.683,7.611 -47.136,24.834 -28.978,24.834C-10.406,24.834 0,8.008 0,-12.554M9.623,46.069C-2.534,42.862 -14.418,39.258 -24.835,35.653C-26.705,34.984 -28.575,34.315 -30.304,34.315C-51.67,33.516 -69.97,17.756 -69.97,-11.222C-69.97,-40.063 -52.344,-58.623 -28.042,-58.623C-3.599,-58.623 12.287,-39.66 12.287,-13.092C12.287,10.013 1.609,24.834 -13.353,30.043L-13.353,30.575C-4.404,32.847 5.35,34.984 12.961,36.322L9.623,46.069Z" style="fill:white;fill-rule:nonzero;"/>
                </g>
                <g transform="matrix(0.366821,0,0,0.366821,1365.15,24.5086)">
                    <path d="M0,341.92C0,331.662 3.705,322.831 11.113,315.422C18.517,308.013 27.354,304.309 37.611,304.309C47.87,304.309 56.7,308.013 64.109,315.422C71.519,322.831 75.223,331.662 75.223,341.92C75.223,352.178 71.519,361.012 64.109,368.421C56.7,375.827 47.87,379.531 37.611,379.531C27.354,379.531 18.517,375.827 11.113,368.421C3.705,361.012 0,352.178 0,341.92M10.824,263.279L10.824,228.517C10.824,218.259 11.585,209.711 13.107,202.875C14.617,196.035 16.9,189.865 19.944,184.352C22.982,178.849 27.063,173.524 32.196,168.395C37.322,163.266 43.681,157.096 51.285,149.876C57.36,144.178 63.442,138.388 69.524,132.495C75.594,126.608 81.104,120.529 86.047,114.258C90.984,107.991 95.066,101.349 98.299,94.315C101.525,87.289 103.142,79.408 103.142,70.666C103.142,61.93 101.525,53.854 98.299,46.445C95.066,39.036 90.796,32.68 85.48,27.353C80.153,22.038 73.795,17.862 66.386,14.818C58.977,11.78 51.09,10.258 42.737,10.258C24.12,10.258 9.02,16.151 -2.566,27.925C-14.157,39.706 -21.089,55.09 -23.365,74.084L-81.493,68.386C-76.563,35.331 -62.782,9.403 -40.178,-9.403C-17.579,-28.208 10.44,-37.611 43.876,-37.611C59.832,-37.611 74.738,-35.234 88.613,-30.489C102.476,-25.734 114.545,-18.894 124.797,-9.972C135.055,-1.041 143.124,9.972 149.018,23.079C154.904,36.187 157.854,51.102 157.854,67.814C157.854,82.257 155.76,94.883 151.584,105.711C147.395,116.538 141.515,126.709 133.916,136.199L99.727,171.531L94.028,176.66C87.946,182.358 83.104,187.201 79.493,191.192C75.877,195.179 73.027,199.365 70.946,203.727C68.852,208.101 67.43,212.944 66.675,218.259C65.908,223.586 65.53,230.228 65.53,238.206L65.53,263.279L10.824,263.279Z" style="fill:rgb(242,187,22);fill-rule:nonzero;"/>
                </g>
                <g transform="matrix(0.366821,0,0,0.366821,1349.62,46.6672)">
                    <path d="M0,13.677L18.953,13.677L13.351,0L-11.119,0L0,13.677Z" style="fill:rgb(242,187,22);fill-rule:nonzero;"/>
                </g>
                <g transform="matrix(0.366821,0,0,0.366821,1371.99,158.868)">
                    <path d="M0,13.251L18.953,13.251L17.831,0L1.772,0L0,13.251Z" style="fill:rgb(242,187,22);fill-rule:nonzero;"/>
                </g>
                <g transform="matrix(0.366821,0,0,0.366821,1371.99,140.299)">
                    <path d="M0,-11.35L18.953,-11.35L18.29,0L3.607,0L0,-11.35Z" style="fill:rgb(242,187,22);fill-rule:nonzero;"/>
                </g>
                <g transform="matrix(0.366821,0,0,0.366821,1358.19,24.5086)">
                    <path d="M0,341.92C0,331.662 3.705,322.831 11.113,315.422C18.517,308.013 27.354,304.309 37.611,304.309C47.87,304.309 56.7,308.013 64.109,315.422C71.519,322.831 75.223,331.662 75.223,341.92C75.223,352.178 71.519,361.012 64.109,368.421C56.7,375.827 47.87,379.531 37.611,379.531C27.354,379.531 18.517,375.827 11.113,368.421C3.705,361.012 0,352.178 0,341.92M10.824,263.279L10.824,228.517C10.824,218.259 11.586,209.711 13.107,202.875C14.617,196.035 16.9,189.865 19.944,184.352C22.982,178.849 27.064,173.524 32.196,168.395C37.322,163.266 43.681,157.096 51.285,149.876C57.36,144.178 63.442,138.388 69.524,132.495C75.594,126.608 81.104,120.529 86.047,114.258C90.984,107.991 95.066,101.349 98.299,94.315C101.525,87.289 103.142,79.408 103.142,70.666C103.142,61.93 101.525,53.854 98.299,46.445C95.066,39.036 90.796,32.68 85.481,27.353C80.153,22.038 73.795,17.862 66.386,14.818C58.977,11.78 51.09,10.258 42.737,10.258C24.12,10.258 9.02,16.151 -2.566,27.925C-14.157,39.706 -21.089,55.09 -23.365,74.084L-81.493,68.386C-76.563,35.331 -62.781,9.403 -40.177,-9.403C-17.579,-28.208 10.44,-37.611 43.876,-37.611C59.832,-37.611 74.738,-35.234 88.613,-30.489C102.476,-25.734 114.545,-18.894 124.797,-9.972C135.055,-1.041 143.124,9.972 149.018,23.079C154.904,36.187 157.854,51.102 157.854,67.814C157.854,82.257 155.76,94.883 151.584,105.711C147.396,116.538 141.515,126.709 133.917,136.199L99.727,171.531L94.028,176.66C87.946,182.358 83.104,187.201 79.493,191.192C75.877,195.179 73.027,199.365 70.946,203.727C68.852,208.101 67.43,212.944 66.676,218.259C65.908,223.586 65.53,230.228 65.53,238.206L65.53,263.279L10.824,263.279Z" style="fill:rgb(249,225,129);fill-rule:nonzero;"/>
                </g>
            </g>
        </g>
    </g>
</svg>
